<ttFont>
    <TTGlyph name="A" xMin="-18" yMin="-10" xMax="591" yMax="649">
      <contour>
        <pt x="329" y="-10" on="1"/>
        <pt x="326" y="-3" on="1"/>
        <pt x="330" y="36" on="1"/>
        <pt x="381" y="40" on="0"/>
        <pt x="419" y="56" on="0"/>
        <pt x="419" y="94" on="0"/>
        <pt x="410" y="122" on="1"/>
        <pt x="377" y="231" on="1"/>
        <pt x="353" y="232" on="0"/>
        <pt x="225" y="232" on="0"/>
        <pt x="164" y="224" on="1"/>
        <pt x="127" y="120" on="1"/>
        <pt x="118" y="93" on="0"/>
        <pt x="118" y="81" on="1"/>
        <pt x="118" y="40" on="0"/>
        <pt x="178" y="40" on="1"/>
        <pt x="235" y="40" on="1"/>
        <pt x="237" y="36" on="1"/>
        <pt x="231" y="-7" on="1"/>
        <pt x="158" y="0" on="0"/>
        <pt x="92" y="0" on="1"/>
        <pt x="-18" y="-3" on="1"/>
        <pt x="-10" y="44" on="1"/>
        <pt x="18" y="47" on="0"/>
        <pt x="52" y="80" on="0"/>
        <pt x="68" y="121" on="1"/>
        <pt x="263" y="632" on="1"/>
        <pt x="326" y="649" on="1"/>
        <pt x="334" y="649" on="1"/>
        <pt x="418" y="338" on="0"/>
        <pt x="493" y="113" on="1"/>
        <pt x="505" y="76" on="0"/>
        <pt x="545" y="46" on="0"/>
        <pt x="589" y="42" on="1"/>
        <pt x="591" y="38" on="1"/>
        <pt x="584" y="-3" on="1"/>
        <pt x="512" y="0" on="0"/>
        <pt x="409" y="0" on="0"/>
      </contour>
      <contour>
        <pt x="270" y="273" on="1"/>
        <pt x="306" y="273" on="0"/>
        <pt x="363" y="278" on="1"/>
        <pt x="284" y="540" on="1"/>
        <pt x="277" y="540" on="1"/>
        <pt x="182" y="273" on="1"/>
      </contour>
    </TTGlyph>
    <TTGlyph name="AE" xMin="-10" yMin="-10" xMax="784" yMax="649">
      <contour>
        <pt x="360" y="41" on="0"/>
        <pt x="398" y="60" on="0"/>
        <pt x="398" y="81" on="1"/>
        <pt x="398" y="105" on="0"/>
        <pt x="373" y="276" on="1"/>
        <pt x="274" y="268" on="1"/>
        <pt x="183" y="258" on="1"/>
        <pt x="112" y="120" on="1"/>
        <pt x="96" y="89" on="0"/>
        <pt x="96" y="74" on="1"/>
        <pt x="96" y="40" on="0"/>
        <pt x="151" y="40" on="1"/>
        <pt x="208" y="40" on="1"/>
        <pt x="203" y="-7" on="1"/>
        <pt x="129" y="0" on="0"/>
        <pt x="65" y="0" on="1"/>
        <pt x="-3" y="-4" on="1"/>
        <pt x="-10" y="31" on="1"/>
        <pt x="23" y="66" on="0"/>
        <pt x="53" y="121" on="1"/>
        <pt x="300" y="578" on="1"/>
        <pt x="296" y="594" on="0"/>
        <pt x="275" y="594" on="1"/>
        <pt x="241" y="592" on="1"/>
        <pt x="239" y="596" on="1"/>
        <pt x="246" y="640" on="1"/>
        <pt x="357" y="637" on="0"/>
        <pt x="405" y="637" on="1"/>
        <pt x="623" y="637" on="0"/>
        <pt x="703" y="649" on="1"/>
        <pt x="706" y="643" on="1"/>
        <pt x="689" y="569" on="0"/>
        <pt x="683" y="477" on="1"/>
        <pt x="635" y="473" on="1"/>
        <pt x="637" y="502" on="0"/>
        <pt x="637" y="516" on="1"/>
        <pt x="637" y="565" on="0"/>
        <pt x="587" y="587" on="0"/>
        <pt x="433" y="587" on="0"/>
        <pt x="411" y="577" on="0"/>
        <pt x="410" y="556" on="1"/>
        <pt x="441" y="328" on="1"/>
        <pt x="559" y="339" on="1"/>
        <pt x="651" y="352" on="1"/>
        <pt x="655" y="347" on="1"/>
        <pt x="642" y="294" on="1"/>
        <pt x="556" y="291" on="1"/>
        <pt x="447" y="282" on="1"/>
        <pt x="475" y="113" on="1"/>
        <pt x="481" y="75" on="0"/>
        <pt x="518" y="45" on="0"/>
        <pt x="559" y="45" on="1"/>
        <pt x="668" y="45" on="0"/>
        <pt x="726" y="85" on="0"/>
        <pt x="737" y="167" on="1"/>
        <pt x="781" y="172" on="1"/>
        <pt x="784" y="167" on="1"/>
        <pt x="766" y="84" on="0"/>
        <pt x="757" y="-1" on="1"/>
        <pt x="752" y="-7" on="1"/>
        <pt x="544" y="0" on="0"/>
        <pt x="483" y="0" on="1"/>
        <pt x="449" y="0" on="1"/>
        <pt x="381" y="0" on="0"/>
        <pt x="301" y="-10" on="1"/>
        <pt x="299" y="-3" on="1"/>
        <pt x="301" y="36" on="1"/>
      </contour>
      <contour>
        <pt x="210" y="310" on="1"/>
        <pt x="367" y="321" on="1"/>
        <pt x="337" y="539" on="1"/>
        <pt x="328" y="539" on="1"/>
      </contour>
    </TTGlyph>
    <TTGlyph name="AEacute" xMin="-10" yMin="-10" xMax="784" yMax="890">
      <contour>
        <pt x="360" y="41" on="0"/>
        <pt x="398" y="60" on="0"/>
        <pt x="398" y="81" on="1"/>
        <pt x="398" y="105" on="0"/>
        <pt x="373" y="276" on="1"/>
        <pt x="274" y="268" on="1"/>
        <pt x="183" y="258" on="1"/>
        <pt x="112" y="120" on="1"/>
        <pt x="96" y="89" on="0"/>
        <pt x="96" y="74" on="1"/>
        <pt x="96" y="40" on="0"/>
        <pt x="151" y="40" on="1"/>
        <pt x="208" y="40" on="1"/>
        <pt x="203" y="-7" on="1"/>
        <pt x="129" y="0" on="0"/>
        <pt x="65" y="0" on="1"/>
        <pt x="-3" y="-4" on="1"/>
        <pt x="-10" y="31" on="1"/>
        <pt x="23" y="66" on="0"/>
        <pt x="53" y="121" on="1"/>
        <pt x="300" y="578" on="1"/>
        <pt x="296" y="594" on="0"/>
        <pt x="275" y="594" on="1"/>
        <pt x="241" y="592" on="1"/>
        <pt x="239" y="596" on="1"/>
        <pt x="246" y="640" on="1"/>
        <pt x="357" y="637" on="0"/>
        <pt x="405" y="637" on="1"/>
        <pt x="623" y="637" on="0"/>
        <pt x="703" y="649" on="1"/>
        <pt x="706" y="643" on="1"/>
        <pt x="689" y="569" on="0"/>
        <pt x="683" y="477" on="1"/>
        <pt x="635" y="473" on="1"/>
        <pt x="637" y="502" on="0"/>
        <pt x="637" y="516" on="1"/>
        <pt x="637" y="565" on="0"/>
        <pt x="587" y="587" on="0"/>
        <pt x="433" y="587" on="0"/>
        <pt x="411" y="577" on="0"/>
        <pt x="410" y="556" on="1"/>
        <pt x="441" y="328" on="1"/>
        <pt x="559" y="339" on="1"/>
        <pt x="651" y="352" on="1"/>
        <pt x="655" y="347" on="1"/>
        <pt x="642" y="294" on="1"/>
        <pt x="556" y="291" on="1"/>
        <pt x="447" y="282" on="1"/>
        <pt x="475" y="113" on="1"/>
        <pt x="481" y="75" on="0"/>
        <pt x="518" y="45" on="0"/>
        <pt x="559" y="45" on="1"/>
        <pt x="668" y="45" on="0"/>
        <pt x="726" y="85" on="0"/>
        <pt x="737" y="167" on="1"/>
        <pt x="781" y="172" on="1"/>
        <pt x="784" y="167" on="1"/>
        <pt x="766" y="84" on="0"/>
        <pt x="757" y="-1" on="1"/>
        <pt x="752" y="-7" on="1"/>
        <pt x="544" y="0" on="0"/>
        <pt x="483" y="0" on="1"/>
        <pt x="449" y="0" on="1"/>
        <pt x="381" y="0" on="0"/>
        <pt x="301" y="-10" on="1"/>
        <pt x="299" y="-3" on="1"/>
        <pt x="301" y="36" on="1"/>
      </contour>
      <contour>
        <pt x="210" y="310" on="1"/>
        <pt x="367" y="321" on="1"/>
        <pt x="337" y="539" on="1"/>
        <pt x="328" y="539" on="1"/>
      </contour>
      <contour>
        <pt x="630" y="847" on="1"/>
        <pt x="629" y="836" on="1"/>
        <pt x="545" y="772" on="0"/>
        <pt x="461" y="696" on="1"/>
        <pt x="452" y="698" on="1"/>
        <pt x="432" y="717" on="1"/>
        <pt x="505" y="796" on="0"/>
        <pt x="582" y="890" on="1"/>
        <pt x="592" y="888" on="1"/>
      </contour>
    </TTGlyph>
    <TTGlyph name="Aacute" xMin="-18" yMin="-10" xMax="591" yMax="841">
      <contour>
        <pt x="329" y="-10" on="1"/>
        <pt x="326" y="-3" on="1"/>
        <pt x="330" y="36" on="1"/>
        <pt x="381" y="40" on="0"/>
        <pt x="419" y="56" on="0"/>
        <pt x="419" y="94" on="0"/>
        <pt x="410" y="122" on="1"/>
        <pt x="377" y="231" on="1"/>
        <pt x="353" y="232" on="0"/>
        <pt x="225" y="232" on="0"/>
        <pt x="164" y="224" on="1"/>
        <pt x="127" y="120" on="1"/>
        <pt x="118" y="93" on="0"/>
        <pt x="118" y="81" on="1"/>
        <pt x="118" y="40" on="0"/>
        <pt x="178" y="40" on="1"/>
        <pt x="235" y="40" on="1"/>
        <pt x="237" y="36" on="1"/>
        <pt x="231" y="-7" on="1"/>
        <pt x="158" y="0" on="0"/>
        <pt x="92" y="0" on="1"/>
        <pt x="-18" y="-3" on="1"/>
        <pt x="-10" y="44" on="1"/>
        <pt x="18" y="47" on="0"/>
        <pt x="52" y="80" on="0"/>
        <pt x="68" y="121" on="1"/>
        <pt x="263" y="632" on="1"/>
        <pt x="326" y="649" on="1"/>
        <pt x="334" y="649" on="1"/>
        <pt x="418" y="338" on="0"/>
        <pt x="493" y="113" on="1"/>
        <pt x="505" y="76" on="0"/>
        <pt x="545" y="46" on="0"/>
        <pt x="589" y="42" on="1"/>
        <pt x="591" y="38" on="1"/>
        <pt x="584" y="-3" on="1"/>
        <pt x="512" y="0" on="0"/>
        <pt x="409" y="0" on="0"/>
      </contour>
      <contour>
        <pt x="270" y="273" on="1"/>
        <pt x="306" y="273" on="0"/>
        <pt x="363" y="278" on="1"/>
        <pt x="284" y="540" on="1"/>
        <pt x="277" y="540" on="1"/>
        <pt x="182" y="273" on="1"/>
      </contour>
      <contour>
        <pt x="455" y="787" on="1"/>
        <pt x="451" y="777" on="1"/>
        <pt x="350" y="743" on="0"/>
        <pt x="245" y="703" on="1"/>
        <pt x="237" y="708" on="1"/>
        <pt x="231" y="732" on="1"/>
        <pt x="430" y="841" on="1"/>
        <pt x="439" y="835" on="1"/>
      </contour>
    </TTGlyph>
    <TTGlyph name="Abreve" xMin="-18" yMin="-10" xMax="591" yMax="818">
      <contour>
        <pt x="329" y="-10" on="1"/>
        <pt x="326" y="-3" on="1"/>
        <pt x="330" y="36" on="1"/>
        <pt x="381" y="40" on="0"/>
        <pt x="419" y="56" on="0"/>
        <pt x="419" y="94" on="0"/>
        <pt x="410" y="122" on="1"/>
        <pt x="377" y="231" on="1"/>
        <pt x="353" y="232" on="0"/>
        <pt x="225" y="232" on="0"/>
        <pt x="164" y="224" on="1"/>
        <pt x="127" y="120" on="1"/>
        <pt x="118" y="93" on="0"/>
        <pt x="118" y="81" on="1"/>
        <pt x="118" y="40" on="0"/>
        <pt x="178" y="40" on="1"/>
        <pt x="235" y="40" on="1"/>
        <pt x="237" y="36" on="1"/>
        <pt x="231" y="-7" on="1"/>
        <pt x="158" y="0" on="0"/>
        <pt x="92" y="0" on="1"/>
        <pt x="-18" y="-3" on="1"/>
        <pt x="-10" y="44" on="1"/>
        <pt x="18" y="47" on="0"/>
        <pt x="52" y="80" on="0"/>
        <pt x="68" y="121" on="1"/>
        <pt x="263" y="632" on="1"/>
        <pt x="326" y="649" on="1"/>
        <pt x="334" y="649" on="1"/>
        <pt x="418" y="338" on="0"/>
        <pt x="493" y="113" on="1"/>
        <pt x="505" y="76" on="0"/>
        <pt x="545" y="46" on="0"/>
        <pt x="589" y="42" on="1"/>
        <pt x="591" y="38" on="1"/>
        <pt x="584" y="-3" on="1"/>
        <pt x="512" y="0" on="0"/>
        <pt x="409" y="0" on="0"/>
      </contour>
      <contour>
        <pt x="270" y="273" on="1"/>
        <pt x="306" y="273" on="0"/>
        <pt x="363" y="278" on="1"/>
        <pt x="284" y="540" on="1"/>
        <pt x="277" y="540" on="1"/>
        <pt x="182" y="273" on="1"/>
      </contour>
      <contour>
        <pt x="224" y="768" on="0"/>
        <pt x="364" y="768" on="0"/>
        <pt x="390" y="818" on="1"/>
        <pt x="398" y="818" on="1"/>
        <pt x="414" y="808" on="1"/>
        <pt x="402" y="766" on="0"/>
        <pt x="342" y="710" on="0"/>
        <pt x="246" y="710" on="0"/>
        <pt x="186" y="766" on="0"/>
        <pt x="174" y="808" on="1"/>
        <pt x="190" y="818" on="1"/>
        <pt x="198" y="818" on="1"/>
      </contour>
    </TTGlyph>
    <TTGlyph name="Acircumflex" xMin="-18" yMin="-10" xMax="591" yMax="846">
      <contour>
        <pt x="329" y="-10" on="1"/>
        <pt x="326" y="-3" on="1"/>
        <pt x="330" y="36" on="1"/>
        <pt x="381" y="40" on="0"/>
        <pt x="419" y="56" on="0"/>
        <pt x="419" y="94" on="0"/>
        <pt x="410" y="122" on="1"/>
        <pt x="377" y="231" on="1"/>
        <pt x="353" y="232" on="0"/>
        <pt x="225" y="232" on="0"/>
        <pt x="164" y="224" on="1"/>
        <pt x="127" y="120" on="1"/>
        <pt x="118" y="93" on="0"/>
        <pt x="118" y="81" on="1"/>
        <pt x="118" y="40" on="0"/>
        <pt x="178" y="40" on="1"/>
        <pt x="235" y="40" on="1"/>
        <pt x="237" y="36" on="1"/>
        <pt x="231" y="-7" on="1"/>
        <pt x="158" y="0" on="0"/>
        <pt x="92" y="0" on="1"/>
        <pt x="-18" y="-3" on="1"/>
        <pt x="-10" y="44" on="1"/>
        <pt x="18" y="47" on="0"/>
        <pt x="52" y="80" on="0"/>
        <pt x="68" y="121" on="1"/>
        <pt x="263" y="632" on="1"/>
        <pt x="326" y="649" on="1"/>
        <pt x="334" y="649" on="1"/>
        <pt x="418" y="338" on="0"/>
        <pt x="493" y="113" on="1"/>
        <pt x="505" y="76" on="0"/>
        <pt x="545" y="46" on="0"/>
        <pt x="589" y="42" on="1"/>
        <pt x="591" y="38" on="1"/>
        <pt x="584" y="-3" on="1"/>
        <pt x="512" y="0" on="0"/>
        <pt x="409" y="0" on="0"/>
      </contour>
      <contour>
        <pt x="270" y="273" on="1"/>
        <pt x="306" y="273" on="0"/>
        <pt x="363" y="278" on="1"/>
        <pt x="284" y="540" on="1"/>
        <pt x="277" y="540" on="1"/>
        <pt x="182" y="273" on="1"/>
      </contour>
      <contour>
        <pt x="164" y="713" on="1"/>
        <pt x="150" y="735" on="1"/>
        <pt x="288" y="846" on="1"/>
        <pt x="302" y="846" on="1"/>
        <pt x="375" y="784" on="0"/>
        <pt x="440" y="735" on="1"/>
        <pt x="426" y="713" on="1"/>
        <pt x="417" y="712" on="1"/>
        <pt x="350" y="751" on="0"/>
        <pt x="295" y="777" on="1"/>
        <pt x="243" y="753" on="0"/>
        <pt x="173" y="712" on="1"/>
      </contour>
    </TTGlyph>
    <TTGlyph name="Adieresis" xMin="-18" yMin="-10" xMax="591" yMax="818">
      <contour>
        <pt x="329" y="-10" on="1"/>
        <pt x="326" y="-3" on="1"/>
        <pt x="330" y="36" on="1"/>
        <pt x="381" y="40" on="0"/>
        <pt x="419" y="56" on="0"/>
        <pt x="419" y="94" on="0"/>
        <pt x="410" y="122" on="1"/>
        <pt x="377" y="231" on="1"/>
        <pt x="353" y="232" on="0"/>
        <pt x="225" y="232" on="0"/>
        <pt x="164" y="224" on="1"/>
        <pt x="127" y="120" on="1"/>
        <pt x="118" y="93" on="0"/>
        <pt x="118" y="81" on="1"/>
        <pt x="118" y="40" on="0"/>
        <pt x="178" y="40" on="1"/>
        <pt x="235" y="40" on="1"/>
        <pt x="237" y="36" on="1"/>
        <pt x="231" y="-7" on="1"/>
        <pt x="158" y="0" on="0"/>
        <pt x="92" y="0" on="1"/>
        <pt x="-18" y="-3" on="1"/>
        <pt x="-10" y="44" on="1"/>
        <pt x="18" y="47" on="0"/>
        <pt x="52" y="80" on="0"/>
        <pt x="68" y="121" on="1"/>
        <pt x="263" y="632" on="1"/>
        <pt x="326" y="649" on="1"/>
        <pt x="334" y="649" on="1"/>
        <pt x="418" y="338" on="0"/>
        <pt x="493" y="113" on="1"/>
        <pt x="505" y="76" on="0"/>
        <pt x="545" y="46" on="0"/>
        <pt x="589" y="42" on="1"/>
        <pt x="591" y="38" on="1"/>
        <pt x="584" y="-3" on="1"/>
        <pt x="512" y="0" on="0"/>
        <pt x="409" y="0" on="0"/>
      </contour>
      <contour>
        <pt x="270" y="273" on="1"/>
        <pt x="306" y="273" on="0"/>
        <pt x="363" y="278" on="1"/>
        <pt x="284" y="540" on="1"/>
        <pt x="277" y="540" on="1"/>
        <pt x="182" y="273" on="1"/>
      </contour>
      <contour>
        <pt x="423" y="754" on="0"/>
        <pt x="394" y="725" on="0"/>
        <pt x="354" y="725" on="0"/>
        <pt x="332" y="751" on="0"/>
        <pt x="332" y="789" on="0"/>
        <pt x="361" y="818" on="0"/>
        <pt x="401" y="818" on="0"/>
        <pt x="423" y="793" on="0"/>
      </contour>
      <contour>
        <pt x="257" y="754" on="0"/>
        <pt x="228" y="725" on="0"/>
        <pt x="188" y="725" on="0"/>
        <pt x="166" y="751" on="0"/>
        <pt x="166" y="789" on="0"/>
        <pt x="195" y="818" on="0"/>
        <pt x="235" y="818" on="0"/>
        <pt x="257" y="793" on="0"/>
      </contour>
    </TTGlyph>
    <TTGlyph name="Agrave" xMin="-18" yMin="-10" xMax="591" yMax="841">
      <contour>
        <pt x="329" y="-10" on="1"/>
        <pt x="326" y="-3" on="1"/>
        <pt x="330" y="36" on="1"/>
        <pt x="381" y="40" on="0"/>
        <pt x="419" y="56" on="0"/>
        <pt x="419" y="94" on="0"/>
        <pt x="410" y="122" on="1"/>
        <pt x="377" y="231" on="1"/>
        <pt x="353" y="232" on="0"/>
        <pt x="225" y="232" on="0"/>
        <pt x="164" y="224" on="1"/>
        <pt x="127" y="120" on="1"/>
        <pt x="118" y="93" on="0"/>
        <pt x="118" y="81" on="1"/>
        <pt x="118" y="40" on="0"/>
        <pt x="178" y="40" on="1"/>
        <pt x="235" y="40" on="1"/>
        <pt x="237" y="36" on="1"/>
        <pt x="231" y="-7" on="1"/>
        <pt x="158" y="0" on="0"/>
        <pt x="92" y="0" on="1"/>
        <pt x="-18" y="-3" on="1"/>
        <pt x="-10" y="44" on="1"/>
        <pt x="18" y="47" on="0"/>
        <pt x="52" y="80" on="0"/>
        <pt x="68" y="121" on="1"/>
        <pt x="263" y="632" on="1"/>
        <pt x="326" y="649" on="1"/>
        <pt x="334" y="649" on="1"/>
        <pt x="418" y="338" on="0"/>
        <pt x="493" y="113" on="1"/>
        <pt x="505" y="76" on="0"/>
        <pt x="545" y="46" on="0"/>
        <pt x="589" y="42" on="1"/>
        <pt x="591" y="38" on="1"/>
        <pt x="584" y="-3" on="1"/>
        <pt x="512" y="0" on="0"/>
        <pt x="409" y="0" on="0"/>
      </contour>
      <contour>
        <pt x="270" y="273" on="1"/>
        <pt x="306" y="273" on="0"/>
        <pt x="363" y="278" on="1"/>
        <pt x="284" y="540" on="1"/>
        <pt x="277" y="540" on="1"/>
        <pt x="182" y="273" on="1"/>
      </contour>
      <contour>
        <pt x="146" y="777" on="1"/>
        <pt x="142" y="787" on="1"/>
        <pt x="158" y="835" on="1"/>
        <pt x="167" y="841" on="1"/>
        <pt x="272" y="781" on="0"/>
        <pt x="366" y="732" on="1"/>
        <pt x="360" y="708" on="1"/>
        <pt x="352" y="703" on="1"/>
      </contour>
    </TTGlyph>
    <TTGlyph name="Amacron" xMin="-18" yMin="-10" xMax="591" yMax="778">
      <contour>
        <pt x="329" y="-10" on="1"/>
        <pt x="326" y="-3" on="1"/>
        <pt x="330" y="36" on="1"/>
        <pt x="381" y="40" on="0"/>
        <pt x="419" y="56" on="0"/>
        <pt x="419" y="94" on="0"/>
        <pt x="410" y="122" on="1"/>
        <pt x="377" y="231" on="1"/>
        <pt x="353" y="232" on="0"/>
        <pt x="225" y="232" on="0"/>
        <pt x="164" y="224" on="1"/>
        <pt x="127" y="120" on="1"/>
        <pt x="118" y="93" on="0"/>
        <pt x="118" y="81" on="1"/>
        <pt x="118" y="40" on="0"/>
        <pt x="178" y="40" on="1"/>
        <pt x="235" y="40" on="1"/>
        <pt x="237" y="36" on="1"/>
        <pt x="231" y="-7" on="1"/>
        <pt x="158" y="0" on="0"/>
        <pt x="92" y="0" on="1"/>
        <pt x="-18" y="-3" on="1"/>
        <pt x="-10" y="44" on="1"/>
        <pt x="18" y="47" on="0"/>
        <pt x="52" y="80" on="0"/>
        <pt x="68" y="121" on="1"/>
        <pt x="263" y="632" on="1"/>
        <pt x="326" y="649" on="1"/>
        <pt x="334" y="649" on="1"/>
        <pt x="418" y="338" on="0"/>
        <pt x="493" y="113" on="1"/>
        <pt x="505" y="76" on="0"/>
        <pt x="545" y="46" on="0"/>
        <pt x="589" y="42" on="1"/>
        <pt x="591" y="38" on="1"/>
        <pt x="584" y="-3" on="1"/>
        <pt x="512" y="0" on="0"/>
        <pt x="409" y="0" on="0"/>
      </contour>
      <contour>
        <pt x="270" y="273" on="1"/>
        <pt x="306" y="273" on="0"/>
        <pt x="363" y="278" on="1"/>
        <pt x="284" y="540" on="1"/>
        <pt x="277" y="540" on="1"/>
        <pt x="182" y="273" on="1"/>
      </contour>
      <contour>
        <pt x="438" y="778" on="1"/>
        <pt x="444" y="768" on="1"/>
        <pt x="437" y="721" on="1"/>
        <pt x="151" y="719" on="1"/>
        <pt x="145" y="728" on="1"/>
        <pt x="155" y="773" on="1"/>
        <pt x="250" y="772" on="0"/>
        <pt x="309" y="772" on="1"/>
      </contour>
    </TTGlyph>
    <TTGlyph name="Aogonek" xMin="-18" yMin="-241" xMax="591" yMax="649">
      <contour>
        <pt x="441" y="-241" on="0"/>
        <pt x="380" y="-191" on="0"/>
        <pt x="380" y="-115" on="0"/>
        <pt x="427" y="-47" on="0"/>
        <pt x="474" y="0" on="1"/>
        <pt x="407" y="0" on="0"/>
        <pt x="329" y="-10" on="1"/>
        <pt x="326" y="-3" on="1"/>
        <pt x="330" y="36" on="1"/>
        <pt x="381" y="40" on="0"/>
        <pt x="419" y="56" on="0"/>
        <pt x="419" y="94" on="0"/>
        <pt x="410" y="122" on="1"/>
        <pt x="377" y="231" on="1"/>
        <pt x="353" y="232" on="0"/>
        <pt x="225" y="232" on="0"/>
        <pt x="164" y="224" on="1"/>
        <pt x="127" y="120" on="1"/>
        <pt x="118" y="93" on="0"/>
        <pt x="118" y="81" on="1"/>
        <pt x="118" y="40" on="0"/>
        <pt x="178" y="40" on="1"/>
        <pt x="235" y="40" on="1"/>
        <pt x="237" y="36" on="1"/>
        <pt x="231" y="-7" on="1"/>
        <pt x="158" y="0" on="0"/>
        <pt x="92" y="0" on="1"/>
        <pt x="-18" y="-3" on="1"/>
        <pt x="-10" y="44" on="1"/>
        <pt x="18" y="47" on="0"/>
        <pt x="52" y="80" on="0"/>
        <pt x="68" y="121" on="1"/>
        <pt x="263" y="632" on="1"/>
        <pt x="326" y="649" on="1"/>
        <pt x="334" y="649" on="1"/>
        <pt x="418" y="338" on="0"/>
        <pt x="493" y="113" on="1"/>
        <pt x="505" y="76" on="0"/>
        <pt x="545" y="46" on="0"/>
        <pt x="589" y="42" on="1"/>
        <pt x="591" y="38" on="1"/>
        <pt x="584" y="-3" on="1"/>
        <pt x="550" y="-1" on="0"/>
        <pt x="518" y="0" on="1"/>
        <pt x="476" y="-44" on="0"/>
        <pt x="443" y="-99" on="0"/>
        <pt x="443" y="-152" on="0"/>
        <pt x="475" y="-182" on="0"/>
        <pt x="496" y="-182" on="1"/>
        <pt x="534" y="-182" on="0"/>
        <pt x="578" y="-159" on="1"/>
        <pt x="591" y="-178" on="1"/>
        <pt x="542" y="-224" on="0"/>
        <pt x="491" y="-241" on="1"/>
      </contour>
      <contour>
        <pt x="270" y="273" on="1"/>
        <pt x="306" y="273" on="0"/>
        <pt x="363" y="278" on="1"/>
        <pt x="284" y="540" on="1"/>
        <pt x="277" y="540" on="1"/>
        <pt x="182" y="273" on="1"/>
      </contour>
    </TTGlyph>
    <TTGlyph name="Aring" xMin="-18" yMin="-10" xMax="591" yMax="838">
      <contour>
        <pt x="329" y="-10" on="1"/>
        <pt x="326" y="-3" on="1"/>
        <pt x="330" y="36" on="1"/>
        <pt x="381" y="40" on="0"/>
        <pt x="419" y="56" on="0"/>
        <pt x="419" y="94" on="0"/>
        <pt x="410" y="122" on="1"/>
        <pt x="377" y="231" on="1"/>
        <pt x="353" y="232" on="0"/>
        <pt x="225" y="232" on="0"/>
        <pt x="164" y="224" on="1"/>
        <pt x="127" y="120" on="1"/>
        <pt x="118" y="93" on="0"/>
        <pt x="118" y="81" on="1"/>
        <pt x="118" y="40" on="0"/>
        <pt x="178" y="40" on="1"/>
        <pt x="235" y="40" on="1"/>
        <pt x="237" y="36" on="1"/>
        <pt x="231" y="-7" on="1"/>
        <pt x="158" y="0" on="0"/>
        <pt x="92" y="0" on="1"/>
        <pt x="-18" y="-3" on="1"/>
        <pt x="-10" y="44" on="1"/>
        <pt x="18" y="47" on="0"/>
        <pt x="52" y="80" on="0"/>
        <pt x="68" y="121" on="1"/>
        <pt x="263" y="632" on="1"/>
        <pt x="326" y="649" on="1"/>
        <pt x="334" y="649" on="1"/>
        <pt x="418" y="338" on="0"/>
        <pt x="493" y="113" on="1"/>
        <pt x="505" y="76" on="0"/>
        <pt x="545" y="46" on="0"/>
        <pt x="589" y="42" on="1"/>
        <pt x="591" y="38" on="1"/>
        <pt x="584" y="-3" on="1"/>
        <pt x="512" y="0" on="0"/>
        <pt x="409" y="0" on="0"/>
      </contour>
      <contour>
        <pt x="270" y="273" on="1"/>
        <pt x="306" y="273" on="0"/>
        <pt x="363" y="278" on="1"/>
        <pt x="284" y="540" on="1"/>
        <pt x="277" y="540" on="1"/>
        <pt x="182" y="273" on="1"/>
      </contour>
      <contour>
        <pt x="297" y="712" on="1"/>
        <pt x="341" y="712" on="0"/>
        <pt x="341" y="751" on="1"/>
        <pt x="341" y="773" on="0"/>
        <pt x="314" y="799" on="0"/>
        <pt x="290" y="799" on="1"/>
        <pt x="246" y="799" on="0"/>
        <pt x="246" y="760" on="1"/>
        <pt x="246" y="736" on="0"/>
        <pt x="278" y="712" on="0"/>
      </contour>
      <contour>
        <pt x="375" y="726" on="0"/>
        <pt x="329" y="674" on="0"/>
        <pt x="254" y="674" on="0"/>
        <pt x="214" y="718" on="0"/>
        <pt x="214" y="791" on="0"/>
        <pt x="260" y="838" on="0"/>
        <pt x="336" y="838" on="0"/>
        <pt x="375" y="794" on="0"/>
      </contour>
    </TTGlyph>
    <TTGlyph name="Aringacute" xMin="-18" yMin="-10" xMax="591" yMax="942">
      <contour>
        <pt x="329" y="-10" on="1"/>
        <pt x="326" y="-3" on="1"/>
        <pt x="330" y="36" on="1"/>
        <pt x="381" y="40" on="0"/>
        <pt x="419" y="56" on="0"/>
        <pt x="419" y="94" on="0"/>
        <pt x="410" y="122" on="1"/>
        <pt x="377" y="231" on="1"/>
        <pt x="353" y="232" on="0"/>
        <pt x="225" y="232" on="0"/>
        <pt x="164" y="224" on="1"/>
        <pt x="127" y="120" on="1"/>
        <pt x="118" y="93" on="0"/>
        <pt x="118" y="81" on="1"/>
        <pt x="118" y="40" on="0"/>
        <pt x="178" y="40" on="1"/>
        <pt x="235" y="40" on="1"/>
        <pt x="237" y="36" on="1"/>
        <pt x="231" y="-7" on="1"/>
        <pt x="158" y="0" on="0"/>
        <pt x="92" y="0" on="1"/>
        <pt x="-18" y="-3" on="1"/>
        <pt x="-10" y="44" on="1"/>
        <pt x="18" y="47" on="0"/>
        <pt x="52" y="80" on="0"/>
        <pt x="68" y="121" on="1"/>
        <pt x="263" y="632" on="1"/>
        <pt x="326" y="649" on="1"/>
        <pt x="334" y="649" on="1"/>
        <pt x="418" y="338" on="0"/>
        <pt x="493" y="113" on="1"/>
        <pt x="505" y="76" on="0"/>
        <pt x="545" y="46" on="0"/>
        <pt x="589" y="42" on="1"/>
        <pt x="591" y="38" on="1"/>
        <pt x="584" y="-3" on="1"/>
        <pt x="512" y="0" on="0"/>
        <pt x="409" y="0" on="0"/>
      </contour>
      <contour>
        <pt x="270" y="273" on="1"/>
        <pt x="306" y="273" on="0"/>
        <pt x="363" y="278" on="1"/>
        <pt x="284" y="540" on="1"/>
        <pt x="277" y="540" on="1"/>
        <pt x="182" y="273" on="1"/>
      </contour>
      <contour>
        <pt x="313" y="704" on="1"/>
        <pt x="353" y="704" on="0"/>
        <pt x="353" y="739" on="1"/>
        <pt x="353" y="758" on="0"/>
        <pt x="328" y="782" on="0"/>
        <pt x="307" y="782" on="1"/>
        <pt x="267" y="782" on="0"/>
        <pt x="267" y="747" on="1"/>
        <pt x="267" y="725" on="0"/>
        <pt x="296" y="704" on="0"/>
      </contour>
      <contour>
        <pt x="383" y="716" on="0"/>
        <pt x="342" y="669" on="0"/>
        <pt x="275" y="669" on="0"/>
        <pt x="238" y="709" on="0"/>
        <pt x="238" y="774" on="0"/>
        <pt x="280" y="817" on="0"/>
        <pt x="348" y="817" on="0"/>
        <pt x="383" y="777" on="0"/>
      </contour>
      <contour>
        <pt x="423" y="893" on="1"/>
        <pt x="419" y="884" on="1"/>
        <pt x="329" y="854" on="0"/>
        <pt x="234" y="818" on="1"/>
        <pt x="227" y="822" on="1"/>
        <pt x="221" y="844" on="1"/>
        <pt x="401" y="942" on="1"/>
        <pt x="409" y="936" on="1"/>
      </contour>
    </TTGlyph>
    <TTGlyph name="Atilde" xMin="-18" yMin="-10" xMax="591" yMax="820">
      <contour>
        <pt x="329" y="-10" on="1"/>
        <pt x="326" y="-3" on="1"/>
        <pt x="330" y="36" on="1"/>
        <pt x="381" y="40" on="0"/>
        <pt x="419" y="56" on="0"/>
        <pt x="419" y="94" on="0"/>
        <pt x="410" y="122" on="1"/>
        <pt x="377" y="231" on="1"/>
        <pt x="353" y="232" on="0"/>
        <pt x="225" y="232" on="0"/>
        <pt x="164" y="224" on="1"/>
        <pt x="127" y="120" on="1"/>
        <pt x="118" y="93" on="0"/>
        <pt x="118" y="81" on="1"/>
        <pt x="118" y="40" on="0"/>
        <pt x="178" y="40" on="1"/>
        <pt x="235" y="40" on="1"/>
        <pt x="237" y="36" on="1"/>
        <pt x="231" y="-7" on="1"/>
        <pt x="158" y="0" on="0"/>
        <pt x="92" y="0" on="1"/>
        <pt x="-18" y="-3" on="1"/>
        <pt x="-10" y="44" on="1"/>
        <pt x="18" y="47" on="0"/>
        <pt x="52" y="80" on="0"/>
        <pt x="68" y="121" on="1"/>
        <pt x="263" y="632" on="1"/>
        <pt x="326" y="649" on="1"/>
        <pt x="334" y="649" on="1"/>
        <pt x="418" y="338" on="0"/>
        <pt x="493" y="113" on="1"/>
        <pt x="505" y="76" on="0"/>
        <pt x="545" y="46" on="0"/>
        <pt x="589" y="42" on="1"/>
        <pt x="591" y="38" on="1"/>
        <pt x="584" y="-3" on="1"/>
        <pt x="512" y="0" on="0"/>
        <pt x="409" y="0" on="0"/>
      </contour>
      <contour>
        <pt x="270" y="273" on="1"/>
        <pt x="306" y="273" on="0"/>
        <pt x="363" y="278" on="1"/>
        <pt x="284" y="540" on="1"/>
        <pt x="277" y="540" on="1"/>
        <pt x="182" y="273" on="1"/>
      </contour>
      <contour>
        <pt x="241" y="808" on="0"/>
        <pt x="357" y="775" on="0"/>
        <pt x="368" y="775" on="1"/>
        <pt x="390" y="775" on="0"/>
        <pt x="422" y="809" on="1"/>
        <pt x="433" y="820" on="1"/>
        <pt x="439" y="820" on="1"/>
        <pt x="461" y="799" on="1"/>
        <pt x="461" y="794" on="1"/>
        <pt x="385" y="715" on="1"/>
        <pt x="369" y="711" on="1"/>
        <pt x="352" y="711" on="0"/>
        <pt x="236" y="744" on="0"/>
        <pt x="224" y="744" on="1"/>
        <pt x="201" y="744" on="0"/>
        <pt x="170" y="710" on="1"/>
        <pt x="160" y="699" on="1"/>
        <pt x="154" y="699" on="1"/>
        <pt x="132" y="720" on="1"/>
        <pt x="132" y="725" on="1"/>
        <pt x="208" y="804" on="1"/>
        <pt x="224" y="808" on="1"/>
      </contour>
    </TTGlyph>
    <TTGlyph name="B" xMin="58" yMin="-12" xMax="542" yMax="641">
      <contour>
        <pt x="286" y="-10" on="0"/>
        <pt x="198" y="0" on="0"/>
        <pt x="174" y="0" on="1"/>
        <pt x="128" y="0" on="0"/>
        <pt x="58" y="-12" on="1"/>
        <pt x="64" y="34" on="1"/>
        <pt x="110" y="43" on="0"/>
        <pt x="142" y="78" on="0"/>
        <pt x="142" y="120" on="1"/>
        <pt x="143" y="540" on="1"/>
        <pt x="143" y="572" on="0"/>
        <pt x="128" y="594" on="0"/>
        <pt x="106" y="594" on="1"/>
        <pt x="72" y="592" on="1"/>
        <pt x="70" y="596" on="1"/>
        <pt x="77" y="640" on="1"/>
        <pt x="150" y="637" on="0"/>
        <pt x="188" y="637" on="1"/>
        <pt x="306" y="641" on="1"/>
        <pt x="401" y="641" on="0"/>
        <pt x="503" y="562" on="0"/>
        <pt x="503" y="489" on="1"/>
        <pt x="503" y="439" on="0"/>
        <pt x="442" y="359" on="0"/>
        <pt x="387" y="335" on="1"/>
        <pt x="460" y="319" on="0"/>
        <pt x="542" y="239" on="0"/>
        <pt x="542" y="183" on="1"/>
        <pt x="542" y="105" on="0"/>
        <pt x="402" y="-10" on="0"/>
        <pt x="307" y="-10" on="1"/>
      </contour>
      <contour>
        <pt x="213" y="73" on="0"/>
        <pt x="265" y="41" on="0"/>
        <pt x="387" y="41" on="0"/>
        <pt x="456" y="108" on="0"/>
        <pt x="456" y="165" on="1"/>
        <pt x="456" y="276" on="0"/>
        <pt x="321" y="300" on="1"/>
        <pt x="217" y="298" on="1"/>
        <pt x="213" y="111" on="1"/>
      </contour>
      <contour>
        <pt x="422" y="472" on="1"/>
        <pt x="422" y="536" on="0"/>
        <pt x="336" y="598" on="0"/>
        <pt x="246" y="598" on="1"/>
        <pt x="236" y="598" on="0"/>
        <pt x="232" y="594" on="1"/>
        <pt x="224" y="583" on="0"/>
        <pt x="219" y="351" on="1"/>
        <pt x="313" y="343" on="0"/>
        <pt x="332" y="344" on="0"/>
        <pt x="344" y="348" on="0"/>
        <pt x="377" y="367" on="0"/>
        <pt x="402" y="393" on="0"/>
        <pt x="422" y="442" on="0"/>
      </contour>
    </TTGlyph>
    <TTGlyph name="C" xMin="40" yMin="-12" xMax="577" yMax="649">
      <contour>
        <pt x="544" y="28" on="1"/>
        <pt x="458" y="-12" on="0"/>
        <pt x="202" y="-12" on="0"/>
        <pt x="40" y="155" on="0"/>
        <pt x="40" y="449" on="0"/>
        <pt x="238" y="649" on="0"/>
        <pt x="389" y="649" on="1"/>
        <pt x="463" y="649" on="0"/>
        <pt x="563" y="625" on="1"/>
        <pt x="567" y="619" on="1"/>
        <pt x="548" y="544" on="0"/>
        <pt x="542" y="452" on="1"/>
        <pt x="494" y="448" on="1"/>
        <pt x="497" y="475" on="0"/>
        <pt x="497" y="497" on="1"/>
        <pt x="497" y="590" on="0"/>
        <pt x="350" y="590" on="1"/>
        <pt x="249" y="590" on="0"/>
        <pt x="130" y="449" on="0"/>
        <pt x="130" y="198" on="0"/>
        <pt x="255" y="38" on="0"/>
        <pt x="359" y="38" on="1"/>
        <pt x="427" y="38" on="0"/>
        <pt x="510" y="115" on="0"/>
        <pt x="529" y="196" on="1"/>
        <pt x="577" y="200" on="1"/>
        <pt x="557" y="109" on="0"/>
        <pt x="550" y="37" on="1"/>
      </contour>
    </TTGlyph>
    <TTGlyph name="Cacute" xMin="40" yMin="-12" xMax="577" yMax="841">
      <contour>
        <pt x="544" y="28" on="1"/>
        <pt x="458" y="-12" on="0"/>
        <pt x="202" y="-12" on="0"/>
        <pt x="40" y="155" on="0"/>
        <pt x="40" y="449" on="0"/>
        <pt x="238" y="649" on="0"/>
        <pt x="389" y="649" on="1"/>
        <pt x="463" y="649" on="0"/>
        <pt x="563" y="625" on="1"/>
        <pt x="567" y="619" on="1"/>
        <pt x="548" y="544" on="0"/>
        <pt x="542" y="452" on="1"/>
        <pt x="494" y="448" on="1"/>
        <pt x="497" y="475" on="0"/>
        <pt x="497" y="497" on="1"/>
        <pt x="497" y="590" on="0"/>
        <pt x="350" y="590" on="1"/>
        <pt x="249" y="590" on="0"/>
        <pt x="130" y="449" on="0"/>
        <pt x="130" y="198" on="0"/>
        <pt x="255" y="38" on="0"/>
        <pt x="359" y="38" on="1"/>
        <pt x="427" y="38" on="0"/>
        <pt x="510" y="115" on="0"/>
        <pt x="529" y="196" on="1"/>
        <pt x="577" y="200" on="1"/>
        <pt x="557" y="109" on="0"/>
        <pt x="550" y="37" on="1"/>
      </contour>
      <contour>
        <pt x="519" y="787" on="1"/>
        <pt x="515" y="777" on="1"/>
        <pt x="414" y="743" on="0"/>
        <pt x="309" y="703" on="1"/>
        <pt x="301" y="708" on="1"/>
        <pt x="295" y="732" on="1"/>
        <pt x="494" y="841" on="1"/>
        <pt x="503" y="835" on="1"/>
      </contour>
    </TTGlyph>
    <TTGlyph name="Ccaron" xMin="40" yMin="-12" xMax="577" yMax="838">
      <contour>
        <pt x="544" y="28" on="1"/>
        <pt x="458" y="-12" on="0"/>
        <pt x="202" y="-12" on="0"/>
        <pt x="40" y="155" on="0"/>
        <pt x="40" y="449" on="0"/>
        <pt x="238" y="649" on="0"/>
        <pt x="389" y="649" on="1"/>
        <pt x="463" y="649" on="0"/>
        <pt x="563" y="625" on="1"/>
        <pt x="567" y="619" on="1"/>
        <pt x="548" y="544" on="0"/>
        <pt x="542" y="452" on="1"/>
        <pt x="494" y="448" on="1"/>
        <pt x="497" y="475" on="0"/>
        <pt x="497" y="497" on="1"/>
        <pt x="497" y="590" on="0"/>
        <pt x="350" y="590" on="1"/>
        <pt x="249" y="590" on="0"/>
        <pt x="130" y="449" on="0"/>
        <pt x="130" y="198" on="0"/>
        <pt x="255" y="38" on="0"/>
        <pt x="359" y="38" on="1"/>
        <pt x="427" y="38" on="0"/>
        <pt x="510" y="115" on="0"/>
        <pt x="529" y="196" on="1"/>
        <pt x="577" y="200" on="1"/>
        <pt x="557" y="109" on="0"/>
        <pt x="550" y="37" on="1"/>
      </contour>
      <contour>
        <pt x="490" y="837" on="1"/>
        <pt x="504" y="815" on="1"/>
        <pt x="366" y="704" on="1"/>
        <pt x="352" y="704" on="1"/>
        <pt x="279" y="766" on="0"/>
        <pt x="214" y="815" on="1"/>
        <pt x="228" y="837" on="1"/>
        <pt x="237" y="838" on="1"/>
        <pt x="304" y="799" on="0"/>
        <pt x="359" y="773" on="1"/>
        <pt x="411" y="797" on="0"/>
        <pt x="481" y="838" on="1"/>
      </contour>
    </TTGlyph>
    <TTGlyph name="Ccedilla" xMin="40" yMin="-233" xMax="577" yMax="649">
      <contour>
        <pt x="191" y="-5" on="0"/>
        <pt x="40" y="160" on="0"/>
        <pt x="40" y="449" on="0"/>
        <pt x="238" y="649" on="0"/>
        <pt x="389" y="649" on="1"/>
        <pt x="463" y="649" on="0"/>
        <pt x="563" y="625" on="1"/>
        <pt x="567" y="619" on="1"/>
        <pt x="548" y="544" on="0"/>
        <pt x="542" y="452" on="1"/>
        <pt x="494" y="448" on="1"/>
        <pt x="497" y="475" on="0"/>
        <pt x="497" y="497" on="1"/>
        <pt x="497" y="590" on="0"/>
        <pt x="350" y="590" on="1"/>
        <pt x="249" y="590" on="0"/>
        <pt x="130" y="449" on="0"/>
        <pt x="130" y="198" on="0"/>
        <pt x="255" y="38" on="0"/>
        <pt x="359" y="38" on="1"/>
        <pt x="427" y="38" on="0"/>
        <pt x="510" y="115" on="0"/>
        <pt x="529" y="196" on="1"/>
        <pt x="577" y="200" on="1"/>
        <pt x="557" y="109" on="0"/>
        <pt x="550" y="37" on="1"/>
        <pt x="544" y="28" on="1"/>
        <pt x="468" y="-7" on="0"/>
        <pt x="362" y="-11" on="1"/>
        <pt x="349" y="-50" on="1"/>
        <pt x="353" y="-53" on="0"/>
        <pt x="380" y="-71" on="0"/>
        <pt x="393" y="-80" on="0"/>
        <pt x="414" y="-98" on="0"/>
        <pt x="420" y="-105" on="1"/>
        <pt x="434" y="-123" on="0"/>
        <pt x="434" y="-139" on="1"/>
        <pt x="434" y="-177" on="0"/>
        <pt x="357" y="-233" on="0"/>
        <pt x="289" y="-233" on="0"/>
        <pt x="246" y="-213" on="0"/>
        <pt x="246" y="-181" on="0"/>
        <pt x="271" y="-141" on="1"/>
        <pt x="280" y="-141" on="1"/>
        <pt x="281" y="-168" on="0"/>
        <pt x="310" y="-198" on="0"/>
        <pt x="355" y="-198" on="0"/>
        <pt x="383" y="-177" on="0"/>
        <pt x="383" y="-160" on="1"/>
        <pt x="383" y="-134" on="0"/>
        <pt x="298" y="-85" on="1"/>
        <pt x="320" y="-11" on="1"/>
      </contour>
    </TTGlyph>
    <TTGlyph name="Ccircumflex" xMin="40" yMin="-12" xMax="577" yMax="877">
      <contour>
        <pt x="544" y="28" on="1"/>
        <pt x="458" y="-12" on="0"/>
        <pt x="202" y="-12" on="0"/>
        <pt x="40" y="155" on="0"/>
        <pt x="40" y="449" on="0"/>
        <pt x="238" y="649" on="0"/>
        <pt x="389" y="649" on="1"/>
        <pt x="463" y="649" on="0"/>
        <pt x="563" y="625" on="1"/>
        <pt x="567" y="619" on="1"/>
        <pt x="548" y="544" on="0"/>
        <pt x="542" y="452" on="1"/>
        <pt x="494" y="448" on="1"/>
        <pt x="497" y="475" on="0"/>
        <pt x="497" y="497" on="1"/>
        <pt x="497" y="590" on="0"/>
        <pt x="350" y="590" on="1"/>
        <pt x="249" y="590" on="0"/>
        <pt x="130" y="449" on="0"/>
        <pt x="130" y="198" on="0"/>
        <pt x="255" y="38" on="0"/>
        <pt x="359" y="38" on="1"/>
        <pt x="427" y="38" on="0"/>
        <pt x="510" y="115" on="0"/>
        <pt x="529" y="196" on="1"/>
        <pt x="577" y="200" on="1"/>
        <pt x="557" y="109" on="0"/>
        <pt x="550" y="37" on="1"/>
      </contour>
      <contour>
        <pt x="210" y="702" on="1"/>
        <pt x="196" y="724" on="1"/>
        <pt x="245" y="775" on="0"/>
        <pt x="334" y="877" on="1"/>
        <pt x="348" y="877" on="1"/>
        <pt x="421" y="792" on="0"/>
        <pt x="486" y="724" on="1"/>
        <pt x="472" y="702" on="1"/>
        <pt x="463" y="701" on="1"/>
        <pt x="441" y="720" on="0"/>
        <pt x="341" y="798" on="1"/>
        <pt x="263" y="740" on="0"/>
        <pt x="219" y="701" on="1"/>
      </contour>
    </TTGlyph>
    <TTGlyph name="Cdotaccent" xMin="40" yMin="-12" xMax="577" yMax="829">
      <contour>
        <pt x="544" y="28" on="1"/>
        <pt x="458" y="-12" on="0"/>
        <pt x="202" y="-12" on="0"/>
        <pt x="40" y="155" on="0"/>
        <pt x="40" y="449" on="0"/>
        <pt x="238" y="649" on="0"/>
        <pt x="389" y="649" on="1"/>
        <pt x="463" y="649" on="0"/>
        <pt x="563" y="625" on="1"/>
        <pt x="567" y="619" on="1"/>
        <pt x="548" y="544" on="0"/>
        <pt x="542" y="452" on="1"/>
        <pt x="494" y="448" on="1"/>
        <pt x="497" y="475" on="0"/>
        <pt x="497" y="497" on="1"/>
        <pt x="497" y="590" on="0"/>
        <pt x="350" y="590" on="1"/>
        <pt x="249" y="590" on="0"/>
        <pt x="130" y="449" on="0"/>
        <pt x="130" y="198" on="0"/>
        <pt x="255" y="38" on="0"/>
        <pt x="359" y="38" on="1"/>
        <pt x="427" y="38" on="0"/>
        <pt x="510" y="115" on="0"/>
        <pt x="529" y="196" on="1"/>
        <pt x="577" y="200" on="1"/>
        <pt x="557" y="109" on="0"/>
        <pt x="550" y="37" on="1"/>
      </contour>
      <contour>
        <pt x="413" y="754" on="0"/>
        <pt x="379" y="719" on="0"/>
        <pt x="331" y="719" on="0"/>
        <pt x="305" y="749" on="0"/>
        <pt x="305" y="794" on="0"/>
        <pt x="339" y="829" on="0"/>
        <pt x="387" y="829" on="0"/>
        <pt x="413" y="799" on="0"/>
      </contour>
    </TTGlyph>
    <TTGlyph name="D" xMin="58" yMin="-12" xMax="663" yMax="641">
      <contour>
        <pt x="317" y="-12" on="1"/>
        <pt x="224" y="0" on="0"/>
        <pt x="188" y="0" on="1"/>
        <pt x="128" y="0" on="0"/>
        <pt x="58" y="-12" on="1"/>
        <pt x="64" y="34" on="1"/>
        <pt x="110" y="43" on="0"/>
        <pt x="142" y="78" on="0"/>
        <pt x="142" y="120" on="1"/>
        <pt x="143" y="540" on="1"/>
        <pt x="143" y="572" on="0"/>
        <pt x="128" y="594" on="0"/>
        <pt x="106" y="594" on="1"/>
        <pt x="72" y="592" on="1"/>
        <pt x="70" y="596" on="1"/>
        <pt x="77" y="640" on="1"/>
        <pt x="144" y="637" on="0"/>
        <pt x="182" y="637" on="1"/>
        <pt x="334" y="641" on="1"/>
        <pt x="480" y="641" on="0"/>
        <pt x="663" y="475" on="0"/>
        <pt x="663" y="193" on="0"/>
        <pt x="463" y="-12" on="0"/>
      </contour>
      <contour>
        <pt x="265" y="592" on="1"/>
        <pt x="244" y="592" on="0"/>
        <pt x="230" y="583" on="0"/>
        <pt x="229" y="570" on="1"/>
        <pt x="214" y="185" on="0"/>
        <pt x="214" y="76" on="0"/>
        <pt x="264" y="39" on="0"/>
        <pt x="340" y="39" on="1"/>
        <pt x="448" y="39" on="0"/>
        <pt x="572" y="188" on="0"/>
        <pt x="572" y="450" on="0"/>
        <pt x="413" y="592" on="0"/>
      </contour>
    </TTGlyph>
    <TTGlyph name="Dcaron" xMin="58" yMin="-12" xMax="663" yMax="838">
      <contour>
        <pt x="317" y="-12" on="1"/>
        <pt x="224" y="0" on="0"/>
        <pt x="188" y="0" on="1"/>
        <pt x="128" y="0" on="0"/>
        <pt x="58" y="-12" on="1"/>
        <pt x="64" y="34" on="1"/>
        <pt x="110" y="43" on="0"/>
        <pt x="142" y="78" on="0"/>
        <pt x="142" y="120" on="1"/>
        <pt x="143" y="540" on="1"/>
        <pt x="143" y="572" on="0"/>
        <pt x="128" y="594" on="0"/>
        <pt x="106" y="594" on="1"/>
        <pt x="72" y="592" on="1"/>
        <pt x="70" y="596" on="1"/>
        <pt x="77" y="640" on="1"/>
        <pt x="144" y="637" on="0"/>
        <pt x="182" y="637" on="1"/>
        <pt x="334" y="641" on="1"/>
        <pt x="480" y="641" on="0"/>
        <pt x="663" y="475" on="0"/>
        <pt x="663" y="193" on="0"/>
        <pt x="463" y="-12" on="0"/>
      </contour>
      <contour>
        <pt x="265" y="592" on="1"/>
        <pt x="244" y="592" on="0"/>
        <pt x="230" y="583" on="0"/>
        <pt x="229" y="570" on="1"/>
        <pt x="214" y="185" on="0"/>
        <pt x="214" y="76" on="0"/>
        <pt x="264" y="39" on="0"/>
        <pt x="340" y="39" on="1"/>
        <pt x="448" y="39" on="0"/>
        <pt x="572" y="188" on="0"/>
        <pt x="572" y="450" on="0"/>
        <pt x="413" y="592" on="0"/>
      </contour>
      <contour>
        <pt x="462" y="837" on="1"/>
        <pt x="476" y="815" on="1"/>
        <pt x="338" y="704" on="1"/>
        <pt x="324" y="704" on="1"/>
        <pt x="251" y="766" on="0"/>
        <pt x="186" y="815" on="1"/>
        <pt x="200" y="837" on="1"/>
        <pt x="209" y="838" on="1"/>
        <pt x="276" y="799" on="0"/>
        <pt x="331" y="773" on="1"/>
        <pt x="383" y="797" on="0"/>
        <pt x="453" y="838" on="1"/>
      </contour>
    </TTGlyph>
    <TTGlyph name="Dcroat" xMin="9" yMin="-12" xMax="670" yMax="641">
      <contour>
        <pt x="324" y="-12" on="1"/>
        <pt x="231" y="0" on="0"/>
        <pt x="194" y="0" on="1"/>
        <pt x="135" y="0" on="0"/>
        <pt x="65" y="-12" on="1"/>
        <pt x="71" y="34" on="1"/>
        <pt x="123" y="44" on="0"/>
        <pt x="149" y="85" on="0"/>
        <pt x="149" y="157" on="1"/>
        <pt x="149" y="304" on="1"/>
        <pt x="16" y="304" on="1"/>
        <pt x="9" y="311" on="1"/>
        <pt x="16" y="343" on="1"/>
        <pt x="149" y="343" on="1"/>
        <pt x="150" y="540" on="1"/>
        <pt x="150" y="572" on="0"/>
        <pt x="135" y="594" on="0"/>
        <pt x="113" y="594" on="1"/>
        <pt x="79" y="592" on="1"/>
        <pt x="77" y="596" on="1"/>
        <pt x="84" y="640" on="1"/>
        <pt x="151" y="637" on="0"/>
        <pt x="189" y="637" on="1"/>
        <pt x="341" y="641" on="1"/>
        <pt x="485" y="641" on="0"/>
        <pt x="670" y="473" on="0"/>
        <pt x="670" y="342" on="1"/>
        <pt x="670" y="193" on="0"/>
        <pt x="470" y="-12" on="0"/>
      </contour>
      <contour>
        <pt x="347" y="39" on="1"/>
        <pt x="455" y="39" on="0"/>
        <pt x="579" y="188" on="0"/>
        <pt x="579" y="450" on="0"/>
        <pt x="420" y="592" on="0"/>
        <pt x="272" y="592" on="1"/>
        <pt x="251" y="592" on="0"/>
        <pt x="237" y="583" on="0"/>
        <pt x="236" y="570" on="1"/>
        <pt x="227" y="343" on="1"/>
        <pt x="397" y="343" on="1"/>
        <pt x="402" y="336" on="1"/>
        <pt x="396" y="304" on="1"/>
        <pt x="226" y="304" on="1"/>
        <pt x="221" y="131" on="1"/>
        <pt x="221" y="76" on="0"/>
        <pt x="272" y="39" on="0"/>
      </contour>
    </TTGlyph>
    <TTGlyph name="Delta" xMin="8" yMin="0" xMax="506" yMax="649">
      <contour>
        <pt x="17" y="0" on="1"/>
        <pt x="8" y="13" on="1"/>
        <pt x="245" y="632" on="1"/>
        <pt x="308" y="649" on="1"/>
        <pt x="316" y="649" on="1"/>
        <pt x="431" y="232" on="0"/>
        <pt x="506" y="7" on="1"/>
        <pt x="499" y="0" on="1"/>
      </contour>
      <contour>
        <pt x="266" y="540" on="1"/>
        <pt x="259" y="540" on="1"/>
        <pt x="83" y="57" on="1"/>
        <pt x="410" y="57" on="1"/>
      </contour>
    </TTGlyph>
    <TTGlyph name="E" xMin="58" yMin="-10" xMax="532" yMax="649">
      <contour>
        <pt x="219" y="354" on="1"/>
        <pt x="322" y="353" on="1"/>
        <pt x="444" y="364" on="1"/>
        <pt x="448" y="359" on="1"/>
        <pt x="434" y="300" on="1"/>
        <pt x="348" y="303" on="0"/>
        <pt x="257" y="303" on="0"/>
        <pt x="217" y="296" on="1"/>
        <pt x="213" y="152" on="0"/>
        <pt x="213" y="64" on="0"/>
        <pt x="238" y="45" on="0"/>
        <pt x="376" y="45" on="0"/>
        <pt x="446" y="62" on="0"/>
        <pt x="477" y="109" on="0"/>
        <pt x="485" y="167" on="1"/>
        <pt x="529" y="172" on="1"/>
        <pt x="532" y="167" on="1"/>
        <pt x="514" y="84" on="0"/>
        <pt x="505" y="-1" on="1"/>
        <pt x="500" y="-7" on="1"/>
        <pt x="292" y="0" on="0"/>
        <pt x="228" y="0" on="1"/>
        <pt x="130" y="0" on="0"/>
        <pt x="58" y="-10" on="1"/>
        <pt x="64" y="36" on="1"/>
        <pt x="109" y="42" on="0"/>
        <pt x="142" y="77" on="0"/>
        <pt x="142" y="120" on="1"/>
        <pt x="143" y="540" on="1"/>
        <pt x="143" y="572" on="0"/>
        <pt x="128" y="594" on="0"/>
        <pt x="106" y="594" on="1"/>
        <pt x="72" y="592" on="1"/>
        <pt x="70" y="596" on="1"/>
        <pt x="77" y="640" on="1"/>
        <pt x="156" y="637" on="0"/>
        <pt x="428" y="637" on="0"/>
        <pt x="516" y="649" on="1"/>
        <pt x="519" y="643" on="1"/>
        <pt x="502" y="569" on="0"/>
        <pt x="496" y="477" on="1"/>
        <pt x="448" y="473" on="1"/>
        <pt x="450" y="502" on="0"/>
        <pt x="450" y="516" on="1"/>
        <pt x="450" y="565" on="0"/>
        <pt x="403" y="587" on="0"/>
        <pt x="248" y="587" on="0"/>
        <pt x="228" y="576" on="0"/>
        <pt x="227" y="548" on="1"/>
      </contour>
    </TTGlyph>
    <TTGlyph name="Eacute" xMin="58" yMin="-10" xMax="532" yMax="841">
      <contour>
        <pt x="219" y="354" on="1"/>
        <pt x="322" y="353" on="1"/>
        <pt x="444" y="364" on="1"/>
        <pt x="448" y="359" on="1"/>
        <pt x="434" y="300" on="1"/>
        <pt x="348" y="303" on="0"/>
        <pt x="257" y="303" on="0"/>
        <pt x="217" y="296" on="1"/>
        <pt x="213" y="152" on="0"/>
        <pt x="213" y="64" on="0"/>
        <pt x="238" y="45" on="0"/>
        <pt x="376" y="45" on="0"/>
        <pt x="446" y="62" on="0"/>
        <pt x="477" y="109" on="0"/>
        <pt x="485" y="167" on="1"/>
        <pt x="529" y="172" on="1"/>
        <pt x="532" y="167" on="1"/>
        <pt x="514" y="84" on="0"/>
        <pt x="505" y="-1" on="1"/>
        <pt x="500" y="-7" on="1"/>
        <pt x="292" y="0" on="0"/>
        <pt x="228" y="0" on="1"/>
        <pt x="130" y="0" on="0"/>
        <pt x="58" y="-10" on="1"/>
        <pt x="64" y="36" on="1"/>
        <pt x="109" y="42" on="0"/>
        <pt x="142" y="77" on="0"/>
        <pt x="142" y="120" on="1"/>
        <pt x="143" y="540" on="1"/>
        <pt x="143" y="572" on="0"/>
        <pt x="128" y="594" on="0"/>
        <pt x="106" y="594" on="1"/>
        <pt x="72" y="592" on="1"/>
        <pt x="70" y="596" on="1"/>
        <pt x="77" y="640" on="1"/>
        <pt x="156" y="637" on="0"/>
        <pt x="428" y="637" on="0"/>
        <pt x="516" y="649" on="1"/>
        <pt x="519" y="643" on="1"/>
        <pt x="502" y="569" on="0"/>
        <pt x="496" y="477" on="1"/>
        <pt x="448" y="473" on="1"/>
        <pt x="450" y="502" on="0"/>
        <pt x="450" y="516" on="1"/>
        <pt x="450" y="565" on="0"/>
        <pt x="403" y="587" on="0"/>
        <pt x="248" y="587" on="0"/>
        <pt x="228" y="576" on="0"/>
        <pt x="227" y="548" on="1"/>
      </contour>
      <contour>
        <pt x="470" y="787" on="1"/>
        <pt x="466" y="777" on="1"/>
        <pt x="365" y="743" on="0"/>
        <pt x="260" y="703" on="1"/>
        <pt x="252" y="708" on="1"/>
        <pt x="246" y="732" on="1"/>
        <pt x="445" y="841" on="1"/>
        <pt x="454" y="835" on="1"/>
      </contour>
    </TTGlyph>
    <TTGlyph name="Ebreve" xMin="58" yMin="-10" xMax="532" yMax="857">
      <contour>
        <pt x="219" y="354" on="1"/>
        <pt x="322" y="353" on="1"/>
        <pt x="444" y="364" on="1"/>
        <pt x="448" y="359" on="1"/>
        <pt x="434" y="300" on="1"/>
        <pt x="348" y="303" on="0"/>
        <pt x="257" y="303" on="0"/>
        <pt x="217" y="296" on="1"/>
        <pt x="213" y="152" on="0"/>
        <pt x="213" y="64" on="0"/>
        <pt x="238" y="45" on="0"/>
        <pt x="376" y="45" on="0"/>
        <pt x="446" y="62" on="0"/>
        <pt x="477" y="109" on="0"/>
        <pt x="485" y="167" on="1"/>
        <pt x="529" y="172" on="1"/>
        <pt x="532" y="167" on="1"/>
        <pt x="514" y="84" on="0"/>
        <pt x="505" y="-1" on="1"/>
        <pt x="500" y="-7" on="1"/>
        <pt x="292" y="0" on="0"/>
        <pt x="228" y="0" on="1"/>
        <pt x="130" y="0" on="0"/>
        <pt x="58" y="-10" on="1"/>
        <pt x="64" y="36" on="1"/>
        <pt x="109" y="42" on="0"/>
        <pt x="142" y="77" on="0"/>
        <pt x="142" y="120" on="1"/>
        <pt x="143" y="540" on="1"/>
        <pt x="143" y="572" on="0"/>
        <pt x="128" y="594" on="0"/>
        <pt x="106" y="594" on="1"/>
        <pt x="72" y="592" on="1"/>
        <pt x="70" y="596" on="1"/>
        <pt x="77" y="640" on="1"/>
        <pt x="156" y="637" on="0"/>
        <pt x="428" y="637" on="0"/>
        <pt x="516" y="649" on="1"/>
        <pt x="519" y="643" on="1"/>
        <pt x="502" y="569" on="0"/>
        <pt x="496" y="477" on="1"/>
        <pt x="448" y="473" on="1"/>
        <pt x="450" y="502" on="0"/>
        <pt x="450" y="516" on="1"/>
        <pt x="450" y="565" on="0"/>
        <pt x="403" y="587" on="0"/>
        <pt x="248" y="587" on="0"/>
        <pt x="228" y="576" on="0"/>
        <pt x="227" y="548" on="1"/>
      </contour>
      <contour>
        <pt x="256" y="791" on="0"/>
        <pt x="398" y="791" on="0"/>
        <pt x="423" y="857" on="1"/>
        <pt x="431" y="857" on="1"/>
        <pt x="447" y="847" on="1"/>
        <pt x="435" y="799" on="0"/>
        <pt x="375" y="733" on="0"/>
        <pt x="279" y="733" on="0"/>
        <pt x="219" y="799" on="0"/>
        <pt x="207" y="847" on="1"/>
        <pt x="223" y="857" on="1"/>
        <pt x="231" y="857" on="1"/>
      </contour>
    </TTGlyph>
    <TTGlyph name="Ecaron" xMin="58" yMin="-10" xMax="532" yMax="838">
      <contour>
        <pt x="219" y="354" on="1"/>
        <pt x="322" y="353" on="1"/>
        <pt x="444" y="364" on="1"/>
        <pt x="448" y="359" on="1"/>
        <pt x="434" y="300" on="1"/>
        <pt x="348" y="303" on="0"/>
        <pt x="257" y="303" on="0"/>
        <pt x="217" y="296" on="1"/>
        <pt x="213" y="152" on="0"/>
        <pt x="213" y="64" on="0"/>
        <pt x="238" y="45" on="0"/>
        <pt x="376" y="45" on="0"/>
        <pt x="446" y="62" on="0"/>
        <pt x="477" y="109" on="0"/>
        <pt x="485" y="167" on="1"/>
        <pt x="529" y="172" on="1"/>
        <pt x="532" y="167" on="1"/>
        <pt x="514" y="84" on="0"/>
        <pt x="505" y="-1" on="1"/>
        <pt x="500" y="-7" on="1"/>
        <pt x="292" y="0" on="0"/>
        <pt x="228" y="0" on="1"/>
        <pt x="130" y="0" on="0"/>
        <pt x="58" y="-10" on="1"/>
        <pt x="64" y="36" on="1"/>
        <pt x="109" y="42" on="0"/>
        <pt x="142" y="77" on="0"/>
        <pt x="142" y="120" on="1"/>
        <pt x="143" y="540" on="1"/>
        <pt x="143" y="572" on="0"/>
        <pt x="128" y="594" on="0"/>
        <pt x="106" y="594" on="1"/>
        <pt x="72" y="592" on="1"/>
        <pt x="70" y="596" on="1"/>
        <pt x="77" y="640" on="1"/>
        <pt x="156" y="637" on="0"/>
        <pt x="428" y="637" on="0"/>
        <pt x="516" y="649" on="1"/>
        <pt x="519" y="643" on="1"/>
        <pt x="502" y="569" on="0"/>
        <pt x="496" y="477" on="1"/>
        <pt x="448" y="473" on="1"/>
        <pt x="450" y="502" on="0"/>
        <pt x="450" y="516" on="1"/>
        <pt x="450" y="565" on="0"/>
        <pt x="403" y="587" on="0"/>
        <pt x="248" y="587" on="0"/>
        <pt x="228" y="576" on="0"/>
        <pt x="227" y="548" on="1"/>
      </contour>
      <contour>
        <pt x="441" y="837" on="1"/>
        <pt x="455" y="815" on="1"/>
        <pt x="317" y="704" on="1"/>
        <pt x="303" y="704" on="1"/>
        <pt x="230" y="766" on="0"/>
        <pt x="165" y="815" on="1"/>
        <pt x="179" y="837" on="1"/>
        <pt x="188" y="838" on="1"/>
        <pt x="255" y="799" on="0"/>
        <pt x="310" y="773" on="1"/>
        <pt x="362" y="797" on="0"/>
        <pt x="432" y="838" on="1"/>
      </contour>
    </TTGlyph>
    <TTGlyph name="Ecircumflex" xMin="58" yMin="-10" xMax="532" yMax="846">
      <contour>
        <pt x="219" y="354" on="1"/>
        <pt x="322" y="353" on="1"/>
        <pt x="444" y="364" on="1"/>
        <pt x="448" y="359" on="1"/>
        <pt x="434" y="300" on="1"/>
        <pt x="348" y="303" on="0"/>
        <pt x="257" y="303" on="0"/>
        <pt x="217" y="296" on="1"/>
        <pt x="213" y="152" on="0"/>
        <pt x="213" y="64" on="0"/>
        <pt x="238" y="45" on="0"/>
        <pt x="376" y="45" on="0"/>
        <pt x="446" y="62" on="0"/>
        <pt x="477" y="109" on="0"/>
        <pt x="485" y="167" on="1"/>
        <pt x="529" y="172" on="1"/>
        <pt x="532" y="167" on="1"/>
        <pt x="514" y="84" on="0"/>
        <pt x="505" y="-1" on="1"/>
        <pt x="500" y="-7" on="1"/>
        <pt x="292" y="0" on="0"/>
        <pt x="228" y="0" on="1"/>
        <pt x="130" y="0" on="0"/>
        <pt x="58" y="-10" on="1"/>
        <pt x="64" y="36" on="1"/>
        <pt x="109" y="42" on="0"/>
        <pt x="142" y="77" on="0"/>
        <pt x="142" y="120" on="1"/>
        <pt x="143" y="540" on="1"/>
        <pt x="143" y="572" on="0"/>
        <pt x="128" y="594" on="0"/>
        <pt x="106" y="594" on="1"/>
        <pt x="72" y="592" on="1"/>
        <pt x="70" y="596" on="1"/>
        <pt x="77" y="640" on="1"/>
        <pt x="156" y="637" on="0"/>
        <pt x="428" y="637" on="0"/>
        <pt x="516" y="649" on="1"/>
        <pt x="519" y="643" on="1"/>
        <pt x="502" y="569" on="0"/>
        <pt x="496" y="477" on="1"/>
        <pt x="448" y="473" on="1"/>
        <pt x="450" y="502" on="0"/>
        <pt x="450" y="516" on="1"/>
        <pt x="450" y="565" on="0"/>
        <pt x="403" y="587" on="0"/>
        <pt x="248" y="587" on="0"/>
        <pt x="228" y="576" on="0"/>
        <pt x="227" y="548" on="1"/>
      </contour>
      <contour>
        <pt x="179" y="713" on="1"/>
        <pt x="165" y="735" on="1"/>
        <pt x="303" y="846" on="1"/>
        <pt x="317" y="846" on="1"/>
        <pt x="390" y="784" on="0"/>
        <pt x="455" y="735" on="1"/>
        <pt x="441" y="713" on="1"/>
        <pt x="432" y="712" on="1"/>
        <pt x="365" y="751" on="0"/>
        <pt x="310" y="777" on="1"/>
        <pt x="258" y="753" on="0"/>
        <pt x="188" y="712" on="1"/>
      </contour>
    </TTGlyph>
    <TTGlyph name="Edieresis" xMin="58" yMin="-10" xMax="532" yMax="818">
      <contour>
        <pt x="219" y="354" on="1"/>
        <pt x="322" y="353" on="1"/>
        <pt x="444" y="364" on="1"/>
        <pt x="448" y="359" on="1"/>
        <pt x="434" y="300" on="1"/>
        <pt x="348" y="303" on="0"/>
        <pt x="257" y="303" on="0"/>
        <pt x="217" y="296" on="1"/>
        <pt x="213" y="152" on="0"/>
        <pt x="213" y="64" on="0"/>
        <pt x="238" y="45" on="0"/>
        <pt x="376" y="45" on="0"/>
        <pt x="446" y="62" on="0"/>
        <pt x="477" y="109" on="0"/>
        <pt x="485" y="167" on="1"/>
        <pt x="529" y="172" on="1"/>
        <pt x="532" y="167" on="1"/>
        <pt x="514" y="84" on="0"/>
        <pt x="505" y="-1" on="1"/>
        <pt x="500" y="-7" on="1"/>
        <pt x="292" y="0" on="0"/>
        <pt x="228" y="0" on="1"/>
        <pt x="130" y="0" on="0"/>
        <pt x="58" y="-10" on="1"/>
        <pt x="64" y="36" on="1"/>
        <pt x="109" y="42" on="0"/>
        <pt x="142" y="77" on="0"/>
        <pt x="142" y="120" on="1"/>
        <pt x="143" y="540" on="1"/>
        <pt x="143" y="572" on="0"/>
        <pt x="128" y="594" on="0"/>
        <pt x="106" y="594" on="1"/>
        <pt x="72" y="592" on="1"/>
        <pt x="70" y="596" on="1"/>
        <pt x="77" y="640" on="1"/>
        <pt x="156" y="637" on="0"/>
        <pt x="428" y="637" on="0"/>
        <pt x="516" y="649" on="1"/>
        <pt x="519" y="643" on="1"/>
        <pt x="502" y="569" on="0"/>
        <pt x="496" y="477" on="1"/>
        <pt x="448" y="473" on="1"/>
        <pt x="450" y="502" on="0"/>
        <pt x="450" y="516" on="1"/>
        <pt x="450" y="565" on="0"/>
        <pt x="403" y="587" on="0"/>
        <pt x="248" y="587" on="0"/>
        <pt x="228" y="576" on="0"/>
        <pt x="227" y="548" on="1"/>
      </contour>
      <contour>
        <pt x="438" y="754" on="0"/>
        <pt x="409" y="725" on="0"/>
        <pt x="369" y="725" on="0"/>
        <pt x="347" y="751" on="0"/>
        <pt x="347" y="789" on="0"/>
        <pt x="376" y="818" on="0"/>
        <pt x="416" y="818" on="0"/>
        <pt x="438" y="793" on="0"/>
      </contour>
      <contour>
        <pt x="272" y="754" on="0"/>
        <pt x="243" y="725" on="0"/>
        <pt x="203" y="725" on="0"/>
        <pt x="181" y="751" on="0"/>
        <pt x="181" y="789" on="0"/>
        <pt x="210" y="818" on="0"/>
        <pt x="250" y="818" on="0"/>
        <pt x="272" y="793" on="0"/>
      </contour>
    </TTGlyph>
    <TTGlyph name="Edotaccent" xMin="58" yMin="-10" xMax="532" yMax="829">
      <contour>
        <pt x="219" y="354" on="1"/>
        <pt x="322" y="353" on="1"/>
        <pt x="444" y="364" on="1"/>
        <pt x="448" y="359" on="1"/>
        <pt x="434" y="300" on="1"/>
        <pt x="348" y="303" on="0"/>
        <pt x="257" y="303" on="0"/>
        <pt x="217" y="296" on="1"/>
        <pt x="213" y="152" on="0"/>
        <pt x="213" y="64" on="0"/>
        <pt x="238" y="45" on="0"/>
        <pt x="376" y="45" on="0"/>
        <pt x="446" y="62" on="0"/>
        <pt x="477" y="109" on="0"/>
        <pt x="485" y="167" on="1"/>
        <pt x="529" y="172" on="1"/>
        <pt x="532" y="167" on="1"/>
        <pt x="514" y="84" on="0"/>
        <pt x="505" y="-1" on="1"/>
        <pt x="500" y="-7" on="1"/>
        <pt x="292" y="0" on="0"/>
        <pt x="228" y="0" on="1"/>
        <pt x="130" y="0" on="0"/>
        <pt x="58" y="-10" on="1"/>
        <pt x="64" y="36" on="1"/>
        <pt x="109" y="42" on="0"/>
        <pt x="142" y="77" on="0"/>
        <pt x="142" y="120" on="1"/>
        <pt x="143" y="540" on="1"/>
        <pt x="143" y="572" on="0"/>
        <pt x="128" y="594" on="0"/>
        <pt x="106" y="594" on="1"/>
        <pt x="72" y="592" on="1"/>
        <pt x="70" y="596" on="1"/>
        <pt x="77" y="640" on="1"/>
        <pt x="156" y="637" on="0"/>
        <pt x="428" y="637" on="0"/>
        <pt x="516" y="649" on="1"/>
        <pt x="519" y="643" on="1"/>
        <pt x="502" y="569" on="0"/>
        <pt x="496" y="477" on="1"/>
        <pt x="448" y="473" on="1"/>
        <pt x="450" y="502" on="0"/>
        <pt x="450" y="516" on="1"/>
        <pt x="450" y="565" on="0"/>
        <pt x="403" y="587" on="0"/>
        <pt x="248" y="587" on="0"/>
        <pt x="228" y="576" on="0"/>
        <pt x="227" y="548" on="1"/>
      </contour>
      <contour>
        <pt x="364" y="754" on="0"/>
        <pt x="330" y="719" on="0"/>
        <pt x="282" y="719" on="0"/>
        <pt x="256" y="749" on="0"/>
        <pt x="256" y="794" on="0"/>
        <pt x="290" y="829" on="0"/>
        <pt x="338" y="829" on="0"/>
        <pt x="364" y="799" on="0"/>
      </contour>
    </TTGlyph>
    <TTGlyph name="Egrave" xMin="58" yMin="-10" xMax="532" yMax="841">
      <contour>
        <pt x="219" y="354" on="1"/>
        <pt x="322" y="353" on="1"/>
        <pt x="444" y="364" on="1"/>
        <pt x="448" y="359" on="1"/>
        <pt x="434" y="300" on="1"/>
        <pt x="348" y="303" on="0"/>
        <pt x="257" y="303" on="0"/>
        <pt x="217" y="296" on="1"/>
        <pt x="213" y="152" on="0"/>
        <pt x="213" y="64" on="0"/>
        <pt x="238" y="45" on="0"/>
        <pt x="376" y="45" on="0"/>
        <pt x="446" y="62" on="0"/>
        <pt x="477" y="109" on="0"/>
        <pt x="485" y="167" on="1"/>
        <pt x="529" y="172" on="1"/>
        <pt x="532" y="167" on="1"/>
        <pt x="514" y="84" on="0"/>
        <pt x="505" y="-1" on="1"/>
        <pt x="500" y="-7" on="1"/>
        <pt x="292" y="0" on="0"/>
        <pt x="228" y="0" on="1"/>
        <pt x="130" y="0" on="0"/>
        <pt x="58" y="-10" on="1"/>
        <pt x="64" y="36" on="1"/>
        <pt x="109" y="42" on="0"/>
        <pt x="142" y="77" on="0"/>
        <pt x="142" y="120" on="1"/>
        <pt x="143" y="540" on="1"/>
        <pt x="143" y="572" on="0"/>
        <pt x="128" y="594" on="0"/>
        <pt x="106" y="594" on="1"/>
        <pt x="72" y="592" on="1"/>
        <pt x="70" y="596" on="1"/>
        <pt x="77" y="640" on="1"/>
        <pt x="156" y="637" on="0"/>
        <pt x="428" y="637" on="0"/>
        <pt x="516" y="649" on="1"/>
        <pt x="519" y="643" on="1"/>
        <pt x="502" y="569" on="0"/>
        <pt x="496" y="477" on="1"/>
        <pt x="448" y="473" on="1"/>
        <pt x="450" y="502" on="0"/>
        <pt x="450" y="516" on="1"/>
        <pt x="450" y="565" on="0"/>
        <pt x="403" y="587" on="0"/>
        <pt x="248" y="587" on="0"/>
        <pt x="228" y="576" on="0"/>
        <pt x="227" y="548" on="1"/>
      </contour>
      <contour>
        <pt x="161" y="777" on="1"/>
        <pt x="157" y="787" on="1"/>
        <pt x="173" y="835" on="1"/>
        <pt x="182" y="841" on="1"/>
        <pt x="287" y="781" on="0"/>
        <pt x="381" y="732" on="1"/>
        <pt x="375" y="708" on="1"/>
        <pt x="367" y="703" on="1"/>
      </contour>
    </TTGlyph>
    <TTGlyph name="Emacron" xMin="58" yMin="-10" xMax="532" yMax="778">
      <contour>
        <pt x="219" y="354" on="1"/>
        <pt x="322" y="353" on="1"/>
        <pt x="444" y="364" on="1"/>
        <pt x="448" y="359" on="1"/>
        <pt x="434" y="300" on="1"/>
        <pt x="348" y="303" on="0"/>
        <pt x="257" y="303" on="0"/>
        <pt x="217" y="296" on="1"/>
        <pt x="213" y="152" on="0"/>
        <pt x="213" y="64" on="0"/>
        <pt x="238" y="45" on="0"/>
        <pt x="376" y="45" on="0"/>
        <pt x="446" y="62" on="0"/>
        <pt x="477" y="109" on="0"/>
        <pt x="485" y="167" on="1"/>
        <pt x="529" y="172" on="1"/>
        <pt x="532" y="167" on="1"/>
        <pt x="514" y="84" on="0"/>
        <pt x="505" y="-1" on="1"/>
        <pt x="500" y="-7" on="1"/>
        <pt x="292" y="0" on="0"/>
        <pt x="228" y="0" on="1"/>
        <pt x="130" y="0" on="0"/>
        <pt x="58" y="-10" on="1"/>
        <pt x="64" y="36" on="1"/>
        <pt x="109" y="42" on="0"/>
        <pt x="142" y="77" on="0"/>
        <pt x="142" y="120" on="1"/>
        <pt x="143" y="540" on="1"/>
        <pt x="143" y="572" on="0"/>
        <pt x="128" y="594" on="0"/>
        <pt x="106" y="594" on="1"/>
        <pt x="72" y="592" on="1"/>
        <pt x="70" y="596" on="1"/>
        <pt x="77" y="640" on="1"/>
        <pt x="156" y="637" on="0"/>
        <pt x="428" y="637" on="0"/>
        <pt x="516" y="649" on="1"/>
        <pt x="519" y="643" on="1"/>
        <pt x="502" y="569" on="0"/>
        <pt x="496" y="477" on="1"/>
        <pt x="448" y="473" on="1"/>
        <pt x="450" y="502" on="0"/>
        <pt x="450" y="516" on="1"/>
        <pt x="450" y="565" on="0"/>
        <pt x="403" y="587" on="0"/>
        <pt x="248" y="587" on="0"/>
        <pt x="228" y="576" on="0"/>
        <pt x="227" y="548" on="1"/>
      </contour>
      <contour>
        <pt x="453" y="778" on="1"/>
        <pt x="459" y="768" on="1"/>
        <pt x="452" y="721" on="1"/>
        <pt x="166" y="719" on="1"/>
        <pt x="160" y="728" on="1"/>
        <pt x="170" y="773" on="1"/>
        <pt x="265" y="772" on="0"/>
        <pt x="324" y="772" on="1"/>
      </contour>
    </TTGlyph>
    <TTGlyph name="Eng" xMin="54" yMin="-154" xMax="686" yMax="645">
      <contour>
        <pt x="556" y="145" on="1"/>
        <pt x="556" y="550" on="1"/>
        <pt x="556" y="593" on="0"/>
        <pt x="523" y="593" on="1"/>
        <pt x="485" y="592" on="1"/>
        <pt x="483" y="596" on="1"/>
        <pt x="492" y="641" on="1"/>
        <pt x="554" y="637" on="0"/>
        <pt x="580" y="637" on="1"/>
        <pt x="624" y="637" on="0"/>
        <pt x="686" y="645" on="1"/>
        <pt x="681" y="599" on="1"/>
        <pt x="645" y="595" on="0"/>
        <pt x="614" y="565" on="0"/>
        <pt x="613" y="536" on="1"/>
        <pt x="604" y="86" on="1"/>
        <pt x="601" y="-11" on="0"/>
        <pt x="526" y="-123" on="0"/>
        <pt x="441" y="-154" on="1"/>
        <pt x="424" y="-121" on="1"/>
        <pt x="427" y="-113" on="1"/>
        <pt x="519" y="-72" on="0"/>
        <pt x="539" y="8" on="1"/>
        <pt x="398" y="226" on="0"/>
        <pt x="198" y="511" on="1"/>
        <pt x="193" y="511" on="1"/>
        <pt x="188" y="84" on="1"/>
        <pt x="188" y="62" on="0"/>
        <pt x="202" y="44" on="0"/>
        <pt x="219" y="44" on="1"/>
        <pt x="269" y="46" on="1"/>
        <pt x="272" y="42" on="1"/>
        <pt x="263" y="-4" on="1"/>
        <pt x="198" y="0" on="0"/>
        <pt x="166" y="0" on="1"/>
        <pt x="116" y="0" on="0"/>
        <pt x="64" y="-8" on="1"/>
        <pt x="69" y="38" on="1"/>
        <pt x="104" y="41" on="0"/>
        <pt x="130" y="76" on="0"/>
        <pt x="132" y="124" on="1"/>
        <pt x="144" y="538" on="1"/>
        <pt x="144" y="567" on="0"/>
        <pt x="109" y="593" on="0"/>
        <pt x="57" y="600" on="1"/>
        <pt x="54" y="605" on="1"/>
        <pt x="62" y="642" on="1"/>
        <pt x="122" y="637" on="0"/>
        <pt x="143" y="637" on="1"/>
        <pt x="215" y="641" on="1"/>
        <pt x="341" y="443" on="0"/>
        <pt x="551" y="145" on="1"/>
      </contour>
    </TTGlyph>
    <TTGlyph name="Eogonek" xMin="58" yMin="-241" xMax="532" yMax="649">
      <contour>
        <pt x="219" y="354" on="1"/>
        <pt x="322" y="353" on="1"/>
        <pt x="444" y="364" on="1"/>
        <pt x="448" y="359" on="1"/>
        <pt x="434" y="300" on="1"/>
        <pt x="348" y="303" on="0"/>
        <pt x="257" y="303" on="0"/>
        <pt x="217" y="296" on="1"/>
        <pt x="213" y="152" on="0"/>
        <pt x="213" y="64" on="0"/>
        <pt x="238" y="45" on="0"/>
        <pt x="376" y="45" on="0"/>
        <pt x="446" y="62" on="0"/>
        <pt x="477" y="109" on="0"/>
        <pt x="485" y="167" on="1"/>
        <pt x="529" y="172" on="1"/>
        <pt x="532" y="167" on="1"/>
        <pt x="514" y="84" on="0"/>
        <pt x="505" y="-1" on="1"/>
        <pt x="500" y="-7" on="1"/>
        <pt x="480" y="-6" on="0"/>
        <pt x="450" y="-5" on="1"/>
        <pt x="411" y="-47" on="0"/>
        <pt x="380" y="-100" on="0"/>
        <pt x="380" y="-152" on="0"/>
        <pt x="412" y="-182" on="0"/>
        <pt x="434" y="-182" on="1"/>
        <pt x="471" y="-182" on="0"/>
        <pt x="515" y="-159" on="1"/>
        <pt x="528" y="-178" on="1"/>
        <pt x="479" y="-224" on="0"/>
        <pt x="428" y="-241" on="1"/>
        <pt x="378" y="-241" on="0"/>
        <pt x="317" y="-191" on="0"/>
        <pt x="317" y="-116" on="0"/>
        <pt x="362" y="-49" on="0"/>
        <pt x="407" y="-4" on="1"/>
        <pt x="271" y="0" on="0"/>
        <pt x="217" y="0" on="1"/>
        <pt x="130" y="0" on="0"/>
        <pt x="58" y="-10" on="1"/>
        <pt x="64" y="36" on="1"/>
        <pt x="109" y="42" on="0"/>
        <pt x="142" y="77" on="0"/>
        <pt x="142" y="120" on="1"/>
        <pt x="143" y="540" on="1"/>
        <pt x="143" y="572" on="0"/>
        <pt x="128" y="594" on="0"/>
        <pt x="106" y="594" on="1"/>
        <pt x="72" y="592" on="1"/>
        <pt x="70" y="596" on="1"/>
        <pt x="77" y="640" on="1"/>
        <pt x="156" y="637" on="0"/>
        <pt x="428" y="637" on="0"/>
        <pt x="516" y="649" on="1"/>
        <pt x="519" y="643" on="1"/>
        <pt x="502" y="569" on="0"/>
        <pt x="496" y="477" on="1"/>
        <pt x="448" y="473" on="1"/>
        <pt x="450" y="502" on="0"/>
        <pt x="450" y="516" on="1"/>
        <pt x="450" y="565" on="0"/>
        <pt x="403" y="587" on="0"/>
        <pt x="248" y="587" on="0"/>
        <pt x="228" y="576" on="0"/>
        <pt x="227" y="548" on="1"/>
      </contour>
    </TTGlyph>
    <TTGlyph name="Eth" xMin="9" yMin="-12" xMax="670" yMax="641">
      <contour>
        <pt x="324" y="-12" on="1"/>
        <pt x="231" y="0" on="0"/>
        <pt x="194" y="0" on="1"/>
        <pt x="135" y="0" on="0"/>
        <pt x="65" y="-12" on="1"/>
        <pt x="71" y="34" on="1"/>
        <pt x="123" y="44" on="0"/>
        <pt x="149" y="85" on="0"/>
        <pt x="149" y="157" on="1"/>
        <pt x="149" y="304" on="1"/>
        <pt x="16" y="304" on="1"/>
        <pt x="9" y="311" on="1"/>
        <pt x="16" y="343" on="1"/>
        <pt x="149" y="343" on="1"/>
        <pt x="150" y="540" on="1"/>
        <pt x="150" y="572" on="0"/>
        <pt x="135" y="594" on="0"/>
        <pt x="113" y="594" on="1"/>
        <pt x="79" y="592" on="1"/>
        <pt x="77" y="596" on="1"/>
        <pt x="84" y="640" on="1"/>
        <pt x="151" y="637" on="0"/>
        <pt x="189" y="637" on="1"/>
        <pt x="341" y="641" on="1"/>
        <pt x="485" y="641" on="0"/>
        <pt x="670" y="473" on="0"/>
        <pt x="670" y="342" on="1"/>
        <pt x="670" y="193" on="0"/>
        <pt x="470" y="-12" on="0"/>
      </contour>
      <contour>
        <pt x="347" y="39" on="1"/>
        <pt x="455" y="39" on="0"/>
        <pt x="579" y="188" on="0"/>
        <pt x="579" y="450" on="0"/>
        <pt x="420" y="592" on="0"/>
        <pt x="272" y="592" on="1"/>
        <pt x="251" y="592" on="0"/>
        <pt x="237" y="583" on="0"/>
        <pt x="236" y="570" on="1"/>
        <pt x="227" y="343" on="1"/>
        <pt x="397" y="343" on="1"/>
        <pt x="402" y="336" on="1"/>
        <pt x="396" y="304" on="1"/>
        <pt x="226" y="304" on="1"/>
        <pt x="221" y="131" on="1"/>
        <pt x="221" y="76" on="0"/>
        <pt x="272" y="39" on="0"/>
      </contour>
    </TTGlyph>
    <TTGlyph name="Euro" xMin="12" yMin="-9" xMax="534" yMax="507">
      <contour>
        <pt x="354" y="41" on="1"/>
        <pt x="457" y="41" on="0"/>
        <pt x="484" y="159" on="1"/>
        <pt x="534" y="163" on="1"/>
        <pt x="518" y="89" on="0"/>
        <pt x="513" y="30" on="1"/>
        <pt x="507" y="22" on="1"/>
        <pt x="435" y="-9" on="0"/>
        <pt x="240" y="-9" on="0"/>
        <pt x="115" y="86" on="0"/>
        <pt x="97" y="170" on="1"/>
        <pt x="17" y="170" on="1"/>
        <pt x="12" y="177" on="1"/>
        <pt x="17" y="206" on="1"/>
        <pt x="92" y="206" on="1"/>
        <pt x="91" y="215" on="0"/>
        <pt x="91" y="262" on="0"/>
        <pt x="95" y="285" on="1"/>
        <pt x="17" y="285" on="1"/>
        <pt x="12" y="292" on="1"/>
        <pt x="17" y="321" on="1"/>
        <pt x="104" y="321" on="1"/>
        <pt x="131" y="406" on="0"/>
        <pt x="277" y="507" on="0"/>
        <pt x="378" y="507" on="1"/>
        <pt x="442" y="507" on="0"/>
        <pt x="524" y="488" on="1"/>
        <pt x="528" y="482" on="1"/>
        <pt x="512" y="422" on="0"/>
        <pt x="507" y="346" on="1"/>
        <pt x="457" y="343" on="1"/>
        <pt x="459" y="363" on="0"/>
        <pt x="459" y="382" on="1"/>
        <pt x="459" y="452" on="0"/>
        <pt x="347" y="452" on="1"/>
        <pt x="283" y="452" on="0"/>
        <pt x="199" y="383" on="0"/>
        <pt x="185" y="321" on="1"/>
        <pt x="187" y="321" on="1"/>
        <pt x="370" y="325" on="1"/>
        <pt x="376" y="316" on="1"/>
        <pt x="373" y="286" on="1"/>
        <pt x="180" y="285" on="1"/>
        <pt x="179" y="277" on="0"/>
        <pt x="179" y="227" on="0"/>
        <pt x="183" y="206" on="1"/>
        <pt x="187" y="206" on="1"/>
        <pt x="370" y="210" on="1"/>
        <pt x="376" y="201" on="1"/>
        <pt x="373" y="171" on="1"/>
        <pt x="191" y="170" on="1"/>
        <pt x="209" y="109" on="0"/>
        <pt x="294" y="41" on="0"/>
      </contour>
    </TTGlyph>
    <TTGlyph name="F" xMin="58" yMin="-12" xMax="500" yMax="649">
      <contour>
        <pt x="321" y="-4" on="1"/>
        <pt x="226" y="0" on="0"/>
        <pt x="188" y="0" on="1"/>
        <pt x="128" y="0" on="0"/>
        <pt x="58" y="-12" on="1"/>
        <pt x="64" y="34" on="1"/>
        <pt x="110" y="43" on="0"/>
        <pt x="142" y="78" on="0"/>
        <pt x="142" y="120" on="1"/>
        <pt x="143" y="540" on="1"/>
        <pt x="143" y="572" on="0"/>
        <pt x="128" y="594" on="0"/>
        <pt x="106" y="594" on="1"/>
        <pt x="72" y="592" on="1"/>
        <pt x="70" y="596" on="1"/>
        <pt x="77" y="640" on="1"/>
        <pt x="156" y="637" on="0"/>
        <pt x="413" y="637" on="0"/>
        <pt x="497" y="649" on="1"/>
        <pt x="500" y="643" on="1"/>
        <pt x="483" y="566" on="0"/>
        <pt x="477" y="474" on="1"/>
        <pt x="429" y="470" on="1"/>
        <pt x="431" y="502" on="0"/>
        <pt x="431" y="516" on="1"/>
        <pt x="431" y="565" on="0"/>
        <pt x="389" y="587" on="0"/>
        <pt x="248" y="587" on="0"/>
        <pt x="228" y="576" on="0"/>
        <pt x="227" y="548" on="1"/>
        <pt x="219" y="337" on="1"/>
        <pt x="322" y="336" on="1"/>
        <pt x="427" y="347" on="1"/>
        <pt x="431" y="342" on="1"/>
        <pt x="417" y="282" on="1"/>
        <pt x="341" y="285" on="0"/>
        <pt x="257" y="285" on="0"/>
        <pt x="217" y="278" on="1"/>
        <pt x="213" y="112" on="1"/>
        <pt x="213" y="71" on="0"/>
        <pt x="231" y="44" on="0"/>
        <pt x="257" y="44" on="1"/>
        <pt x="328" y="47" on="1"/>
        <pt x="330" y="43" on="1"/>
      </contour>
    </TTGlyph>
    <TTGlyph name="G" xMin="40" yMin="-12" xMax="592" yMax="649">
      <contour>
        <pt x="574" y="270" on="0"/>
        <pt x="561" y="205" on="0"/>
        <pt x="561" y="73" on="0"/>
        <pt x="568" y="43" on="1"/>
        <pt x="562" y="34" on="1"/>
        <pt x="519" y="16" on="0"/>
        <pt x="388" y="-12" on="0"/>
        <pt x="332" y="-12" on="1"/>
        <pt x="198" y="-12" on="0"/>
        <pt x="40" y="155" on="0"/>
        <pt x="40" y="454" on="0"/>
        <pt x="234" y="649" on="0"/>
        <pt x="391" y="649" on="1"/>
        <pt x="465" y="649" on="0"/>
        <pt x="585" y="625" on="1"/>
        <pt x="589" y="619" on="1"/>
        <pt x="569" y="544" on="0"/>
        <pt x="563" y="452" on="1"/>
        <pt x="516" y="448" on="1"/>
        <pt x="519" y="475" on="0"/>
        <pt x="519" y="502" on="1"/>
        <pt x="519" y="548" on="0"/>
        <pt x="448" y="590" on="0"/>
        <pt x="368" y="590" on="1"/>
        <pt x="254" y="590" on="0"/>
        <pt x="127" y="453" on="0"/>
        <pt x="127" y="197" on="0"/>
        <pt x="252" y="38" on="0"/>
        <pt x="355" y="38" on="1"/>
        <pt x="391" y="38" on="0"/>
        <pt x="459" y="57" on="0"/>
        <pt x="492" y="76" on="1"/>
        <pt x="492" y="198" on="1"/>
        <pt x="492" y="232" on="0"/>
        <pt x="471" y="252" on="0"/>
        <pt x="437" y="252" on="1"/>
        <pt x="368" y="252" on="1"/>
        <pt x="366" y="256" on="1"/>
        <pt x="375" y="306" on="1"/>
        <pt x="443" y="302" on="0"/>
        <pt x="502" y="302" on="1"/>
        <pt x="588" y="307" on="1"/>
        <pt x="592" y="285" on="1"/>
      </contour>
    </TTGlyph>
    <TTGlyph name="Gbreve" xMin="40" yMin="-12" xMax="592" yMax="818">
      <contour>
        <pt x="574" y="270" on="0"/>
        <pt x="561" y="205" on="0"/>
        <pt x="561" y="73" on="0"/>
        <pt x="568" y="43" on="1"/>
        <pt x="562" y="34" on="1"/>
        <pt x="519" y="16" on="0"/>
        <pt x="388" y="-12" on="0"/>
        <pt x="332" y="-12" on="1"/>
        <pt x="198" y="-12" on="0"/>
        <pt x="40" y="155" on="0"/>
        <pt x="40" y="454" on="0"/>
        <pt x="234" y="649" on="0"/>
        <pt x="391" y="649" on="1"/>
        <pt x="465" y="649" on="0"/>
        <pt x="585" y="625" on="1"/>
        <pt x="589" y="619" on="1"/>
        <pt x="569" y="544" on="0"/>
        <pt x="563" y="452" on="1"/>
        <pt x="516" y="448" on="1"/>
        <pt x="519" y="475" on="0"/>
        <pt x="519" y="502" on="1"/>
        <pt x="519" y="548" on="0"/>
        <pt x="448" y="590" on="0"/>
        <pt x="368" y="590" on="1"/>
        <pt x="254" y="590" on="0"/>
        <pt x="127" y="453" on="0"/>
        <pt x="127" y="197" on="0"/>
        <pt x="252" y="38" on="0"/>
        <pt x="355" y="38" on="1"/>
        <pt x="391" y="38" on="0"/>
        <pt x="459" y="57" on="0"/>
        <pt x="492" y="76" on="1"/>
        <pt x="492" y="198" on="1"/>
        <pt x="492" y="232" on="0"/>
        <pt x="471" y="252" on="0"/>
        <pt x="437" y="252" on="1"/>
        <pt x="368" y="252" on="1"/>
        <pt x="366" y="256" on="1"/>
        <pt x="375" y="306" on="1"/>
        <pt x="443" y="302" on="0"/>
        <pt x="502" y="302" on="1"/>
        <pt x="588" y="307" on="1"/>
        <pt x="592" y="285" on="1"/>
      </contour>
      <contour>
        <pt x="295" y="768" on="0"/>
        <pt x="435" y="768" on="0"/>
        <pt x="461" y="818" on="1"/>
        <pt x="469" y="818" on="1"/>
        <pt x="485" y="808" on="1"/>
        <pt x="473" y="766" on="0"/>
        <pt x="413" y="710" on="0"/>
        <pt x="317" y="710" on="0"/>
        <pt x="257" y="766" on="0"/>
        <pt x="245" y="808" on="1"/>
        <pt x="261" y="818" on="1"/>
        <pt x="269" y="818" on="1"/>
      </contour>
    </TTGlyph>
    <TTGlyph name="Gcircumflex" xMin="40" yMin="-12" xMax="592" yMax="877">
      <contour>
        <pt x="574" y="270" on="0"/>
        <pt x="561" y="205" on="0"/>
        <pt x="561" y="73" on="0"/>
        <pt x="568" y="43" on="1"/>
        <pt x="562" y="34" on="1"/>
        <pt x="519" y="16" on="0"/>
        <pt x="388" y="-12" on="0"/>
        <pt x="332" y="-12" on="1"/>
        <pt x="198" y="-12" on="0"/>
        <pt x="40" y="155" on="0"/>
        <pt x="40" y="454" on="0"/>
        <pt x="234" y="649" on="0"/>
        <pt x="391" y="649" on="1"/>
        <pt x="465" y="649" on="0"/>
        <pt x="585" y="625" on="1"/>
        <pt x="589" y="619" on="1"/>
        <pt x="569" y="544" on="0"/>
        <pt x="563" y="452" on="1"/>
        <pt x="516" y="448" on="1"/>
        <pt x="519" y="475" on="0"/>
        <pt x="519" y="502" on="1"/>
        <pt x="519" y="548" on="0"/>
        <pt x="448" y="590" on="0"/>
        <pt x="368" y="590" on="1"/>
        <pt x="254" y="590" on="0"/>
        <pt x="127" y="453" on="0"/>
        <pt x="127" y="197" on="0"/>
        <pt x="252" y="38" on="0"/>
        <pt x="355" y="38" on="1"/>
        <pt x="391" y="38" on="0"/>
        <pt x="459" y="57" on="0"/>
        <pt x="492" y="76" on="1"/>
        <pt x="492" y="198" on="1"/>
        <pt x="492" y="232" on="0"/>
        <pt x="471" y="252" on="0"/>
        <pt x="437" y="252" on="1"/>
        <pt x="368" y="252" on="1"/>
        <pt x="366" y="256" on="1"/>
        <pt x="375" y="306" on="1"/>
        <pt x="443" y="302" on="0"/>
        <pt x="502" y="302" on="1"/>
        <pt x="588" y="307" on="1"/>
        <pt x="592" y="285" on="1"/>
      </contour>
      <contour>
        <pt x="217" y="702" on="1"/>
        <pt x="203" y="724" on="1"/>
        <pt x="252" y="775" on="0"/>
        <pt x="341" y="877" on="1"/>
        <pt x="355" y="877" on="1"/>
        <pt x="428" y="792" on="0"/>
        <pt x="493" y="724" on="1"/>
        <pt x="479" y="702" on="1"/>
        <pt x="470" y="701" on="1"/>
        <pt x="448" y="720" on="0"/>
        <pt x="348" y="798" on="1"/>
        <pt x="270" y="740" on="0"/>
        <pt x="226" y="701" on="1"/>
      </contour>
    </TTGlyph>
    <TTGlyph name="Gcommaaccent" xMin="40" yMin="-293" xMax="592" yMax="649">
      <contour>
        <pt x="574" y="270" on="0"/>
        <pt x="561" y="205" on="0"/>
        <pt x="561" y="73" on="0"/>
        <pt x="568" y="43" on="1"/>
        <pt x="562" y="34" on="1"/>
        <pt x="519" y="16" on="0"/>
        <pt x="388" y="-12" on="0"/>
        <pt x="332" y="-12" on="1"/>
        <pt x="198" y="-12" on="0"/>
        <pt x="40" y="155" on="0"/>
        <pt x="40" y="454" on="0"/>
        <pt x="234" y="649" on="0"/>
        <pt x="391" y="649" on="1"/>
        <pt x="465" y="649" on="0"/>
        <pt x="585" y="625" on="1"/>
        <pt x="589" y="619" on="1"/>
        <pt x="569" y="544" on="0"/>
        <pt x="563" y="452" on="1"/>
        <pt x="516" y="448" on="1"/>
        <pt x="519" y="475" on="0"/>
        <pt x="519" y="502" on="1"/>
        <pt x="519" y="548" on="0"/>
        <pt x="448" y="590" on="0"/>
        <pt x="368" y="590" on="1"/>
        <pt x="254" y="590" on="0"/>
        <pt x="127" y="453" on="0"/>
        <pt x="127" y="197" on="0"/>
        <pt x="252" y="38" on="0"/>
        <pt x="355" y="38" on="1"/>
        <pt x="391" y="38" on="0"/>
        <pt x="459" y="57" on="0"/>
        <pt x="492" y="76" on="1"/>
        <pt x="492" y="198" on="1"/>
        <pt x="492" y="232" on="0"/>
        <pt x="471" y="252" on="0"/>
        <pt x="437" y="252" on="1"/>
        <pt x="368" y="252" on="1"/>
        <pt x="366" y="256" on="1"/>
        <pt x="375" y="306" on="1"/>
        <pt x="443" y="302" on="0"/>
        <pt x="502" y="302" on="1"/>
        <pt x="588" y="307" on="1"/>
        <pt x="592" y="285" on="1"/>
      </contour>
      <contour>
        <pt x="288" y="-93" on="1"/>
        <pt x="322" y="-67" on="0"/>
        <pt x="369" y="-67" on="0"/>
        <pt x="400" y="-106" on="0"/>
        <pt x="400" y="-138" on="1"/>
        <pt x="400" y="-187" on="0"/>
        <pt x="324" y="-266" on="0"/>
        <pt x="272" y="-293" on="1"/>
        <pt x="254" y="-278" on="1"/>
        <pt x="254" y="-268" on="1"/>
        <pt x="285" y="-249" on="0"/>
        <pt x="326" y="-194" on="0"/>
        <pt x="326" y="-169" on="1"/>
        <pt x="326" y="-131" on="0"/>
        <pt x="286" y="-107" on="1"/>
      </contour>
    </TTGlyph>
    <TTGlyph name="Gdotaccent" xMin="40" yMin="-12" xMax="592" yMax="829">
      <contour>
        <pt x="574" y="270" on="0"/>
        <pt x="561" y="205" on="0"/>
        <pt x="561" y="73" on="0"/>
        <pt x="568" y="43" on="1"/>
        <pt x="562" y="34" on="1"/>
        <pt x="519" y="16" on="0"/>
        <pt x="388" y="-12" on="0"/>
        <pt x="332" y="-12" on="1"/>
        <pt x="198" y="-12" on="0"/>
        <pt x="40" y="155" on="0"/>
        <pt x="40" y="454" on="0"/>
        <pt x="234" y="649" on="0"/>
        <pt x="391" y="649" on="1"/>
        <pt x="465" y="649" on="0"/>
        <pt x="585" y="625" on="1"/>
        <pt x="589" y="619" on="1"/>
        <pt x="569" y="544" on="0"/>
        <pt x="563" y="452" on="1"/>
        <pt x="516" y="448" on="1"/>
        <pt x="519" y="475" on="0"/>
        <pt x="519" y="502" on="1"/>
        <pt x="519" y="548" on="0"/>
        <pt x="448" y="590" on="0"/>
        <pt x="368" y="590" on="1"/>
        <pt x="254" y="590" on="0"/>
        <pt x="127" y="453" on="0"/>
        <pt x="127" y="197" on="0"/>
        <pt x="252" y="38" on="0"/>
        <pt x="355" y="38" on="1"/>
        <pt x="391" y="38" on="0"/>
        <pt x="459" y="57" on="0"/>
        <pt x="492" y="76" on="1"/>
        <pt x="492" y="198" on="1"/>
        <pt x="492" y="232" on="0"/>
        <pt x="471" y="252" on="0"/>
        <pt x="437" y="252" on="1"/>
        <pt x="368" y="252" on="1"/>
        <pt x="366" y="256" on="1"/>
        <pt x="375" y="306" on="1"/>
        <pt x="443" y="302" on="0"/>
        <pt x="502" y="302" on="1"/>
        <pt x="588" y="307" on="1"/>
        <pt x="592" y="285" on="1"/>
      </contour>
      <contour>
        <pt x="420" y="754" on="0"/>
        <pt x="386" y="719" on="0"/>
        <pt x="338" y="719" on="0"/>
        <pt x="312" y="749" on="0"/>
        <pt x="312" y="794" on="0"/>
        <pt x="346" y="829" on="0"/>
        <pt x="394" y="829" on="0"/>
        <pt x="420" y="799" on="0"/>
      </contour>
    </TTGlyph>
    <TTGlyph name="H" xMin="58" yMin="-12" xMax="697" yMax="646">
      <contour>
        <pt x="606" y="112" on="1"/>
        <pt x="606" y="71" on="0"/>
        <pt x="624" y="44" on="0"/>
        <pt x="650" y="44" on="1"/>
        <pt x="695" y="47" on="1"/>
        <pt x="697" y="43" on="1"/>
        <pt x="688" y="-3" on="1"/>
        <pt x="609" y="0" on="0"/>
        <pt x="565" y="0" on="1"/>
        <pt x="450" y="-2" on="1"/>
        <pt x="459" y="43" on="1"/>
        <pt x="506" y="44" on="0"/>
        <pt x="535" y="84" on="0"/>
        <pt x="535" y="150" on="1"/>
        <pt x="535" y="301" on="1"/>
        <pt x="429" y="302" on="0"/>
        <pt x="383" y="302" on="1"/>
        <pt x="217" y="291" on="1"/>
        <pt x="213" y="112" on="1"/>
        <pt x="213" y="71" on="0"/>
        <pt x="231" y="44" on="0"/>
        <pt x="257" y="44" on="1"/>
        <pt x="302" y="47" on="1"/>
        <pt x="304" y="43" on="1"/>
        <pt x="295" y="-3" on="1"/>
        <pt x="295" y="0" on="0"/>
        <pt x="166" y="0" on="0"/>
        <pt x="59" y="-8" on="0"/>
        <pt x="58" y="-12" on="1"/>
        <pt x="64" y="34" on="1"/>
        <pt x="110" y="43" on="0"/>
        <pt x="142" y="78" on="0"/>
        <pt x="142" y="120" on="1"/>
        <pt x="143" y="540" on="1"/>
        <pt x="143" y="572" on="0"/>
        <pt x="128" y="594" on="0"/>
        <pt x="106" y="594" on="1"/>
        <pt x="72" y="592" on="1"/>
        <pt x="70" y="596" on="1"/>
        <pt x="77" y="640" on="1"/>
        <pt x="150" y="637" on="0"/>
        <pt x="178" y="637" on="1"/>
        <pt x="219" y="637" on="0"/>
        <pt x="295" y="646" on="1"/>
        <pt x="291" y="601" on="1"/>
        <pt x="248" y="594" on="0"/>
        <pt x="227" y="565" on="0"/>
        <pt x="225" y="511" on="1"/>
        <pt x="219" y="349" on="1"/>
        <pt x="387" y="348" on="1"/>
        <pt x="451" y="348" on="0"/>
        <pt x="535" y="358" on="1"/>
        <pt x="536" y="540" on="1"/>
        <pt x="536" y="572" on="0"/>
        <pt x="521" y="594" on="0"/>
        <pt x="499" y="594" on="1"/>
        <pt x="465" y="592" on="1"/>
        <pt x="463" y="596" on="1"/>
        <pt x="470" y="640" on="1"/>
        <pt x="470" y="637" on="0"/>
        <pt x="530" y="637" on="1"/>
        <pt x="600" y="637" on="0"/>
        <pt x="688" y="646" on="1"/>
        <pt x="684" y="601" on="1"/>
        <pt x="647" y="596" on="0"/>
        <pt x="622" y="573" on="0"/>
        <pt x="620" y="544" on="1"/>
        <pt x="606" y="252" on="0"/>
      </contour>
    </TTGlyph>
    <TTGlyph name="Hbar" xMin="42" yMin="-12" xMax="707" yMax="646">
      <contour>
        <pt x="604" y="112" on="1"/>
        <pt x="604" y="71" on="0"/>
        <pt x="622" y="44" on="0"/>
        <pt x="648" y="44" on="1"/>
        <pt x="693" y="47" on="1"/>
        <pt x="695" y="43" on="1"/>
        <pt x="686" y="-3" on="1"/>
        <pt x="607" y="0" on="0"/>
        <pt x="563" y="0" on="1"/>
        <pt x="448" y="-2" on="1"/>
        <pt x="457" y="43" on="1"/>
        <pt x="504" y="44" on="0"/>
        <pt x="533" y="84" on="0"/>
        <pt x="533" y="150" on="1"/>
        <pt x="533" y="301" on="1"/>
        <pt x="427" y="302" on="0"/>
        <pt x="381" y="302" on="1"/>
        <pt x="215" y="291" on="1"/>
        <pt x="211" y="112" on="1"/>
        <pt x="211" y="71" on="0"/>
        <pt x="229" y="44" on="0"/>
        <pt x="255" y="44" on="1"/>
        <pt x="300" y="47" on="1"/>
        <pt x="302" y="43" on="1"/>
        <pt x="293" y="-3" on="1"/>
        <pt x="293" y="0" on="0"/>
        <pt x="164" y="0" on="0"/>
        <pt x="57" y="-8" on="0"/>
        <pt x="56" y="-12" on="1"/>
        <pt x="62" y="34" on="1"/>
        <pt x="108" y="43" on="0"/>
        <pt x="140" y="78" on="0"/>
        <pt x="140" y="120" on="1"/>
        <pt x="141" y="448" on="1"/>
        <pt x="51" y="448" on="1"/>
        <pt x="42" y="457" on="1"/>
        <pt x="49" y="496" on="1"/>
        <pt x="89" y="495" on="0"/>
        <pt x="141" y="495" on="1"/>
        <pt x="141" y="540" on="1"/>
        <pt x="141" y="572" on="0"/>
        <pt x="126" y="594" on="0"/>
        <pt x="104" y="594" on="1"/>
        <pt x="70" y="592" on="1"/>
        <pt x="68" y="596" on="1"/>
        <pt x="75" y="640" on="1"/>
        <pt x="148" y="637" on="0"/>
        <pt x="176" y="637" on="1"/>
        <pt x="217" y="637" on="0"/>
        <pt x="293" y="646" on="1"/>
        <pt x="289" y="601" on="1"/>
        <pt x="246" y="594" on="0"/>
        <pt x="225" y="565" on="0"/>
        <pt x="223" y="511" on="1"/>
        <pt x="222" y="495" on="1"/>
        <pt x="396" y="495" on="1"/>
        <pt x="487" y="495" on="0"/>
        <pt x="534" y="496" on="1"/>
        <pt x="534" y="540" on="1"/>
        <pt x="534" y="572" on="0"/>
        <pt x="519" y="594" on="0"/>
        <pt x="497" y="594" on="1"/>
        <pt x="463" y="592" on="1"/>
        <pt x="461" y="596" on="1"/>
        <pt x="468" y="640" on="1"/>
        <pt x="468" y="637" on="0"/>
        <pt x="528" y="637" on="1"/>
        <pt x="598" y="637" on="0"/>
        <pt x="686" y="646" on="1"/>
        <pt x="682" y="601" on="1"/>
        <pt x="645" y="596" on="0"/>
        <pt x="632" y="584" on="1"/>
        <pt x="616" y="569" on="0"/>
        <pt x="616" y="498" on="1"/>
        <pt x="694" y="500" on="1"/>
        <pt x="707" y="487" on="1"/>
        <pt x="703" y="450" on="1"/>
        <pt x="614" y="449" on="1"/>
        <pt x="604" y="234" on="0"/>
      </contour>
      <contour>
        <pt x="533" y="449" on="1"/>
        <pt x="220" y="449" on="1"/>
        <pt x="217" y="349" on="1"/>
        <pt x="385" y="348" on="1"/>
        <pt x="449" y="348" on="0"/>
        <pt x="533" y="358" on="1"/>
      </contour>
    </TTGlyph>
    <TTGlyph name="Hcircumflex" xMin="58" yMin="-12" xMax="697" yMax="903">
      <contour>
        <pt x="606" y="112" on="1"/>
        <pt x="606" y="71" on="0"/>
        <pt x="624" y="44" on="0"/>
        <pt x="650" y="44" on="1"/>
        <pt x="695" y="47" on="1"/>
        <pt x="697" y="43" on="1"/>
        <pt x="688" y="-3" on="1"/>
        <pt x="609" y="0" on="0"/>
        <pt x="565" y="0" on="1"/>
        <pt x="450" y="-2" on="1"/>
        <pt x="459" y="43" on="1"/>
        <pt x="506" y="44" on="0"/>
        <pt x="535" y="84" on="0"/>
        <pt x="535" y="150" on="1"/>
        <pt x="535" y="301" on="1"/>
        <pt x="429" y="302" on="0"/>
        <pt x="383" y="302" on="1"/>
        <pt x="217" y="291" on="1"/>
        <pt x="213" y="112" on="1"/>
        <pt x="213" y="71" on="0"/>
        <pt x="231" y="44" on="0"/>
        <pt x="257" y="44" on="1"/>
        <pt x="302" y="47" on="1"/>
        <pt x="304" y="43" on="1"/>
        <pt x="295" y="-3" on="1"/>
        <pt x="295" y="0" on="0"/>
        <pt x="166" y="0" on="0"/>
        <pt x="59" y="-8" on="0"/>
        <pt x="58" y="-12" on="1"/>
        <pt x="64" y="34" on="1"/>
        <pt x="110" y="43" on="0"/>
        <pt x="142" y="78" on="0"/>
        <pt x="142" y="120" on="1"/>
        <pt x="143" y="540" on="1"/>
        <pt x="143" y="572" on="0"/>
        <pt x="128" y="594" on="0"/>
        <pt x="106" y="594" on="1"/>
        <pt x="72" y="592" on="1"/>
        <pt x="70" y="596" on="1"/>
        <pt x="77" y="640" on="1"/>
        <pt x="150" y="637" on="0"/>
        <pt x="178" y="637" on="1"/>
        <pt x="219" y="637" on="0"/>
        <pt x="295" y="646" on="1"/>
        <pt x="291" y="601" on="1"/>
        <pt x="248" y="594" on="0"/>
        <pt x="227" y="565" on="0"/>
        <pt x="225" y="511" on="1"/>
        <pt x="219" y="349" on="1"/>
        <pt x="387" y="348" on="1"/>
        <pt x="451" y="348" on="0"/>
        <pt x="535" y="358" on="1"/>
        <pt x="536" y="540" on="1"/>
        <pt x="536" y="572" on="0"/>
        <pt x="521" y="594" on="0"/>
        <pt x="499" y="594" on="1"/>
        <pt x="465" y="592" on="1"/>
        <pt x="463" y="596" on="1"/>
        <pt x="470" y="640" on="1"/>
        <pt x="470" y="637" on="0"/>
        <pt x="530" y="637" on="1"/>
        <pt x="600" y="637" on="0"/>
        <pt x="688" y="646" on="1"/>
        <pt x="684" y="601" on="1"/>
        <pt x="647" y="596" on="0"/>
        <pt x="622" y="573" on="0"/>
        <pt x="620" y="544" on="1"/>
        <pt x="606" y="252" on="0"/>
      </contour>
      <contour>
        <pt x="246" y="728" on="1"/>
        <pt x="232" y="750" on="1"/>
        <pt x="281" y="801" on="0"/>
        <pt x="370" y="903" on="1"/>
        <pt x="384" y="903" on="1"/>
        <pt x="457" y="818" on="0"/>
        <pt x="522" y="750" on="1"/>
        <pt x="508" y="728" on="1"/>
        <pt x="499" y="727" on="1"/>
        <pt x="477" y="746" on="0"/>
        <pt x="377" y="824" on="1"/>
        <pt x="299" y="765" on="0"/>
        <pt x="255" y="727" on="1"/>
      </contour>
    </TTGlyph>
    <TTGlyph name="I" xMin="56" yMin="-12" xMax="312" yMax="646">
      <contour>
        <pt x="213" y="112" on="1"/>
        <pt x="213" y="71" on="0"/>
        <pt x="231" y="44" on="0"/>
        <pt x="257" y="44" on="1"/>
        <pt x="310" y="47" on="1"/>
        <pt x="312" y="43" on="1"/>
        <pt x="303" y="-3" on="1"/>
        <pt x="219" y="0" on="0"/>
        <pt x="184" y="0" on="1"/>
        <pt x="126" y="0" on="0"/>
        <pt x="56" y="-12" on="1"/>
        <pt x="62" y="34" on="1"/>
        <pt x="109" y="43" on="0"/>
        <pt x="142" y="78" on="0"/>
        <pt x="142" y="120" on="1"/>
        <pt x="143" y="540" on="1"/>
        <pt x="143" y="572" on="0"/>
        <pt x="128" y="594" on="0"/>
        <pt x="106" y="594" on="1"/>
        <pt x="64" y="592" on="1"/>
        <pt x="62" y="596" on="1"/>
        <pt x="69" y="640" on="1"/>
        <pt x="147" y="637" on="0"/>
        <pt x="178" y="637" on="1"/>
        <pt x="220" y="637" on="0"/>
        <pt x="303" y="646" on="1"/>
        <pt x="299" y="601" on="1"/>
        <pt x="257" y="596" on="0"/>
        <pt x="229" y="573" on="0"/>
        <pt x="227" y="544" on="1"/>
        <pt x="213" y="254" on="0"/>
      </contour>
    </TTGlyph>
    <TTGlyph name="IJ" xMin="56" yMin="-144" xMax="638" yMax="646">
      <contour>
        <pt x="213" y="112" on="1"/>
        <pt x="213" y="71" on="0"/>
        <pt x="231" y="44" on="0"/>
        <pt x="257" y="44" on="1"/>
        <pt x="310" y="47" on="1"/>
        <pt x="312" y="43" on="1"/>
        <pt x="303" y="-3" on="1"/>
        <pt x="219" y="0" on="0"/>
        <pt x="184" y="0" on="1"/>
        <pt x="126" y="0" on="0"/>
        <pt x="56" y="-12" on="1"/>
        <pt x="62" y="34" on="1"/>
        <pt x="109" y="43" on="0"/>
        <pt x="142" y="78" on="0"/>
        <pt x="142" y="120" on="1"/>
        <pt x="143" y="540" on="1"/>
        <pt x="143" y="572" on="0"/>
        <pt x="128" y="594" on="0"/>
        <pt x="106" y="594" on="1"/>
        <pt x="64" y="592" on="1"/>
        <pt x="62" y="596" on="1"/>
        <pt x="69" y="640" on="1"/>
        <pt x="147" y="637" on="0"/>
        <pt x="178" y="637" on="1"/>
        <pt x="220" y="637" on="0"/>
        <pt x="303" y="646" on="1"/>
        <pt x="299" y="601" on="1"/>
        <pt x="257" y="596" on="0"/>
        <pt x="229" y="573" on="0"/>
        <pt x="227" y="544" on="1"/>
        <pt x="213" y="254" on="0"/>
      </contour>
      <contour>
        <pt x="492" y="115" on="1"/>
        <pt x="493" y="540" on="1"/>
        <pt x="493" y="572" on="0"/>
        <pt x="479" y="593" on="0"/>
        <pt x="456" y="593" on="1"/>
        <pt x="409" y="589" on="1"/>
        <pt x="407" y="593" on="1"/>
        <pt x="414" y="637" on="1"/>
        <pt x="522" y="637" on="1"/>
        <pt x="638" y="646" on="1"/>
        <pt x="634" y="601" on="1"/>
        <pt x="599" y="596" on="0"/>
        <pt x="578" y="576" on="0"/>
        <pt x="577" y="544" on="1"/>
        <pt x="566" y="306" on="0"/>
        <pt x="564" y="116" on="1"/>
        <pt x="563" y="14" on="0"/>
        <pt x="486" y="-109" on="0"/>
        <pt x="401" y="-144" on="1"/>
        <pt x="384" y="-111" on="1"/>
        <pt x="387" y="-103" on="1"/>
        <pt x="448" y="-66" on="0"/>
        <pt x="492" y="25" on="0"/>
      </contour>
    </TTGlyph>
    <TTGlyph name="Iacute" xMin="56" yMin="-12" xMax="344" yMax="841">
      <contour>
        <pt x="213" y="112" on="1"/>
        <pt x="213" y="71" on="0"/>
        <pt x="231" y="44" on="0"/>
        <pt x="257" y="44" on="1"/>
        <pt x="310" y="47" on="1"/>
        <pt x="312" y="43" on="1"/>
        <pt x="303" y="-3" on="1"/>
        <pt x="219" y="0" on="0"/>
        <pt x="184" y="0" on="1"/>
        <pt x="126" y="0" on="0"/>
        <pt x="56" y="-12" on="1"/>
        <pt x="62" y="34" on="1"/>
        <pt x="109" y="43" on="0"/>
        <pt x="142" y="78" on="0"/>
        <pt x="142" y="120" on="1"/>
        <pt x="143" y="540" on="1"/>
        <pt x="143" y="572" on="0"/>
        <pt x="128" y="594" on="0"/>
        <pt x="106" y="594" on="1"/>
        <pt x="64" y="592" on="1"/>
        <pt x="62" y="596" on="1"/>
        <pt x="69" y="640" on="1"/>
        <pt x="147" y="637" on="0"/>
        <pt x="178" y="637" on="1"/>
        <pt x="220" y="637" on="0"/>
        <pt x="303" y="646" on="1"/>
        <pt x="299" y="601" on="1"/>
        <pt x="257" y="596" on="0"/>
        <pt x="229" y="573" on="0"/>
        <pt x="227" y="544" on="1"/>
        <pt x="213" y="254" on="0"/>
      </contour>
      <contour>
        <pt x="344" y="787" on="1"/>
        <pt x="340" y="777" on="1"/>
        <pt x="239" y="743" on="0"/>
        <pt x="134" y="703" on="1"/>
        <pt x="126" y="708" on="1"/>
        <pt x="120" y="732" on="1"/>
        <pt x="319" y="841" on="1"/>
        <pt x="328" y="835" on="1"/>
      </contour>
    </TTGlyph>
    <TTGlyph name="Ibreve" xMin="56" yMin="-12" xMax="312" yMax="857">
      <contour>
        <pt x="213" y="112" on="1"/>
        <pt x="213" y="71" on="0"/>
        <pt x="231" y="44" on="0"/>
        <pt x="257" y="44" on="1"/>
        <pt x="310" y="47" on="1"/>
        <pt x="312" y="43" on="1"/>
        <pt x="303" y="-3" on="1"/>
        <pt x="219" y="0" on="0"/>
        <pt x="184" y="0" on="1"/>
        <pt x="126" y="0" on="0"/>
        <pt x="56" y="-12" on="1"/>
        <pt x="62" y="34" on="1"/>
        <pt x="109" y="43" on="0"/>
        <pt x="142" y="78" on="0"/>
        <pt x="142" y="120" on="1"/>
        <pt x="143" y="540" on="1"/>
        <pt x="143" y="572" on="0"/>
        <pt x="128" y="594" on="0"/>
        <pt x="106" y="594" on="1"/>
        <pt x="64" y="592" on="1"/>
        <pt x="62" y="596" on="1"/>
        <pt x="69" y="640" on="1"/>
        <pt x="147" y="637" on="0"/>
        <pt x="178" y="637" on="1"/>
        <pt x="220" y="637" on="0"/>
        <pt x="303" y="646" on="1"/>
        <pt x="299" y="601" on="1"/>
        <pt x="257" y="596" on="0"/>
        <pt x="229" y="573" on="0"/>
        <pt x="227" y="544" on="1"/>
        <pt x="213" y="254" on="0"/>
      </contour>
      <contour>
        <pt x="92" y="857" on="1"/>
        <pt x="117" y="791" on="0"/>
        <pt x="258" y="791" on="0"/>
        <pt x="284" y="857" on="1"/>
        <pt x="292" y="857" on="1"/>
        <pt x="308" y="847" on="1"/>
        <pt x="296" y="799" on="0"/>
        <pt x="236" y="733" on="0"/>
        <pt x="140" y="733" on="0"/>
        <pt x="80" y="799" on="0"/>
        <pt x="68" y="847" on="1"/>
        <pt x="84" y="857" on="1"/>
      </contour>
    </TTGlyph>
    <TTGlyph name="Icircumflex" xMin="39" yMin="-12" xMax="329" yMax="846">
      <contour>
        <pt x="213" y="112" on="1"/>
        <pt x="213" y="71" on="0"/>
        <pt x="231" y="44" on="0"/>
        <pt x="257" y="44" on="1"/>
        <pt x="310" y="47" on="1"/>
        <pt x="312" y="43" on="1"/>
        <pt x="303" y="-3" on="1"/>
        <pt x="219" y="0" on="0"/>
        <pt x="184" y="0" on="1"/>
        <pt x="126" y="0" on="0"/>
        <pt x="56" y="-12" on="1"/>
        <pt x="62" y="34" on="1"/>
        <pt x="109" y="43" on="0"/>
        <pt x="142" y="78" on="0"/>
        <pt x="142" y="120" on="1"/>
        <pt x="143" y="540" on="1"/>
        <pt x="143" y="572" on="0"/>
        <pt x="128" y="594" on="0"/>
        <pt x="106" y="594" on="1"/>
        <pt x="64" y="592" on="1"/>
        <pt x="62" y="596" on="1"/>
        <pt x="69" y="640" on="1"/>
        <pt x="147" y="637" on="0"/>
        <pt x="178" y="637" on="1"/>
        <pt x="220" y="637" on="0"/>
        <pt x="303" y="646" on="1"/>
        <pt x="299" y="601" on="1"/>
        <pt x="257" y="596" on="0"/>
        <pt x="229" y="573" on="0"/>
        <pt x="227" y="544" on="1"/>
        <pt x="213" y="254" on="0"/>
      </contour>
      <contour>
        <pt x="53" y="713" on="1"/>
        <pt x="39" y="735" on="1"/>
        <pt x="177" y="846" on="1"/>
        <pt x="191" y="846" on="1"/>
        <pt x="264" y="784" on="0"/>
        <pt x="329" y="735" on="1"/>
        <pt x="315" y="713" on="1"/>
        <pt x="306" y="712" on="1"/>
        <pt x="239" y="751" on="0"/>
        <pt x="184" y="777" on="1"/>
        <pt x="132" y="753" on="0"/>
        <pt x="62" y="712" on="1"/>
      </contour>
    </TTGlyph>
    <TTGlyph name="Idieresis" xMin="55" yMin="-12" xMax="312" yMax="818">
      <contour>
        <pt x="213" y="112" on="1"/>
        <pt x="213" y="71" on="0"/>
        <pt x="231" y="44" on="0"/>
        <pt x="257" y="44" on="1"/>
        <pt x="310" y="47" on="1"/>
        <pt x="312" y="43" on="1"/>
        <pt x="303" y="-3" on="1"/>
        <pt x="219" y="0" on="0"/>
        <pt x="184" y="0" on="1"/>
        <pt x="126" y="0" on="0"/>
        <pt x="56" y="-12" on="1"/>
        <pt x="62" y="34" on="1"/>
        <pt x="109" y="43" on="0"/>
        <pt x="142" y="78" on="0"/>
        <pt x="142" y="120" on="1"/>
        <pt x="143" y="540" on="1"/>
        <pt x="143" y="572" on="0"/>
        <pt x="128" y="594" on="0"/>
        <pt x="106" y="594" on="1"/>
        <pt x="64" y="592" on="1"/>
        <pt x="62" y="596" on="1"/>
        <pt x="69" y="640" on="1"/>
        <pt x="147" y="637" on="0"/>
        <pt x="178" y="637" on="1"/>
        <pt x="220" y="637" on="0"/>
        <pt x="303" y="646" on="1"/>
        <pt x="299" y="601" on="1"/>
        <pt x="257" y="596" on="0"/>
        <pt x="229" y="573" on="0"/>
        <pt x="227" y="544" on="1"/>
        <pt x="213" y="254" on="0"/>
      </contour>
      <contour>
        <pt x="312" y="754" on="0"/>
        <pt x="283" y="725" on="0"/>
        <pt x="243" y="725" on="0"/>
        <pt x="221" y="751" on="0"/>
        <pt x="221" y="789" on="0"/>
        <pt x="250" y="818" on="0"/>
        <pt x="290" y="818" on="0"/>
        <pt x="312" y="793" on="0"/>
      </contour>
      <contour>
        <pt x="146" y="754" on="0"/>
        <pt x="117" y="725" on="0"/>
        <pt x="77" y="725" on="0"/>
        <pt x="55" y="751" on="0"/>
        <pt x="55" y="789" on="0"/>
        <pt x="84" y="818" on="0"/>
        <pt x="124" y="818" on="0"/>
        <pt x="146" y="793" on="0"/>
      </contour>
    </TTGlyph>
    <TTGlyph name="Idotaccent" xMin="56" yMin="-12" xMax="312" yMax="829">
      <contour>
        <pt x="213" y="112" on="1"/>
        <pt x="213" y="71" on="0"/>
        <pt x="231" y="44" on="0"/>
        <pt x="257" y="44" on="1"/>
        <pt x="310" y="47" on="1"/>
        <pt x="312" y="43" on="1"/>
        <pt x="303" y="-3" on="1"/>
        <pt x="219" y="0" on="0"/>
        <pt x="184" y="0" on="1"/>
        <pt x="126" y="0" on="0"/>
        <pt x="56" y="-12" on="1"/>
        <pt x="62" y="34" on="1"/>
        <pt x="109" y="43" on="0"/>
        <pt x="142" y="78" on="0"/>
        <pt x="142" y="120" on="1"/>
        <pt x="143" y="540" on="1"/>
        <pt x="143" y="572" on="0"/>
        <pt x="128" y="594" on="0"/>
        <pt x="106" y="594" on="1"/>
        <pt x="64" y="592" on="1"/>
        <pt x="62" y="596" on="1"/>
        <pt x="69" y="640" on="1"/>
        <pt x="147" y="637" on="0"/>
        <pt x="178" y="637" on="1"/>
        <pt x="220" y="637" on="0"/>
        <pt x="303" y="646" on="1"/>
        <pt x="299" y="601" on="1"/>
        <pt x="257" y="596" on="0"/>
        <pt x="229" y="573" on="0"/>
        <pt x="227" y="544" on="1"/>
        <pt x="213" y="254" on="0"/>
      </contour>
      <contour>
        <pt x="238" y="754" on="0"/>
        <pt x="204" y="719" on="0"/>
        <pt x="156" y="719" on="0"/>
        <pt x="130" y="749" on="0"/>
        <pt x="130" y="794" on="0"/>
        <pt x="164" y="829" on="0"/>
        <pt x="212" y="829" on="0"/>
        <pt x="238" y="799" on="0"/>
      </contour>
    </TTGlyph>
    <TTGlyph name="Igrave" xMin="31" yMin="-12" xMax="312" yMax="841">
      <contour>
        <pt x="213" y="112" on="1"/>
        <pt x="213" y="71" on="0"/>
        <pt x="231" y="44" on="0"/>
        <pt x="257" y="44" on="1"/>
        <pt x="310" y="47" on="1"/>
        <pt x="312" y="43" on="1"/>
        <pt x="303" y="-3" on="1"/>
        <pt x="219" y="0" on="0"/>
        <pt x="184" y="0" on="1"/>
        <pt x="126" y="0" on="0"/>
        <pt x="56" y="-12" on="1"/>
        <pt x="62" y="34" on="1"/>
        <pt x="109" y="43" on="0"/>
        <pt x="142" y="78" on="0"/>
        <pt x="142" y="120" on="1"/>
        <pt x="143" y="540" on="1"/>
        <pt x="143" y="572" on="0"/>
        <pt x="128" y="594" on="0"/>
        <pt x="106" y="594" on="1"/>
        <pt x="64" y="592" on="1"/>
        <pt x="62" y="596" on="1"/>
        <pt x="69" y="640" on="1"/>
        <pt x="147" y="637" on="0"/>
        <pt x="178" y="637" on="1"/>
        <pt x="220" y="637" on="0"/>
        <pt x="303" y="646" on="1"/>
        <pt x="299" y="601" on="1"/>
        <pt x="257" y="596" on="0"/>
        <pt x="229" y="573" on="0"/>
        <pt x="227" y="544" on="1"/>
        <pt x="213" y="254" on="0"/>
      </contour>
      <contour>
        <pt x="35" y="777" on="1"/>
        <pt x="31" y="787" on="1"/>
        <pt x="47" y="835" on="1"/>
        <pt x="56" y="841" on="1"/>
        <pt x="161" y="781" on="0"/>
        <pt x="255" y="732" on="1"/>
        <pt x="249" y="708" on="1"/>
        <pt x="241" y="703" on="1"/>
      </contour>
    </TTGlyph>
    <TTGlyph name="Imacron" xMin="34" yMin="-12" xMax="333" yMax="778">
      <contour>
        <pt x="213" y="112" on="1"/>
        <pt x="213" y="71" on="0"/>
        <pt x="231" y="44" on="0"/>
        <pt x="257" y="44" on="1"/>
        <pt x="310" y="47" on="1"/>
        <pt x="312" y="43" on="1"/>
        <pt x="303" y="-3" on="1"/>
        <pt x="219" y="0" on="0"/>
        <pt x="184" y="0" on="1"/>
        <pt x="126" y="0" on="0"/>
        <pt x="56" y="-12" on="1"/>
        <pt x="62" y="34" on="1"/>
        <pt x="109" y="43" on="0"/>
        <pt x="142" y="78" on="0"/>
        <pt x="142" y="120" on="1"/>
        <pt x="143" y="540" on="1"/>
        <pt x="143" y="572" on="0"/>
        <pt x="128" y="594" on="0"/>
        <pt x="106" y="594" on="1"/>
        <pt x="64" y="592" on="1"/>
        <pt x="62" y="596" on="1"/>
        <pt x="69" y="640" on="1"/>
        <pt x="147" y="637" on="0"/>
        <pt x="178" y="637" on="1"/>
        <pt x="220" y="637" on="0"/>
        <pt x="303" y="646" on="1"/>
        <pt x="299" y="601" on="1"/>
        <pt x="257" y="596" on="0"/>
        <pt x="229" y="573" on="0"/>
        <pt x="227" y="544" on="1"/>
        <pt x="213" y="254" on="0"/>
      </contour>
      <contour>
        <pt x="327" y="778" on="1"/>
        <pt x="333" y="768" on="1"/>
        <pt x="326" y="721" on="1"/>
        <pt x="40" y="719" on="1"/>
        <pt x="34" y="728" on="1"/>
        <pt x="44" y="773" on="1"/>
        <pt x="139" y="772" on="0"/>
        <pt x="198" y="772" on="1"/>
      </contour>
    </TTGlyph>
    <TTGlyph name="Iogonek" xMin="56" yMin="-241" xMax="329" yMax="646">
      <contour>
        <pt x="179" y="-241" on="0"/>
        <pt x="118" y="-191" on="0"/>
        <pt x="118" y="-115" on="0"/>
        <pt x="165" y="-47" on="0"/>
        <pt x="212" y="0" on="1"/>
        <pt x="172" y="0" on="1"/>
        <pt x="126" y="0" on="0"/>
        <pt x="56" y="-12" on="1"/>
        <pt x="62" y="34" on="1"/>
        <pt x="109" y="43" on="0"/>
        <pt x="142" y="78" on="0"/>
        <pt x="142" y="120" on="1"/>
        <pt x="143" y="540" on="1"/>
        <pt x="143" y="572" on="0"/>
        <pt x="128" y="594" on="0"/>
        <pt x="106" y="594" on="1"/>
        <pt x="64" y="592" on="1"/>
        <pt x="62" y="596" on="1"/>
        <pt x="69" y="640" on="1"/>
        <pt x="147" y="637" on="0"/>
        <pt x="178" y="637" on="1"/>
        <pt x="220" y="637" on="0"/>
        <pt x="303" y="646" on="1"/>
        <pt x="299" y="601" on="1"/>
        <pt x="257" y="596" on="0"/>
        <pt x="229" y="573" on="0"/>
        <pt x="227" y="544" on="1"/>
        <pt x="213" y="254" on="0"/>
        <pt x="213" y="112" on="1"/>
        <pt x="213" y="71" on="0"/>
        <pt x="231" y="44" on="0"/>
        <pt x="257" y="44" on="1"/>
        <pt x="310" y="47" on="1"/>
        <pt x="312" y="43" on="1"/>
        <pt x="303" y="-3" on="1"/>
        <pt x="281" y="-2" on="0"/>
        <pt x="255" y="-1" on="1"/>
        <pt x="214" y="-44" on="0"/>
        <pt x="181" y="-99" on="0"/>
        <pt x="181" y="-152" on="0"/>
        <pt x="213" y="-182" on="0"/>
        <pt x="234" y="-182" on="1"/>
        <pt x="272" y="-182" on="0"/>
        <pt x="316" y="-159" on="1"/>
        <pt x="329" y="-178" on="1"/>
        <pt x="280" y="-224" on="0"/>
        <pt x="229" y="-241" on="1"/>
      </contour>
    </TTGlyph>
    <TTGlyph name="Itilde" xMin="22" yMin="-12" xMax="351" yMax="867">
      <contour>
        <pt x="213" y="112" on="1"/>
        <pt x="213" y="71" on="0"/>
        <pt x="231" y="44" on="0"/>
        <pt x="257" y="44" on="1"/>
        <pt x="310" y="47" on="1"/>
        <pt x="312" y="43" on="1"/>
        <pt x="303" y="-3" on="1"/>
        <pt x="219" y="0" on="0"/>
        <pt x="184" y="0" on="1"/>
        <pt x="126" y="0" on="0"/>
        <pt x="56" y="-12" on="1"/>
        <pt x="62" y="34" on="1"/>
        <pt x="109" y="43" on="0"/>
        <pt x="142" y="78" on="0"/>
        <pt x="142" y="120" on="1"/>
        <pt x="143" y="540" on="1"/>
        <pt x="143" y="572" on="0"/>
        <pt x="128" y="594" on="0"/>
        <pt x="106" y="594" on="1"/>
        <pt x="64" y="592" on="1"/>
        <pt x="62" y="596" on="1"/>
        <pt x="69" y="640" on="1"/>
        <pt x="147" y="637" on="0"/>
        <pt x="178" y="637" on="1"/>
        <pt x="220" y="637" on="0"/>
        <pt x="303" y="646" on="1"/>
        <pt x="299" y="601" on="1"/>
        <pt x="257" y="596" on="0"/>
        <pt x="229" y="573" on="0"/>
        <pt x="227" y="544" on="1"/>
        <pt x="213" y="254" on="0"/>
      </contour>
      <contour>
        <pt x="131" y="845" on="0"/>
        <pt x="247" y="812" on="0"/>
        <pt x="270" y="812" on="0"/>
        <pt x="302" y="840" on="0"/>
        <pt x="323" y="867" on="1"/>
        <pt x="329" y="867" on="1"/>
        <pt x="351" y="846" on="1"/>
        <pt x="351" y="841" on="1"/>
        <pt x="275" y="752" on="1"/>
        <pt x="259" y="748" on="1"/>
        <pt x="242" y="748" on="0"/>
        <pt x="126" y="781" on="0"/>
        <pt x="102" y="781" on="0"/>
        <pt x="71" y="754" on="0"/>
        <pt x="50" y="726" on="1"/>
        <pt x="44" y="726" on="1"/>
        <pt x="22" y="747" on="1"/>
        <pt x="22" y="752" on="1"/>
        <pt x="98" y="841" on="1"/>
        <pt x="114" y="845" on="1"/>
      </contour>
    </TTGlyph>
    <TTGlyph name="J" xMin="23" yMin="-144" xMax="277" yMax="646">
      <contour>
        <pt x="131" y="115" on="1"/>
        <pt x="132" y="540" on="1"/>
        <pt x="132" y="572" on="0"/>
        <pt x="118" y="593" on="0"/>
        <pt x="95" y="593" on="1"/>
        <pt x="48" y="589" on="1"/>
        <pt x="46" y="593" on="1"/>
        <pt x="53" y="637" on="1"/>
        <pt x="161" y="637" on="1"/>
        <pt x="277" y="646" on="1"/>
        <pt x="273" y="601" on="1"/>
        <pt x="238" y="596" on="0"/>
        <pt x="218" y="576" on="0"/>
        <pt x="216" y="544" on="1"/>
        <pt x="205" y="306" on="0"/>
        <pt x="203" y="116" on="1"/>
        <pt x="202" y="14" on="0"/>
        <pt x="125" y="-109" on="0"/>
        <pt x="40" y="-144" on="1"/>
        <pt x="23" y="-111" on="1"/>
        <pt x="26" y="-103" on="1"/>
        <pt x="87" y="-66" on="0"/>
        <pt x="131" y="25" on="0"/>
      </contour>
    </TTGlyph>
    <TTGlyph name="Jcircumflex" xMin="23" yMin="-144" xMax="319" yMax="877">
      <contour>
        <pt x="131" y="115" on="1"/>
        <pt x="132" y="540" on="1"/>
        <pt x="132" y="572" on="0"/>
        <pt x="118" y="593" on="0"/>
        <pt x="95" y="593" on="1"/>
        <pt x="48" y="589" on="1"/>
        <pt x="46" y="593" on="1"/>
        <pt x="53" y="637" on="1"/>
        <pt x="161" y="637" on="1"/>
        <pt x="277" y="646" on="1"/>
        <pt x="273" y="601" on="1"/>
        <pt x="238" y="596" on="0"/>
        <pt x="218" y="576" on="0"/>
        <pt x="216" y="544" on="1"/>
        <pt x="205" y="306" on="0"/>
        <pt x="203" y="116" on="1"/>
        <pt x="202" y="14" on="0"/>
        <pt x="125" y="-109" on="0"/>
        <pt x="40" y="-144" on="1"/>
        <pt x="23" y="-111" on="1"/>
        <pt x="26" y="-103" on="1"/>
        <pt x="87" y="-66" on="0"/>
        <pt x="131" y="25" on="0"/>
      </contour>
      <contour>
        <pt x="43" y="702" on="1"/>
        <pt x="29" y="724" on="1"/>
        <pt x="78" y="775" on="0"/>
        <pt x="167" y="877" on="1"/>
        <pt x="181" y="877" on="1"/>
        <pt x="254" y="792" on="0"/>
        <pt x="319" y="724" on="1"/>
        <pt x="305" y="702" on="1"/>
        <pt x="296" y="701" on="1"/>
        <pt x="274" y="720" on="0"/>
        <pt x="174" y="798" on="1"/>
        <pt x="96" y="740" on="0"/>
        <pt x="52" y="701" on="1"/>
      </contour>
    </TTGlyph>
    <TTGlyph name="K" xMin="57" yMin="-14" xMax="618" yMax="646">
      <contour>
        <pt x="77" y="640" on="1"/>
        <pt x="150" y="637" on="0"/>
        <pt x="178" y="637" on="1"/>
        <pt x="219" y="637" on="0"/>
        <pt x="295" y="646" on="1"/>
        <pt x="291" y="601" on="1"/>
        <pt x="254" y="595" on="0"/>
        <pt x="226" y="570" on="0"/>
        <pt x="225" y="541" on="1"/>
        <pt x="213" y="108" on="0"/>
        <pt x="213" y="71" on="0"/>
        <pt x="230" y="44" on="0"/>
        <pt x="257" y="44" on="1"/>
        <pt x="302" y="47" on="1"/>
        <pt x="304" y="43" on="1"/>
        <pt x="295" y="-3" on="1"/>
        <pt x="216" y="0" on="0"/>
        <pt x="172" y="0" on="1"/>
        <pt x="57" y="-1" on="1"/>
        <pt x="67" y="44" on="1"/>
        <pt x="114" y="49" on="0"/>
        <pt x="142" y="77" on="0"/>
        <pt x="142" y="120" on="1"/>
        <pt x="143" y="540" on="1"/>
        <pt x="143" y="572" on="0"/>
        <pt x="128" y="594" on="0"/>
        <pt x="106" y="594" on="1"/>
        <pt x="72" y="592" on="1"/>
        <pt x="70" y="596" on="1"/>
      </contour>
      <contour>
        <pt x="453" y="567" on="1"/>
        <pt x="453" y="593" on="0"/>
        <pt x="390" y="597" on="1"/>
        <pt x="388" y="601" on="1"/>
        <pt x="395" y="644" on="1"/>
        <pt x="468" y="637" on="0"/>
        <pt x="505" y="637" on="1"/>
        <pt x="597" y="641" on="1"/>
        <pt x="601" y="634" on="1"/>
        <pt x="594" y="593" on="1"/>
        <pt x="568" y="588" on="0"/>
        <pt x="524" y="556" on="0"/>
        <pt x="479" y="509" on="1"/>
        <pt x="318" y="340" on="1"/>
        <pt x="486" y="121" on="1"/>
        <pt x="522" y="74" on="0"/>
        <pt x="579" y="36" on="0"/>
        <pt x="614" y="36" on="1"/>
        <pt x="618" y="32" on="1"/>
        <pt x="612" y="-2" on="1"/>
        <pt x="540" y="-14" on="0"/>
        <pt x="529" y="-14" on="1"/>
        <pt x="479" y="-14" on="0"/>
        <pt x="417" y="72" on="1"/>
        <pt x="242" y="315" on="1"/>
        <pt x="243" y="329" on="1"/>
        <pt x="422" y="515" on="1"/>
        <pt x="453" y="546" on="0"/>
      </contour>
    </TTGlyph>
    <TTGlyph name="Kcommaaccent" xMin="57" yMin="-293" xMax="618" yMax="646">
      <contour>
        <pt x="77" y="640" on="1"/>
        <pt x="150" y="637" on="0"/>
        <pt x="178" y="637" on="1"/>
        <pt x="219" y="637" on="0"/>
        <pt x="295" y="646" on="1"/>
        <pt x="291" y="601" on="1"/>
        <pt x="254" y="595" on="0"/>
        <pt x="226" y="570" on="0"/>
        <pt x="225" y="541" on="1"/>
        <pt x="213" y="108" on="0"/>
        <pt x="213" y="71" on="0"/>
        <pt x="230" y="44" on="0"/>
        <pt x="257" y="44" on="1"/>
        <pt x="302" y="47" on="1"/>
        <pt x="304" y="43" on="1"/>
        <pt x="295" y="-3" on="1"/>
        <pt x="216" y="0" on="0"/>
        <pt x="172" y="0" on="1"/>
        <pt x="57" y="-1" on="1"/>
        <pt x="67" y="44" on="1"/>
        <pt x="114" y="49" on="0"/>
        <pt x="142" y="77" on="0"/>
        <pt x="142" y="120" on="1"/>
        <pt x="143" y="540" on="1"/>
        <pt x="143" y="572" on="0"/>
        <pt x="128" y="594" on="0"/>
        <pt x="106" y="594" on="1"/>
        <pt x="72" y="592" on="1"/>
        <pt x="70" y="596" on="1"/>
      </contour>
      <contour>
        <pt x="453" y="567" on="1"/>
        <pt x="453" y="593" on="0"/>
        <pt x="390" y="597" on="1"/>
        <pt x="388" y="601" on="1"/>
        <pt x="395" y="644" on="1"/>
        <pt x="468" y="637" on="0"/>
        <pt x="505" y="637" on="1"/>
        <pt x="597" y="641" on="1"/>
        <pt x="601" y="634" on="1"/>
        <pt x="594" y="593" on="1"/>
        <pt x="568" y="588" on="0"/>
        <pt x="524" y="556" on="0"/>
        <pt x="479" y="509" on="1"/>
        <pt x="318" y="340" on="1"/>
        <pt x="486" y="121" on="1"/>
        <pt x="522" y="74" on="0"/>
        <pt x="579" y="36" on="0"/>
        <pt x="614" y="36" on="1"/>
        <pt x="618" y="32" on="1"/>
        <pt x="612" y="-2" on="1"/>
        <pt x="540" y="-14" on="0"/>
        <pt x="529" y="-14" on="1"/>
        <pt x="479" y="-14" on="0"/>
        <pt x="417" y="72" on="1"/>
        <pt x="242" y="315" on="1"/>
        <pt x="243" y="329" on="1"/>
        <pt x="422" y="515" on="1"/>
        <pt x="453" y="546" on="0"/>
      </contour>
      <contour>
        <pt x="277" y="-93" on="1"/>
        <pt x="311" y="-67" on="0"/>
        <pt x="358" y="-67" on="0"/>
        <pt x="389" y="-106" on="0"/>
        <pt x="389" y="-138" on="1"/>
        <pt x="389" y="-187" on="0"/>
        <pt x="313" y="-266" on="0"/>
        <pt x="261" y="-293" on="1"/>
        <pt x="243" y="-278" on="1"/>
        <pt x="243" y="-268" on="1"/>
        <pt x="274" y="-249" on="0"/>
        <pt x="315" y="-194" on="0"/>
        <pt x="315" y="-169" on="1"/>
        <pt x="315" y="-131" on="0"/>
        <pt x="275" y="-107" on="1"/>
      </contour>
    </TTGlyph>
    <TTGlyph name="L" xMin="68" yMin="-10" xMax="505" yMax="646">
      <contour>
        <pt x="471" y="-9" on="1"/>
        <pt x="297" y="0" on="0"/>
        <pt x="233" y="0" on="1"/>
        <pt x="136" y="0" on="0"/>
        <pt x="68" y="-10" on="1"/>
        <pt x="74" y="36" on="1"/>
        <pt x="113" y="42" on="0"/>
        <pt x="142" y="77" on="0"/>
        <pt x="142" y="120" on="1"/>
        <pt x="143" y="540" on="1"/>
        <pt x="143" y="572" on="0"/>
        <pt x="128" y="594" on="0"/>
        <pt x="106" y="594" on="1"/>
        <pt x="72" y="592" on="1"/>
        <pt x="70" y="596" on="1"/>
        <pt x="77" y="640" on="1"/>
        <pt x="151" y="637" on="0"/>
        <pt x="180" y="637" on="1"/>
        <pt x="220" y="637" on="0"/>
        <pt x="296" y="646" on="1"/>
        <pt x="292" y="601" on="1"/>
        <pt x="281" y="599" on="0"/>
        <pt x="264" y="596" on="0"/>
        <pt x="251" y="590" on="0"/>
        <pt x="242" y="587" on="0"/>
        <pt x="235" y="574" on="0"/>
        <pt x="232" y="569" on="0"/>
        <pt x="229" y="550" on="0"/>
        <pt x="228" y="546" on="1"/>
        <pt x="226" y="526" on="0"/>
        <pt x="226" y="508" on="1"/>
        <pt x="214" y="341" on="0"/>
        <pt x="214" y="122" on="1"/>
        <pt x="214" y="71" on="0"/>
        <pt x="243" y="45" on="0"/>
        <pt x="386" y="45" on="0"/>
        <pt x="441" y="95" on="0"/>
        <pt x="458" y="187" on="1"/>
        <pt x="502" y="192" on="1"/>
        <pt x="505" y="187" on="1"/>
        <pt x="487" y="96" on="0"/>
        <pt x="476" y="-3" on="1"/>
      </contour>
    </TTGlyph>
    <TTGlyph name="Lacute" xMin="68" yMin="-10" xMax="505" yMax="841">
      <contour>
        <pt x="471" y="-9" on="1"/>
        <pt x="297" y="0" on="0"/>
        <pt x="233" y="0" on="1"/>
        <pt x="136" y="0" on="0"/>
        <pt x="68" y="-10" on="1"/>
        <pt x="74" y="36" on="1"/>
        <pt x="113" y="42" on="0"/>
        <pt x="142" y="77" on="0"/>
        <pt x="142" y="120" on="1"/>
        <pt x="143" y="540" on="1"/>
        <pt x="143" y="572" on="0"/>
        <pt x="128" y="594" on="0"/>
        <pt x="106" y="594" on="1"/>
        <pt x="72" y="592" on="1"/>
        <pt x="70" y="596" on="1"/>
        <pt x="77" y="640" on="1"/>
        <pt x="151" y="637" on="0"/>
        <pt x="180" y="637" on="1"/>
        <pt x="220" y="637" on="0"/>
        <pt x="296" y="646" on="1"/>
        <pt x="292" y="601" on="1"/>
        <pt x="281" y="599" on="0"/>
        <pt x="264" y="596" on="0"/>
        <pt x="251" y="590" on="0"/>
        <pt x="242" y="587" on="0"/>
        <pt x="235" y="574" on="0"/>
        <pt x="232" y="569" on="0"/>
        <pt x="229" y="550" on="0"/>
        <pt x="228" y="546" on="1"/>
        <pt x="226" y="526" on="0"/>
        <pt x="226" y="508" on="1"/>
        <pt x="214" y="341" on="0"/>
        <pt x="214" y="122" on="1"/>
        <pt x="214" y="71" on="0"/>
        <pt x="243" y="45" on="0"/>
        <pt x="386" y="45" on="0"/>
        <pt x="441" y="95" on="0"/>
        <pt x="458" y="187" on="1"/>
        <pt x="502" y="192" on="1"/>
        <pt x="505" y="187" on="1"/>
        <pt x="487" y="96" on="0"/>
        <pt x="476" y="-3" on="1"/>
      </contour>
      <contour>
        <pt x="350" y="787" on="1"/>
        <pt x="346" y="777" on="1"/>
        <pt x="245" y="743" on="0"/>
        <pt x="140" y="703" on="1"/>
        <pt x="132" y="708" on="1"/>
        <pt x="126" y="732" on="1"/>
        <pt x="325" y="841" on="1"/>
        <pt x="334" y="835" on="1"/>
      </contour>
    </TTGlyph>
    <TTGlyph name="Lcaron" xMin="68" yMin="-10" xMax="505" yMax="646">
      <contour>
        <pt x="416" y="401" on="1"/>
        <pt x="417" y="434" on="0"/>
        <pt x="417" y="460" on="1"/>
        <pt x="417" y="528" on="0"/>
        <pt x="410" y="619" on="1"/>
        <pt x="480" y="633" on="1"/>
        <pt x="487" y="625" on="1"/>
        <pt x="473" y="515" on="0"/>
        <pt x="452" y="413" on="1"/>
        <pt x="427" y="399" on="1"/>
      </contour>
      <contour>
        <pt x="471" y="-9" on="1"/>
        <pt x="297" y="0" on="0"/>
        <pt x="233" y="0" on="1"/>
        <pt x="136" y="0" on="0"/>
        <pt x="68" y="-10" on="1"/>
        <pt x="74" y="36" on="1"/>
        <pt x="113" y="42" on="0"/>
        <pt x="142" y="77" on="0"/>
        <pt x="142" y="120" on="1"/>
        <pt x="143" y="540" on="1"/>
        <pt x="143" y="572" on="0"/>
        <pt x="128" y="594" on="0"/>
        <pt x="106" y="594" on="1"/>
        <pt x="72" y="592" on="1"/>
        <pt x="70" y="596" on="1"/>
        <pt x="77" y="640" on="1"/>
        <pt x="151" y="637" on="0"/>
        <pt x="180" y="637" on="1"/>
        <pt x="220" y="637" on="0"/>
        <pt x="296" y="646" on="1"/>
        <pt x="292" y="601" on="1"/>
        <pt x="281" y="599" on="0"/>
        <pt x="264" y="596" on="0"/>
        <pt x="251" y="590" on="0"/>
        <pt x="242" y="587" on="0"/>
        <pt x="235" y="574" on="0"/>
        <pt x="232" y="569" on="0"/>
        <pt x="229" y="550" on="0"/>
        <pt x="228" y="546" on="1"/>
        <pt x="226" y="526" on="0"/>
        <pt x="226" y="508" on="1"/>
        <pt x="214" y="341" on="0"/>
        <pt x="214" y="122" on="1"/>
        <pt x="214" y="71" on="0"/>
        <pt x="243" y="45" on="0"/>
        <pt x="386" y="45" on="0"/>
        <pt x="441" y="95" on="0"/>
        <pt x="458" y="187" on="1"/>
        <pt x="502" y="192" on="1"/>
        <pt x="505" y="187" on="1"/>
        <pt x="487" y="96" on="0"/>
        <pt x="476" y="-3" on="1"/>
      </contour>
    </TTGlyph>
    <TTGlyph name="Lcommaaccent" xMin="68" yMin="-293" xMax="505" yMax="646">
      <contour>
        <pt x="471" y="-9" on="1"/>
        <pt x="297" y="0" on="0"/>
        <pt x="233" y="0" on="1"/>
        <pt x="136" y="0" on="0"/>
        <pt x="68" y="-10" on="1"/>
        <pt x="74" y="36" on="1"/>
        <pt x="113" y="42" on="0"/>
        <pt x="142" y="77" on="0"/>
        <pt x="142" y="120" on="1"/>
        <pt x="143" y="540" on="1"/>
        <pt x="143" y="572" on="0"/>
        <pt x="128" y="594" on="0"/>
        <pt x="106" y="594" on="1"/>
        <pt x="72" y="592" on="1"/>
        <pt x="70" y="596" on="1"/>
        <pt x="77" y="640" on="1"/>
        <pt x="151" y="637" on="0"/>
        <pt x="180" y="637" on="1"/>
        <pt x="220" y="637" on="0"/>
        <pt x="296" y="646" on="1"/>
        <pt x="292" y="601" on="1"/>
        <pt x="281" y="599" on="0"/>
        <pt x="264" y="596" on="0"/>
        <pt x="251" y="590" on="0"/>
        <pt x="242" y="587" on="0"/>
        <pt x="235" y="574" on="0"/>
        <pt x="232" y="569" on="0"/>
        <pt x="229" y="550" on="0"/>
        <pt x="228" y="546" on="1"/>
        <pt x="226" y="526" on="0"/>
        <pt x="226" y="508" on="1"/>
        <pt x="214" y="341" on="0"/>
        <pt x="214" y="122" on="1"/>
        <pt x="214" y="71" on="0"/>
        <pt x="243" y="45" on="0"/>
        <pt x="386" y="45" on="0"/>
        <pt x="441" y="95" on="0"/>
        <pt x="458" y="187" on="1"/>
        <pt x="502" y="192" on="1"/>
        <pt x="505" y="187" on="1"/>
        <pt x="487" y="96" on="0"/>
        <pt x="476" y="-3" on="1"/>
      </contour>
      <contour>
        <pt x="247" y="-93" on="1"/>
        <pt x="281" y="-67" on="0"/>
        <pt x="328" y="-67" on="0"/>
        <pt x="359" y="-106" on="0"/>
        <pt x="359" y="-138" on="1"/>
        <pt x="359" y="-187" on="0"/>
        <pt x="283" y="-266" on="0"/>
        <pt x="231" y="-293" on="1"/>
        <pt x="213" y="-278" on="1"/>
        <pt x="213" y="-268" on="1"/>
        <pt x="244" y="-249" on="0"/>
        <pt x="285" y="-194" on="0"/>
        <pt x="285" y="-169" on="1"/>
        <pt x="285" y="-131" on="0"/>
        <pt x="245" y="-107" on="1"/>
      </contour>
    </TTGlyph>
    <TTGlyph name="Ldot" xMin="68" yMin="-10" xMax="505" yMax="646">
      <contour>
        <pt x="471" y="-9" on="1"/>
        <pt x="297" y="0" on="0"/>
        <pt x="233" y="0" on="1"/>
        <pt x="136" y="0" on="0"/>
        <pt x="68" y="-10" on="1"/>
        <pt x="74" y="36" on="1"/>
        <pt x="113" y="42" on="0"/>
        <pt x="142" y="77" on="0"/>
        <pt x="142" y="120" on="1"/>
        <pt x="143" y="540" on="1"/>
        <pt x="143" y="572" on="0"/>
        <pt x="128" y="594" on="0"/>
        <pt x="106" y="594" on="1"/>
        <pt x="72" y="592" on="1"/>
        <pt x="70" y="596" on="1"/>
        <pt x="77" y="640" on="1"/>
        <pt x="151" y="637" on="0"/>
        <pt x="180" y="637" on="1"/>
        <pt x="220" y="637" on="0"/>
        <pt x="296" y="646" on="1"/>
        <pt x="292" y="601" on="1"/>
        <pt x="281" y="599" on="0"/>
        <pt x="264" y="596" on="0"/>
        <pt x="251" y="590" on="0"/>
        <pt x="242" y="587" on="0"/>
        <pt x="235" y="574" on="0"/>
        <pt x="232" y="569" on="0"/>
        <pt x="229" y="550" on="0"/>
        <pt x="228" y="546" on="1"/>
        <pt x="226" y="526" on="0"/>
        <pt x="226" y="508" on="1"/>
        <pt x="214" y="341" on="0"/>
        <pt x="214" y="122" on="1"/>
        <pt x="214" y="71" on="0"/>
        <pt x="243" y="45" on="0"/>
        <pt x="386" y="45" on="0"/>
        <pt x="441" y="95" on="0"/>
        <pt x="458" y="187" on="1"/>
        <pt x="502" y="192" on="1"/>
        <pt x="505" y="187" on="1"/>
        <pt x="487" y="96" on="0"/>
        <pt x="476" y="-3" on="1"/>
      </contour>
      <contour>
        <pt x="499" y="419" on="0"/>
        <pt x="464" y="383" on="0"/>
        <pt x="409" y="383" on="0"/>
        <pt x="380" y="416" on="0"/>
        <pt x="380" y="466" on="0"/>
        <pt x="414" y="502" on="0"/>
        <pt x="469" y="502" on="0"/>
        <pt x="499" y="469" on="0"/>
      </contour>
    </TTGlyph>
    <TTGlyph name="Lslash" xMin="61" yMin="-10" xMax="505" yMax="646">
      <contour>
        <pt x="471" y="-9" on="1"/>
        <pt x="297" y="0" on="0"/>
        <pt x="233" y="0" on="1"/>
        <pt x="136" y="0" on="0"/>
        <pt x="68" y="-10" on="1"/>
        <pt x="74" y="36" on="1"/>
        <pt x="113" y="42" on="0"/>
        <pt x="142" y="77" on="0"/>
        <pt x="142" y="120" on="1"/>
        <pt x="142" y="291" on="1"/>
        <pt x="75" y="258" on="1"/>
        <pt x="66" y="261" on="1"/>
        <pt x="61" y="293" on="1"/>
        <pt x="142" y="333" on="1"/>
        <pt x="143" y="540" on="1"/>
        <pt x="143" y="572" on="0"/>
        <pt x="128" y="594" on="0"/>
        <pt x="106" y="594" on="1"/>
        <pt x="72" y="592" on="1"/>
        <pt x="70" y="596" on="1"/>
        <pt x="77" y="640" on="1"/>
        <pt x="151" y="637" on="0"/>
        <pt x="180" y="637" on="1"/>
        <pt x="220" y="637" on="0"/>
        <pt x="296" y="646" on="1"/>
        <pt x="292" y="601" on="1"/>
        <pt x="281" y="599" on="0"/>
        <pt x="264" y="596" on="0"/>
        <pt x="251" y="590" on="0"/>
        <pt x="242" y="587" on="0"/>
        <pt x="235" y="574" on="0"/>
        <pt x="232" y="569" on="0"/>
        <pt x="229" y="550" on="0"/>
        <pt x="228" y="546" on="1"/>
        <pt x="225" y="520" on="0"/>
        <pt x="218" y="365" on="1"/>
        <pt x="398" y="454" on="1"/>
        <pt x="406" y="449" on="1"/>
        <pt x="411" y="418" on="1"/>
        <pt x="217" y="322" on="1"/>
        <pt x="214" y="245" on="0"/>
        <pt x="214" y="122" on="1"/>
        <pt x="214" y="71" on="0"/>
        <pt x="243" y="45" on="0"/>
        <pt x="386" y="45" on="0"/>
        <pt x="441" y="95" on="0"/>
        <pt x="458" y="187" on="1"/>
        <pt x="502" y="192" on="1"/>
        <pt x="505" y="187" on="1"/>
        <pt x="487" y="96" on="0"/>
        <pt x="476" y="-3" on="1"/>
      </contour>
    </TTGlyph>
    <TTGlyph name="M" xMin="46" yMin="-19" xMax="798" yMax="643">
      <contour>
        <pt x="198" y="520" on="1"/>
        <pt x="164" y="101" on="0"/>
        <pt x="164" y="44" on="0"/>
        <pt x="195" y="44" on="1"/>
        <pt x="236" y="45" on="1"/>
        <pt x="238" y="41" on="1"/>
        <pt x="229" y="-4" on="1"/>
        <pt x="165" y="0" on="0"/>
        <pt x="140" y="0" on="1"/>
        <pt x="96" y="0" on="0"/>
        <pt x="46" y="-8" on="1"/>
        <pt x="51" y="38" on="1"/>
        <pt x="83" y="42" on="0"/>
        <pt x="111" y="75" on="0"/>
        <pt x="115" y="115" on="1"/>
        <pt x="159" y="516" on="0"/>
        <pt x="159" y="573" on="0"/>
        <pt x="118" y="599" on="0"/>
        <pt x="72" y="602" on="1"/>
        <pt x="69" y="607" on="1"/>
        <pt x="77" y="642" on="1"/>
        <pt x="154" y="637" on="0"/>
        <pt x="186" y="637" on="1"/>
        <pt x="254" y="641" on="1"/>
        <pt x="339" y="368" on="0"/>
        <pt x="423" y="145" on="1"/>
        <pt x="428" y="145" on="1"/>
        <pt x="506" y="353" on="0"/>
        <pt x="601" y="639" on="1"/>
        <pt x="649" y="637" on="0"/>
        <pt x="667" y="637" on="1"/>
        <pt x="775" y="643" on="1"/>
        <pt x="777" y="639" on="1"/>
        <pt x="772" y="602" on="1"/>
        <pt x="729" y="597" on="0"/>
        <pt x="693" y="572" on="0"/>
        <pt x="693" y="547" on="1"/>
        <pt x="693" y="470" on="0"/>
        <pt x="719" y="139" on="1"/>
        <pt x="726" y="80" on="0"/>
        <pt x="744" y="44" on="0"/>
        <pt x="768" y="44" on="1"/>
        <pt x="796" y="46" on="1"/>
        <pt x="798" y="42" on="1"/>
        <pt x="789" y="-3" on="1"/>
        <pt x="730" y="0" on="0"/>
        <pt x="694" y="0" on="1"/>
        <pt x="590" y="-8" on="1"/>
        <pt x="594" y="38" on="1"/>
        <pt x="653" y="45" on="0"/>
        <pt x="653" y="88" on="1"/>
        <pt x="619" y="520" on="1"/>
        <pt x="614" y="520" on="1"/>
        <pt x="421" y="-12" on="1"/>
        <pt x="397" y="-19" on="1"/>
        <pt x="203" y="520" on="1"/>
      </contour>
    </TTGlyph>
    <TTGlyph name="N" xMin="54" yMin="-40" xMax="686" yMax="645">
      <contour>
        <pt x="556" y="145" on="1"/>
        <pt x="556" y="550" on="1"/>
        <pt x="556" y="593" on="0"/>
        <pt x="523" y="593" on="1"/>
        <pt x="485" y="592" on="1"/>
        <pt x="483" y="596" on="1"/>
        <pt x="492" y="641" on="1"/>
        <pt x="553" y="637" on="0"/>
        <pt x="580" y="637" on="1"/>
        <pt x="624" y="637" on="0"/>
        <pt x="686" y="645" on="1"/>
        <pt x="681" y="599" on="1"/>
        <pt x="646" y="594" on="0"/>
        <pt x="614" y="565" on="0"/>
        <pt x="613" y="536" on="1"/>
        <pt x="599" y="-26" on="1"/>
        <pt x="570" y="-40" on="1"/>
        <pt x="389" y="241" on="0"/>
        <pt x="198" y="511" on="1"/>
        <pt x="193" y="511" on="1"/>
        <pt x="188" y="84" on="1"/>
        <pt x="188" y="62" on="0"/>
        <pt x="202" y="44" on="0"/>
        <pt x="219" y="44" on="1"/>
        <pt x="270" y="45" on="1"/>
        <pt x="272" y="41" on="1"/>
        <pt x="263" y="-4" on="1"/>
        <pt x="200" y="0" on="0"/>
        <pt x="170" y="0" on="1"/>
        <pt x="122" y="0" on="0"/>
        <pt x="64" y="-8" on="1"/>
        <pt x="69" y="38" on="1"/>
        <pt x="130" y="45" on="0"/>
        <pt x="131" y="101" on="1"/>
        <pt x="144" y="538" on="1"/>
        <pt x="144" y="569" on="0"/>
        <pt x="107" y="595" on="0"/>
        <pt x="57" y="600" on="1"/>
        <pt x="54" y="605" on="1"/>
        <pt x="62" y="642" on="1"/>
        <pt x="120" y="637" on="0"/>
        <pt x="148" y="637" on="1"/>
        <pt x="215" y="641" on="1"/>
        <pt x="363" y="411" on="0"/>
        <pt x="551" y="145" on="1"/>
      </contour>
    </TTGlyph>
    <TTGlyph name="Nacute" xMin="54" yMin="-40" xMax="686" yMax="841">
      <contour>
        <pt x="556" y="145" on="1"/>
        <pt x="556" y="550" on="1"/>
        <pt x="556" y="593" on="0"/>
        <pt x="523" y="593" on="1"/>
        <pt x="485" y="592" on="1"/>
        <pt x="483" y="596" on="1"/>
        <pt x="492" y="641" on="1"/>
        <pt x="553" y="637" on="0"/>
        <pt x="580" y="637" on="1"/>
        <pt x="624" y="637" on="0"/>
        <pt x="686" y="645" on="1"/>
        <pt x="681" y="599" on="1"/>
        <pt x="646" y="594" on="0"/>
        <pt x="614" y="565" on="0"/>
        <pt x="613" y="536" on="1"/>
        <pt x="599" y="-26" on="1"/>
        <pt x="570" y="-40" on="1"/>
        <pt x="389" y="241" on="0"/>
        <pt x="198" y="511" on="1"/>
        <pt x="193" y="511" on="1"/>
        <pt x="188" y="84" on="1"/>
        <pt x="188" y="62" on="0"/>
        <pt x="202" y="44" on="0"/>
        <pt x="219" y="44" on="1"/>
        <pt x="270" y="45" on="1"/>
        <pt x="272" y="41" on="1"/>
        <pt x="263" y="-4" on="1"/>
        <pt x="200" y="0" on="0"/>
        <pt x="170" y="0" on="1"/>
        <pt x="122" y="0" on="0"/>
        <pt x="64" y="-8" on="1"/>
        <pt x="69" y="38" on="1"/>
        <pt x="130" y="45" on="0"/>
        <pt x="131" y="101" on="1"/>
        <pt x="144" y="538" on="1"/>
        <pt x="144" y="569" on="0"/>
        <pt x="107" y="595" on="0"/>
        <pt x="57" y="600" on="1"/>
        <pt x="54" y="605" on="1"/>
        <pt x="62" y="642" on="1"/>
        <pt x="120" y="637" on="0"/>
        <pt x="148" y="637" on="1"/>
        <pt x="215" y="641" on="1"/>
        <pt x="363" y="411" on="0"/>
        <pt x="551" y="145" on="1"/>
      </contour>
      <contour>
        <pt x="531" y="787" on="1"/>
        <pt x="527" y="777" on="1"/>
        <pt x="426" y="743" on="0"/>
        <pt x="321" y="703" on="1"/>
        <pt x="313" y="708" on="1"/>
        <pt x="307" y="732" on="1"/>
        <pt x="506" y="841" on="1"/>
        <pt x="515" y="835" on="1"/>
      </contour>
    </TTGlyph>
    <TTGlyph name="Ncaron" xMin="54" yMin="-40" xMax="686" yMax="838">
      <contour>
        <pt x="556" y="145" on="1"/>
        <pt x="556" y="550" on="1"/>
        <pt x="556" y="593" on="0"/>
        <pt x="523" y="593" on="1"/>
        <pt x="485" y="592" on="1"/>
        <pt x="483" y="596" on="1"/>
        <pt x="492" y="641" on="1"/>
        <pt x="553" y="637" on="0"/>
        <pt x="580" y="637" on="1"/>
        <pt x="624" y="637" on="0"/>
        <pt x="686" y="645" on="1"/>
        <pt x="681" y="599" on="1"/>
        <pt x="646" y="594" on="0"/>
        <pt x="614" y="565" on="0"/>
        <pt x="613" y="536" on="1"/>
        <pt x="599" y="-26" on="1"/>
        <pt x="570" y="-40" on="1"/>
        <pt x="389" y="241" on="0"/>
        <pt x="198" y="511" on="1"/>
        <pt x="193" y="511" on="1"/>
        <pt x="188" y="84" on="1"/>
        <pt x="188" y="62" on="0"/>
        <pt x="202" y="44" on="0"/>
        <pt x="219" y="44" on="1"/>
        <pt x="270" y="45" on="1"/>
        <pt x="272" y="41" on="1"/>
        <pt x="263" y="-4" on="1"/>
        <pt x="200" y="0" on="0"/>
        <pt x="170" y="0" on="1"/>
        <pt x="122" y="0" on="0"/>
        <pt x="64" y="-8" on="1"/>
        <pt x="69" y="38" on="1"/>
        <pt x="130" y="45" on="0"/>
        <pt x="131" y="101" on="1"/>
        <pt x="144" y="538" on="1"/>
        <pt x="144" y="569" on="0"/>
        <pt x="107" y="595" on="0"/>
        <pt x="57" y="600" on="1"/>
        <pt x="54" y="605" on="1"/>
        <pt x="62" y="642" on="1"/>
        <pt x="120" y="637" on="0"/>
        <pt x="148" y="637" on="1"/>
        <pt x="215" y="641" on="1"/>
        <pt x="363" y="411" on="0"/>
        <pt x="551" y="145" on="1"/>
      </contour>
      <contour>
        <pt x="502" y="837" on="1"/>
        <pt x="516" y="815" on="1"/>
        <pt x="378" y="704" on="1"/>
        <pt x="364" y="704" on="1"/>
        <pt x="291" y="766" on="0"/>
        <pt x="226" y="815" on="1"/>
        <pt x="240" y="837" on="1"/>
        <pt x="249" y="838" on="1"/>
        <pt x="316" y="799" on="0"/>
        <pt x="371" y="773" on="1"/>
        <pt x="423" y="797" on="0"/>
        <pt x="493" y="838" on="1"/>
      </contour>
    </TTGlyph>
    <TTGlyph name="Ncommaaccent" xMin="54" yMin="-293" xMax="686" yMax="645">
      <contour>
        <pt x="556" y="145" on="1"/>
        <pt x="556" y="550" on="1"/>
        <pt x="556" y="593" on="0"/>
        <pt x="523" y="593" on="1"/>
        <pt x="485" y="592" on="1"/>
        <pt x="483" y="596" on="1"/>
        <pt x="492" y="641" on="1"/>
        <pt x="553" y="637" on="0"/>
        <pt x="580" y="637" on="1"/>
        <pt x="624" y="637" on="0"/>
        <pt x="686" y="645" on="1"/>
        <pt x="681" y="599" on="1"/>
        <pt x="646" y="594" on="0"/>
        <pt x="614" y="565" on="0"/>
        <pt x="613" y="536" on="1"/>
        <pt x="599" y="-26" on="1"/>
        <pt x="570" y="-40" on="1"/>
        <pt x="389" y="241" on="0"/>
        <pt x="198" y="511" on="1"/>
        <pt x="193" y="511" on="1"/>
        <pt x="188" y="84" on="1"/>
        <pt x="188" y="62" on="0"/>
        <pt x="202" y="44" on="0"/>
        <pt x="219" y="44" on="1"/>
        <pt x="270" y="45" on="1"/>
        <pt x="272" y="41" on="1"/>
        <pt x="263" y="-4" on="1"/>
        <pt x="200" y="0" on="0"/>
        <pt x="170" y="0" on="1"/>
        <pt x="122" y="0" on="0"/>
        <pt x="64" y="-8" on="1"/>
        <pt x="69" y="38" on="1"/>
        <pt x="130" y="45" on="0"/>
        <pt x="131" y="101" on="1"/>
        <pt x="144" y="538" on="1"/>
        <pt x="144" y="569" on="0"/>
        <pt x="107" y="595" on="0"/>
        <pt x="57" y="600" on="1"/>
        <pt x="54" y="605" on="1"/>
        <pt x="62" y="642" on="1"/>
        <pt x="120" y="637" on="0"/>
        <pt x="148" y="637" on="1"/>
        <pt x="215" y="641" on="1"/>
        <pt x="363" y="411" on="0"/>
        <pt x="551" y="145" on="1"/>
      </contour>
      <contour>
        <pt x="313" y="-93" on="1"/>
        <pt x="347" y="-67" on="0"/>
        <pt x="394" y="-67" on="0"/>
        <pt x="425" y="-106" on="0"/>
        <pt x="425" y="-138" on="1"/>
        <pt x="425" y="-187" on="0"/>
        <pt x="349" y="-266" on="0"/>
        <pt x="297" y="-293" on="1"/>
        <pt x="279" y="-278" on="1"/>
        <pt x="279" y="-268" on="1"/>
        <pt x="310" y="-249" on="0"/>
        <pt x="351" y="-194" on="0"/>
        <pt x="351" y="-169" on="1"/>
        <pt x="351" y="-131" on="0"/>
        <pt x="311" y="-107" on="1"/>
      </contour>
    </TTGlyph>
    <TTGlyph name="Ntilde" xMin="54" yMin="-40" xMax="686" yMax="820">
      <contour>
        <pt x="556" y="145" on="1"/>
        <pt x="556" y="550" on="1"/>
        <pt x="556" y="593" on="0"/>
        <pt x="523" y="593" on="1"/>
        <pt x="485" y="592" on="1"/>
        <pt x="483" y="596" on="1"/>
        <pt x="492" y="641" on="1"/>
        <pt x="553" y="637" on="0"/>
        <pt x="580" y="637" on="1"/>
        <pt x="624" y="637" on="0"/>
        <pt x="686" y="645" on="1"/>
        <pt x="681" y="599" on="1"/>
        <pt x="646" y="594" on="0"/>
        <pt x="614" y="565" on="0"/>
        <pt x="613" y="536" on="1"/>
        <pt x="599" y="-26" on="1"/>
        <pt x="570" y="-40" on="1"/>
        <pt x="389" y="241" on="0"/>
        <pt x="198" y="511" on="1"/>
        <pt x="193" y="511" on="1"/>
        <pt x="188" y="84" on="1"/>
        <pt x="188" y="62" on="0"/>
        <pt x="202" y="44" on="0"/>
        <pt x="219" y="44" on="1"/>
        <pt x="270" y="45" on="1"/>
        <pt x="272" y="41" on="1"/>
        <pt x="263" y="-4" on="1"/>
        <pt x="200" y="0" on="0"/>
        <pt x="170" y="0" on="1"/>
        <pt x="122" y="0" on="0"/>
        <pt x="64" y="-8" on="1"/>
        <pt x="69" y="38" on="1"/>
        <pt x="130" y="45" on="0"/>
        <pt x="131" y="101" on="1"/>
        <pt x="144" y="538" on="1"/>
        <pt x="144" y="569" on="0"/>
        <pt x="107" y="595" on="0"/>
        <pt x="57" y="600" on="1"/>
        <pt x="54" y="605" on="1"/>
        <pt x="62" y="642" on="1"/>
        <pt x="120" y="637" on="0"/>
        <pt x="148" y="637" on="1"/>
        <pt x="215" y="641" on="1"/>
        <pt x="363" y="411" on="0"/>
        <pt x="551" y="145" on="1"/>
      </contour>
      <contour>
        <pt x="317" y="808" on="0"/>
        <pt x="433" y="775" on="0"/>
        <pt x="444" y="775" on="1"/>
        <pt x="466" y="775" on="0"/>
        <pt x="498" y="809" on="1"/>
        <pt x="509" y="820" on="1"/>
        <pt x="515" y="820" on="1"/>
        <pt x="537" y="799" on="1"/>
        <pt x="537" y="794" on="1"/>
        <pt x="461" y="715" on="1"/>
        <pt x="445" y="711" on="1"/>
        <pt x="428" y="711" on="0"/>
        <pt x="312" y="744" on="0"/>
        <pt x="300" y="744" on="1"/>
        <pt x="277" y="744" on="0"/>
        <pt x="246" y="710" on="1"/>
        <pt x="236" y="699" on="1"/>
        <pt x="230" y="699" on="1"/>
        <pt x="208" y="720" on="1"/>
        <pt x="208" y="725" on="1"/>
        <pt x="284" y="804" on="1"/>
        <pt x="300" y="808" on="1"/>
      </contour>
    </TTGlyph>
    <TTGlyph name="O" xMin="40" yMin="-12" xMax="652" yMax="649">
      <contour>
        <pt x="126" y="201" on="0"/>
        <pt x="250" y="39" on="0"/>
        <pt x="443" y="39" on="0"/>
        <pt x="563" y="184" on="0"/>
        <pt x="563" y="427" on="0"/>
        <pt x="436" y="589" on="0"/>
        <pt x="242" y="589" on="0"/>
        <pt x="126" y="445" on="0"/>
      </contour>
      <contour>
        <pt x="317" y="-12" on="1"/>
        <pt x="194" y="-12" on="0"/>
        <pt x="40" y="160" on="0"/>
        <pt x="40" y="445" on="0"/>
        <pt x="230" y="649" on="0"/>
        <pt x="494" y="649" on="0"/>
        <pt x="652" y="477" on="0"/>
        <pt x="652" y="192" on="0"/>
        <pt x="459" y="-12" on="0"/>
      </contour>
    </TTGlyph>
    <TTGlyph name="OE" xMin="41" yMin="-12" xMax="902" yMax="649">
      <contour>
        <pt x="583" y="64" on="0"/>
        <pt x="608" y="45" on="0"/>
        <pt x="746" y="45" on="0"/>
        <pt x="816" y="62" on="0"/>
        <pt x="847" y="109" on="0"/>
        <pt x="855" y="167" on="1"/>
        <pt x="899" y="172" on="1"/>
        <pt x="902" y="167" on="1"/>
        <pt x="884" y="84" on="0"/>
        <pt x="875" y="-1" on="1"/>
        <pt x="870" y="-7" on="1"/>
        <pt x="660" y="1" on="0"/>
        <pt x="510" y="1" on="0"/>
        <pt x="342" y="-12" on="0"/>
        <pt x="311" y="-12" on="1"/>
        <pt x="192" y="-12" on="0"/>
        <pt x="41" y="161" on="0"/>
        <pt x="41" y="445" on="0"/>
        <pt x="227" y="649" on="0"/>
        <pt x="363" y="649" on="1"/>
        <pt x="395" y="649" on="0"/>
        <pt x="539" y="635" on="0"/>
        <pt x="582" y="635" on="1"/>
        <pt x="785" y="635" on="0"/>
        <pt x="886" y="649" on="1"/>
        <pt x="889" y="643" on="1"/>
        <pt x="872" y="569" on="0"/>
        <pt x="866" y="477" on="1"/>
        <pt x="818" y="473" on="1"/>
        <pt x="820" y="502" on="0"/>
        <pt x="820" y="516" on="1"/>
        <pt x="820" y="565" on="0"/>
        <pt x="772" y="587" on="0"/>
        <pt x="617" y="587" on="0"/>
        <pt x="598" y="576" on="0"/>
        <pt x="596" y="548" on="1"/>
        <pt x="588" y="354" on="1"/>
        <pt x="692" y="353" on="1"/>
        <pt x="814" y="364" on="1"/>
        <pt x="818" y="359" on="1"/>
        <pt x="804" y="300" on="1"/>
        <pt x="718" y="303" on="0"/>
        <pt x="664" y="303" on="1"/>
        <pt x="586" y="296" on="1"/>
        <pt x="583" y="105" on="1"/>
      </contour>
      <contour>
        <pt x="127" y="201" on="0"/>
        <pt x="246" y="40" on="0"/>
        <pt x="439" y="40" on="0"/>
        <pt x="518" y="116" on="0"/>
        <pt x="520" y="208" on="1"/>
        <pt x="521" y="467" on="1"/>
        <pt x="521" y="541" on="0"/>
        <pt x="447" y="591" on="0"/>
        <pt x="245" y="591" on="0"/>
        <pt x="127" y="445" on="0"/>
      </contour>
    </TTGlyph>
    <TTGlyph name="Oacute" xMin="40" yMin="-12" xMax="652" yMax="841">
      <contour>
        <pt x="126" y="201" on="0"/>
        <pt x="250" y="39" on="0"/>
        <pt x="443" y="39" on="0"/>
        <pt x="563" y="184" on="0"/>
        <pt x="563" y="427" on="0"/>
        <pt x="436" y="589" on="0"/>
        <pt x="242" y="589" on="0"/>
        <pt x="126" y="445" on="0"/>
      </contour>
      <contour>
        <pt x="317" y="-12" on="1"/>
        <pt x="194" y="-12" on="0"/>
        <pt x="40" y="160" on="0"/>
        <pt x="40" y="445" on="0"/>
        <pt x="230" y="649" on="0"/>
        <pt x="494" y="649" on="0"/>
        <pt x="652" y="477" on="0"/>
        <pt x="652" y="192" on="0"/>
        <pt x="459" y="-12" on="0"/>
      </contour>
      <contour>
        <pt x="502" y="787" on="1"/>
        <pt x="498" y="777" on="1"/>
        <pt x="397" y="743" on="0"/>
        <pt x="292" y="703" on="1"/>
        <pt x="284" y="708" on="1"/>
        <pt x="278" y="732" on="1"/>
        <pt x="477" y="841" on="1"/>
        <pt x="486" y="835" on="1"/>
      </contour>
    </TTGlyph>
    <TTGlyph name="Obreve" xMin="40" yMin="-12" xMax="652" yMax="857">
      <contour>
        <pt x="126" y="201" on="0"/>
        <pt x="250" y="39" on="0"/>
        <pt x="443" y="39" on="0"/>
        <pt x="563" y="184" on="0"/>
        <pt x="563" y="427" on="0"/>
        <pt x="436" y="589" on="0"/>
        <pt x="242" y="589" on="0"/>
        <pt x="126" y="445" on="0"/>
      </contour>
      <contour>
        <pt x="317" y="-12" on="1"/>
        <pt x="194" y="-12" on="0"/>
        <pt x="40" y="160" on="0"/>
        <pt x="40" y="445" on="0"/>
        <pt x="230" y="649" on="0"/>
        <pt x="494" y="649" on="0"/>
        <pt x="652" y="477" on="0"/>
        <pt x="652" y="192" on="0"/>
        <pt x="459" y="-12" on="0"/>
      </contour>
      <contour>
        <pt x="254" y="791" on="0"/>
        <pt x="396" y="791" on="0"/>
        <pt x="421" y="857" on="1"/>
        <pt x="429" y="857" on="1"/>
        <pt x="445" y="847" on="1"/>
        <pt x="433" y="799" on="0"/>
        <pt x="373" y="733" on="0"/>
        <pt x="277" y="733" on="0"/>
        <pt x="217" y="799" on="0"/>
        <pt x="205" y="847" on="1"/>
        <pt x="221" y="857" on="1"/>
        <pt x="229" y="857" on="1"/>
      </contour>
    </TTGlyph>
    <TTGlyph name="Ocircumflex" xMin="40" yMin="-12" xMax="652" yMax="846">
      <contour>
        <pt x="126" y="201" on="0"/>
        <pt x="250" y="39" on="0"/>
        <pt x="443" y="39" on="0"/>
        <pt x="563" y="184" on="0"/>
        <pt x="563" y="427" on="0"/>
        <pt x="436" y="589" on="0"/>
        <pt x="242" y="589" on="0"/>
        <pt x="126" y="445" on="0"/>
      </contour>
      <contour>
        <pt x="317" y="-12" on="1"/>
        <pt x="194" y="-12" on="0"/>
        <pt x="40" y="160" on="0"/>
        <pt x="40" y="445" on="0"/>
        <pt x="230" y="649" on="0"/>
        <pt x="494" y="649" on="0"/>
        <pt x="652" y="477" on="0"/>
        <pt x="652" y="192" on="0"/>
        <pt x="459" y="-12" on="0"/>
      </contour>
      <contour>
        <pt x="211" y="713" on="1"/>
        <pt x="197" y="735" on="1"/>
        <pt x="335" y="846" on="1"/>
        <pt x="349" y="846" on="1"/>
        <pt x="422" y="784" on="0"/>
        <pt x="487" y="735" on="1"/>
        <pt x="473" y="713" on="1"/>
        <pt x="464" y="712" on="1"/>
        <pt x="397" y="751" on="0"/>
        <pt x="342" y="777" on="1"/>
        <pt x="290" y="753" on="0"/>
        <pt x="220" y="712" on="1"/>
      </contour>
    </TTGlyph>
    <TTGlyph name="Odieresis" xMin="40" yMin="-12" xMax="652" yMax="818">
      <contour>
        <pt x="126" y="201" on="0"/>
        <pt x="250" y="39" on="0"/>
        <pt x="443" y="39" on="0"/>
        <pt x="563" y="184" on="0"/>
        <pt x="563" y="427" on="0"/>
        <pt x="436" y="589" on="0"/>
        <pt x="242" y="589" on="0"/>
        <pt x="126" y="445" on="0"/>
      </contour>
      <contour>
        <pt x="317" y="-12" on="1"/>
        <pt x="194" y="-12" on="0"/>
        <pt x="40" y="160" on="0"/>
        <pt x="40" y="445" on="0"/>
        <pt x="230" y="649" on="0"/>
        <pt x="494" y="649" on="0"/>
        <pt x="652" y="477" on="0"/>
        <pt x="652" y="192" on="0"/>
        <pt x="459" y="-12" on="0"/>
      </contour>
      <contour>
        <pt x="470" y="754" on="0"/>
        <pt x="441" y="725" on="0"/>
        <pt x="401" y="725" on="0"/>
        <pt x="379" y="751" on="0"/>
        <pt x="379" y="789" on="0"/>
        <pt x="408" y="818" on="0"/>
        <pt x="448" y="818" on="0"/>
        <pt x="470" y="793" on="0"/>
      </contour>
      <contour>
        <pt x="304" y="754" on="0"/>
        <pt x="275" y="725" on="0"/>
        <pt x="235" y="725" on="0"/>
        <pt x="213" y="751" on="0"/>
        <pt x="213" y="789" on="0"/>
        <pt x="242" y="818" on="0"/>
        <pt x="282" y="818" on="0"/>
        <pt x="304" y="793" on="0"/>
      </contour>
    </TTGlyph>
    <TTGlyph name="Ograve" xMin="40" yMin="-12" xMax="652" yMax="841">
      <contour>
        <pt x="126" y="201" on="0"/>
        <pt x="250" y="39" on="0"/>
        <pt x="443" y="39" on="0"/>
        <pt x="563" y="184" on="0"/>
        <pt x="563" y="427" on="0"/>
        <pt x="436" y="589" on="0"/>
        <pt x="242" y="589" on="0"/>
        <pt x="126" y="445" on="0"/>
      </contour>
      <contour>
        <pt x="317" y="-12" on="1"/>
        <pt x="194" y="-12" on="0"/>
        <pt x="40" y="160" on="0"/>
        <pt x="40" y="445" on="0"/>
        <pt x="230" y="649" on="0"/>
        <pt x="494" y="649" on="0"/>
        <pt x="652" y="477" on="0"/>
        <pt x="652" y="192" on="0"/>
        <pt x="459" y="-12" on="0"/>
      </contour>
      <contour>
        <pt x="193" y="777" on="1"/>
        <pt x="189" y="787" on="1"/>
        <pt x="205" y="835" on="1"/>
        <pt x="214" y="841" on="1"/>
        <pt x="319" y="781" on="0"/>
        <pt x="413" y="732" on="1"/>
        <pt x="407" y="708" on="1"/>
        <pt x="399" y="703" on="1"/>
      </contour>
    </TTGlyph>
    <TTGlyph name="Ohungarumlaut" xMin="40" yMin="-12" xMax="652" yMax="837">
      <contour>
        <pt x="126" y="201" on="0"/>
        <pt x="250" y="39" on="0"/>
        <pt x="443" y="39" on="0"/>
        <pt x="563" y="184" on="0"/>
        <pt x="563" y="427" on="0"/>
        <pt x="436" y="589" on="0"/>
        <pt x="242" y="589" on="0"/>
        <pt x="126" y="445" on="0"/>
      </contour>
      <contour>
        <pt x="317" y="-12" on="1"/>
        <pt x="194" y="-12" on="0"/>
        <pt x="40" y="160" on="0"/>
        <pt x="40" y="445" on="0"/>
        <pt x="230" y="649" on="0"/>
        <pt x="494" y="649" on="0"/>
        <pt x="652" y="477" on="0"/>
        <pt x="652" y="192" on="0"/>
        <pt x="459" y="-12" on="0"/>
      </contour>
      <contour>
        <pt x="430" y="790" on="1"/>
        <pt x="427" y="781" on="1"/>
        <pt x="347" y="741" on="0"/>
        <pt x="263" y="694" on="1"/>
        <pt x="255" y="699" on="1"/>
        <pt x="246" y="720" on="1"/>
        <pt x="399" y="837" on="1"/>
        <pt x="408" y="833" on="1"/>
      </contour>
      <contour>
        <pt x="570" y="781" on="1"/>
        <pt x="567" y="772" on="1"/>
        <pt x="487" y="732" on="0"/>
        <pt x="403" y="685" on="1"/>
        <pt x="396" y="689" on="1"/>
        <pt x="386" y="710" on="1"/>
        <pt x="539" y="828" on="1"/>
        <pt x="548" y="823" on="1"/>
      </contour>
    </TTGlyph>
    <TTGlyph name="Omacron" xMin="40" yMin="-12" xMax="652" yMax="778">
      <contour>
        <pt x="126" y="201" on="0"/>
        <pt x="250" y="39" on="0"/>
        <pt x="443" y="39" on="0"/>
        <pt x="563" y="184" on="0"/>
        <pt x="563" y="427" on="0"/>
        <pt x="436" y="589" on="0"/>
        <pt x="242" y="589" on="0"/>
        <pt x="126" y="445" on="0"/>
      </contour>
      <contour>
        <pt x="317" y="-12" on="1"/>
        <pt x="194" y="-12" on="0"/>
        <pt x="40" y="160" on="0"/>
        <pt x="40" y="445" on="0"/>
        <pt x="230" y="649" on="0"/>
        <pt x="494" y="649" on="0"/>
        <pt x="652" y="477" on="0"/>
        <pt x="652" y="192" on="0"/>
        <pt x="459" y="-12" on="0"/>
      </contour>
      <contour>
        <pt x="485" y="778" on="1"/>
        <pt x="491" y="768" on="1"/>
        <pt x="484" y="721" on="1"/>
        <pt x="198" y="719" on="1"/>
        <pt x="192" y="728" on="1"/>
        <pt x="202" y="773" on="1"/>
        <pt x="297" y="772" on="0"/>
        <pt x="356" y="772" on="1"/>
      </contour>
    </TTGlyph>
    <TTGlyph name="Omega" xMin="42" yMin="-6" xMax="804" yMax="649">
      <contour>
        <pt x="557" y="102" on="0"/>
        <pt x="637" y="250" on="0"/>
        <pt x="637" y="451" on="0"/>
        <pt x="518" y="589" on="0"/>
        <pt x="323" y="589" on="0"/>
        <pt x="200" y="463" on="0"/>
        <pt x="200" y="265" on="0"/>
        <pt x="290" y="85" on="0"/>
        <pt x="369" y="24" on="1"/>
        <pt x="362" y="1" on="1"/>
        <pt x="321" y="8" on="1"/>
        <pt x="77" y="-6" on="1"/>
        <pt x="61" y="10" on="1"/>
        <pt x="59" y="81" on="0"/>
        <pt x="42" y="169" on="1"/>
        <pt x="80" y="174" on="1"/>
        <pt x="91" y="106" on="0"/>
        <pt x="133" y="56" on="0"/>
        <pt x="182" y="56" on="1"/>
        <pt x="274" y="56" on="1"/>
        <pt x="199" y="115" on="0"/>
        <pt x="114" y="272" on="0"/>
        <pt x="114" y="353" on="1"/>
        <pt x="114" y="477" on="0"/>
        <pt x="300" y="649" on="0"/>
        <pt x="563" y="649" on="0"/>
        <pt x="726" y="493" on="0"/>
        <pt x="726" y="369" on="1"/>
        <pt x="726" y="278" on="0"/>
        <pt x="634" y="110" on="0"/>
        <pt x="555" y="56" on="1"/>
        <pt x="662" y="56" on="1"/>
        <pt x="710" y="56" on="0"/>
        <pt x="753" y="103" on="0"/>
        <pt x="764" y="169" on="1"/>
        <pt x="804" y="174" on="1"/>
        <pt x="784" y="82" on="0"/>
        <pt x="783" y="10" on="1"/>
        <pt x="767" y="-6" on="1"/>
        <pt x="513" y="8" on="1"/>
        <pt x="472" y="2" on="1"/>
        <pt x="465" y="23" on="1"/>
      </contour>
    </TTGlyph>
    <TTGlyph name="Oslash" xMin="40" yMin="-98" xMax="652" yMax="708">
      <contour>
        <pt x="40" y="297" on="1"/>
        <pt x="40" y="445" on="0"/>
        <pt x="230" y="649" on="0"/>
        <pt x="369" y="649" on="1"/>
        <pt x="428" y="649" on="0"/>
        <pt x="478" y="628" on="1"/>
        <pt x="520" y="708" on="1"/>
        <pt x="549" y="701" on="1"/>
        <pt x="552" y="689" on="1"/>
        <pt x="511" y="613" on="1"/>
        <pt x="577" y="575" on="0"/>
        <pt x="652" y="433" on="0"/>
        <pt x="652" y="341" on="1"/>
        <pt x="652" y="192" on="0"/>
        <pt x="459" y="-12" on="0"/>
        <pt x="317" y="-12" on="1"/>
        <pt x="254" y="-12" on="0"/>
        <pt x="196" y="14" on="1"/>
        <pt x="136" y="-98" on="1"/>
        <pt x="109" y="-92" on="1"/>
        <pt x="107" y="-82" on="1"/>
        <pt x="166" y="31" on="1"/>
        <pt x="106" y="70" on="0"/>
        <pt x="40" y="209" on="0"/>
      </contour>
      <contour>
        <pt x="348" y="39" on="1"/>
        <pt x="443" y="39" on="0"/>
        <pt x="563" y="184" on="0"/>
        <pt x="563" y="299" on="1"/>
        <pt x="563" y="456" on="0"/>
        <pt x="471" y="538" on="1"/>
        <pt x="229" y="78" on="1"/>
        <pt x="282" y="39" on="0"/>
      </contour>
      <contour>
        <pt x="126" y="329" on="1"/>
        <pt x="126" y="182" on="0"/>
        <pt x="203" y="102" on="1"/>
        <pt x="442" y="559" on="1"/>
        <pt x="393" y="589" on="0"/>
        <pt x="335" y="589" on="1"/>
        <pt x="242" y="589" on="0"/>
        <pt x="126" y="445" on="0"/>
      </contour>
    </TTGlyph>
    <TTGlyph name="Oslashacute" xMin="40" yMin="-98" xMax="652" yMax="841">
      <contour>
        <pt x="40" y="297" on="1"/>
        <pt x="40" y="445" on="0"/>
        <pt x="230" y="649" on="0"/>
        <pt x="369" y="649" on="1"/>
        <pt x="428" y="649" on="0"/>
        <pt x="478" y="628" on="1"/>
        <pt x="520" y="708" on="1"/>
        <pt x="549" y="701" on="1"/>
        <pt x="552" y="689" on="1"/>
        <pt x="511" y="613" on="1"/>
        <pt x="577" y="575" on="0"/>
        <pt x="652" y="433" on="0"/>
        <pt x="652" y="341" on="1"/>
        <pt x="652" y="192" on="0"/>
        <pt x="459" y="-12" on="0"/>
        <pt x="317" y="-12" on="1"/>
        <pt x="254" y="-12" on="0"/>
        <pt x="196" y="14" on="1"/>
        <pt x="136" y="-98" on="1"/>
        <pt x="109" y="-92" on="1"/>
        <pt x="107" y="-82" on="1"/>
        <pt x="166" y="31" on="1"/>
        <pt x="106" y="70" on="0"/>
        <pt x="40" y="209" on="0"/>
      </contour>
      <contour>
        <pt x="348" y="39" on="1"/>
        <pt x="443" y="39" on="0"/>
        <pt x="563" y="184" on="0"/>
        <pt x="563" y="299" on="1"/>
        <pt x="563" y="456" on="0"/>
        <pt x="471" y="538" on="1"/>
        <pt x="229" y="78" on="1"/>
        <pt x="282" y="39" on="0"/>
      </contour>
      <contour>
        <pt x="126" y="329" on="1"/>
        <pt x="126" y="182" on="0"/>
        <pt x="203" y="102" on="1"/>
        <pt x="442" y="559" on="1"/>
        <pt x="393" y="589" on="0"/>
        <pt x="335" y="589" on="1"/>
        <pt x="242" y="589" on="0"/>
        <pt x="126" y="445" on="0"/>
      </contour>
      <contour>
        <pt x="479" y="787" on="1"/>
        <pt x="475" y="777" on="1"/>
        <pt x="374" y="743" on="0"/>
        <pt x="269" y="703" on="1"/>
        <pt x="261" y="708" on="1"/>
        <pt x="255" y="732" on="1"/>
        <pt x="454" y="841" on="1"/>
        <pt x="463" y="835" on="1"/>
      </contour>
    </TTGlyph>
    <TTGlyph name="Otilde" xMin="40" yMin="-12" xMax="652" yMax="820">
      <contour>
        <pt x="126" y="201" on="0"/>
        <pt x="250" y="39" on="0"/>
        <pt x="443" y="39" on="0"/>
        <pt x="563" y="184" on="0"/>
        <pt x="563" y="427" on="0"/>
        <pt x="436" y="589" on="0"/>
        <pt x="242" y="589" on="0"/>
        <pt x="126" y="445" on="0"/>
      </contour>
      <contour>
        <pt x="317" y="-12" on="1"/>
        <pt x="194" y="-12" on="0"/>
        <pt x="40" y="160" on="0"/>
        <pt x="40" y="445" on="0"/>
        <pt x="230" y="649" on="0"/>
        <pt x="494" y="649" on="0"/>
        <pt x="652" y="477" on="0"/>
        <pt x="652" y="192" on="0"/>
        <pt x="459" y="-12" on="0"/>
      </contour>
      <contour>
        <pt x="288" y="808" on="0"/>
        <pt x="404" y="775" on="0"/>
        <pt x="416" y="775" on="1"/>
        <pt x="437" y="775" on="0"/>
        <pt x="470" y="809" on="1"/>
        <pt x="480" y="820" on="1"/>
        <pt x="486" y="820" on="1"/>
        <pt x="508" y="799" on="1"/>
        <pt x="508" y="794" on="1"/>
        <pt x="432" y="715" on="1"/>
        <pt x="416" y="711" on="1"/>
        <pt x="399" y="711" on="0"/>
        <pt x="283" y="744" on="0"/>
        <pt x="271" y="744" on="1"/>
        <pt x="248" y="744" on="0"/>
        <pt x="218" y="710" on="1"/>
        <pt x="207" y="699" on="1"/>
        <pt x="201" y="699" on="1"/>
        <pt x="179" y="720" on="1"/>
        <pt x="179" y="725" on="1"/>
        <pt x="255" y="804" on="1"/>
        <pt x="271" y="808" on="1"/>
      </contour>
    </TTGlyph>
    <TTGlyph name="P" xMin="63" yMin="-8" xMax="528" yMax="641">
      <contour>
        <pt x="418" y="641" on="0"/>
        <pt x="528" y="549" on="0"/>
        <pt x="528" y="378" on="0"/>
        <pt x="388" y="244" on="0"/>
        <pt x="299" y="244" on="1"/>
        <pt x="215" y="244" on="1"/>
        <pt x="213" y="146" on="1"/>
        <pt x="213" y="78" on="0"/>
        <pt x="228" y="44" on="0"/>
        <pt x="257" y="44" on="1"/>
        <pt x="311" y="47" on="1"/>
        <pt x="313" y="43" on="1"/>
        <pt x="304" y="-3" on="1"/>
        <pt x="304" y="0" on="0"/>
        <pt x="172" y="0" on="0"/>
        <pt x="65" y="-6" on="0"/>
        <pt x="63" y="-8" on="1"/>
        <pt x="70" y="38" on="1"/>
        <pt x="114" y="46" on="0"/>
        <pt x="142" y="77" on="0"/>
        <pt x="142" y="120" on="1"/>
        <pt x="143" y="540" on="1"/>
        <pt x="143" y="572" on="0"/>
        <pt x="128" y="594" on="0"/>
        <pt x="106" y="594" on="1"/>
        <pt x="72" y="592" on="1"/>
        <pt x="70" y="596" on="1"/>
        <pt x="77" y="640" on="1"/>
        <pt x="150" y="637" on="0"/>
        <pt x="188" y="637" on="1"/>
        <pt x="314" y="641" on="1"/>
      </contour>
      <contour>
        <pt x="444" y="444" on="1"/>
        <pt x="444" y="521" on="0"/>
        <pt x="353" y="592" on="0"/>
        <pt x="256" y="592" on="1"/>
        <pt x="238" y="592" on="0"/>
        <pt x="230" y="588" on="0"/>
        <pt x="229" y="578" on="1"/>
        <pt x="220" y="451" on="0"/>
        <pt x="217" y="303" on="1"/>
        <pt x="323" y="288" on="1"/>
        <pt x="444" y="308" on="0"/>
      </contour>
    </TTGlyph>
    <TTGlyph name="Q" xMin="40" yMin="-216" xMax="804" yMax="649">
      <contour>
        <pt x="407" y="-5" on="1"/>
        <pt x="601" y="-137" on="0"/>
        <pt x="705" y="-137" on="1"/>
        <pt x="756" y="-137" on="0"/>
        <pt x="794" y="-127" on="1"/>
        <pt x="798" y="-130" on="1"/>
        <pt x="804" y="-148" on="1"/>
        <pt x="729" y="-216" on="0"/>
        <pt x="709" y="-216" on="1"/>
        <pt x="638" y="-216" on="0"/>
        <pt x="495" y="-142" on="0"/>
        <pt x="317" y="-12" on="1"/>
        <pt x="194" y="-12" on="0"/>
        <pt x="40" y="160" on="0"/>
        <pt x="40" y="445" on="0"/>
        <pt x="230" y="649" on="0"/>
        <pt x="494" y="649" on="0"/>
        <pt x="652" y="477" on="0"/>
        <pt x="652" y="218" on="0"/>
        <pt x="515" y="30" on="0"/>
        <pt x="407" y="0" on="1"/>
      </contour>
      <contour>
        <pt x="126" y="201" on="0"/>
        <pt x="250" y="39" on="0"/>
        <pt x="443" y="39" on="0"/>
        <pt x="563" y="184" on="0"/>
        <pt x="563" y="427" on="0"/>
        <pt x="436" y="589" on="0"/>
        <pt x="242" y="589" on="0"/>
        <pt x="126" y="445" on="0"/>
      </contour>
    </TTGlyph>
    <TTGlyph name="R" xMin="57" yMin="-16" xMax="603" yMax="641">
      <contour>
        <pt x="404" y="641" on="0"/>
        <pt x="512" y="557" on="0"/>
        <pt x="512" y="490" on="1"/>
        <pt x="512" y="359" on="0"/>
        <pt x="365" y="292" on="1"/>
        <pt x="475" y="118" on="1"/>
        <pt x="504" y="70" on="0"/>
        <pt x="559" y="33" on="0"/>
        <pt x="599" y="33" on="1"/>
        <pt x="603" y="29" on="1"/>
        <pt x="597" y="-5" on="1"/>
        <pt x="512" y="-16" on="1"/>
        <pt x="487" y="-16" on="0"/>
        <pt x="430" y="35" on="0"/>
        <pt x="406" y="79" on="1"/>
        <pt x="299" y="273" on="1"/>
        <pt x="216" y="273" on="1"/>
        <pt x="213" y="124" on="1"/>
        <pt x="213" y="70" on="0"/>
        <pt x="237" y="42" on="0"/>
        <pt x="285" y="42" on="1"/>
        <pt x="287" y="38" on="1"/>
        <pt x="278" y="-4" on="1"/>
        <pt x="278" y="-3" on="0"/>
        <pt x="172" y="-1" on="1"/>
        <pt x="57" y="-4" on="1"/>
        <pt x="66" y="41" on="1"/>
        <pt x="113" y="46" on="0"/>
        <pt x="142" y="77" on="0"/>
        <pt x="142" y="120" on="1"/>
        <pt x="143" y="540" on="1"/>
        <pt x="143" y="572" on="0"/>
        <pt x="128" y="594" on="0"/>
        <pt x="106" y="594" on="1"/>
        <pt x="72" y="592" on="1"/>
        <pt x="70" y="596" on="1"/>
        <pt x="77" y="640" on="1"/>
        <pt x="150" y="637" on="0"/>
        <pt x="188" y="637" on="1"/>
        <pt x="311" y="641" on="1"/>
      </contour>
      <contour>
        <pt x="429" y="466" on="1"/>
        <pt x="429" y="598" on="0"/>
        <pt x="246" y="598" on="1"/>
        <pt x="236" y="598" on="0"/>
        <pt x="229" y="589" on="0"/>
        <pt x="228" y="575" on="1"/>
        <pt x="219" y="422" on="0"/>
        <pt x="218" y="329" on="1"/>
        <pt x="321" y="319" on="1"/>
        <pt x="358" y="328" on="0"/>
        <pt x="392" y="363" on="1"/>
        <pt x="406" y="378" on="0"/>
        <pt x="429" y="433" on="0"/>
      </contour>
    </TTGlyph>
    <TTGlyph name="Racute" xMin="57" yMin="-16" xMax="603" yMax="841">
      <contour>
        <pt x="404" y="641" on="0"/>
        <pt x="512" y="557" on="0"/>
        <pt x="512" y="490" on="1"/>
        <pt x="512" y="359" on="0"/>
        <pt x="365" y="292" on="1"/>
        <pt x="475" y="118" on="1"/>
        <pt x="504" y="70" on="0"/>
        <pt x="559" y="33" on="0"/>
        <pt x="599" y="33" on="1"/>
        <pt x="603" y="29" on="1"/>
        <pt x="597" y="-5" on="1"/>
        <pt x="512" y="-16" on="1"/>
        <pt x="487" y="-16" on="0"/>
        <pt x="430" y="35" on="0"/>
        <pt x="406" y="79" on="1"/>
        <pt x="299" y="273" on="1"/>
        <pt x="216" y="273" on="1"/>
        <pt x="213" y="124" on="1"/>
        <pt x="213" y="70" on="0"/>
        <pt x="237" y="42" on="0"/>
        <pt x="285" y="42" on="1"/>
        <pt x="287" y="38" on="1"/>
        <pt x="278" y="-4" on="1"/>
        <pt x="278" y="-3" on="0"/>
        <pt x="172" y="-1" on="1"/>
        <pt x="57" y="-4" on="1"/>
        <pt x="66" y="41" on="1"/>
        <pt x="113" y="46" on="0"/>
        <pt x="142" y="77" on="0"/>
        <pt x="142" y="120" on="1"/>
        <pt x="143" y="540" on="1"/>
        <pt x="143" y="572" on="0"/>
        <pt x="128" y="594" on="0"/>
        <pt x="106" y="594" on="1"/>
        <pt x="72" y="592" on="1"/>
        <pt x="70" y="596" on="1"/>
        <pt x="77" y="640" on="1"/>
        <pt x="150" y="637" on="0"/>
        <pt x="188" y="637" on="1"/>
        <pt x="311" y="641" on="1"/>
      </contour>
      <contour>
        <pt x="429" y="466" on="1"/>
        <pt x="429" y="598" on="0"/>
        <pt x="246" y="598" on="1"/>
        <pt x="236" y="598" on="0"/>
        <pt x="229" y="589" on="0"/>
        <pt x="228" y="575" on="1"/>
        <pt x="219" y="422" on="0"/>
        <pt x="218" y="329" on="1"/>
        <pt x="321" y="319" on="1"/>
        <pt x="358" y="328" on="0"/>
        <pt x="392" y="363" on="1"/>
        <pt x="406" y="378" on="0"/>
        <pt x="429" y="433" on="0"/>
      </contour>
      <contour>
        <pt x="465" y="787" on="1"/>
        <pt x="461" y="777" on="1"/>
        <pt x="360" y="743" on="0"/>
        <pt x="255" y="703" on="1"/>
        <pt x="247" y="708" on="1"/>
        <pt x="241" y="732" on="1"/>
        <pt x="440" y="841" on="1"/>
        <pt x="449" y="835" on="1"/>
      </contour>
    </TTGlyph>
    <TTGlyph name="Rcaron" xMin="57" yMin="-16" xMax="603" yMax="838">
      <contour>
        <pt x="404" y="641" on="0"/>
        <pt x="512" y="557" on="0"/>
        <pt x="512" y="490" on="1"/>
        <pt x="512" y="359" on="0"/>
        <pt x="365" y="292" on="1"/>
        <pt x="475" y="118" on="1"/>
        <pt x="504" y="70" on="0"/>
        <pt x="559" y="33" on="0"/>
        <pt x="599" y="33" on="1"/>
        <pt x="603" y="29" on="1"/>
        <pt x="597" y="-5" on="1"/>
        <pt x="512" y="-16" on="1"/>
        <pt x="487" y="-16" on="0"/>
        <pt x="430" y="35" on="0"/>
        <pt x="406" y="79" on="1"/>
        <pt x="299" y="273" on="1"/>
        <pt x="216" y="273" on="1"/>
        <pt x="213" y="124" on="1"/>
        <pt x="213" y="70" on="0"/>
        <pt x="237" y="42" on="0"/>
        <pt x="285" y="42" on="1"/>
        <pt x="287" y="38" on="1"/>
        <pt x="278" y="-4" on="1"/>
        <pt x="278" y="-3" on="0"/>
        <pt x="172" y="-1" on="1"/>
        <pt x="57" y="-4" on="1"/>
        <pt x="66" y="41" on="1"/>
        <pt x="113" y="46" on="0"/>
        <pt x="142" y="77" on="0"/>
        <pt x="142" y="120" on="1"/>
        <pt x="143" y="540" on="1"/>
        <pt x="143" y="572" on="0"/>
        <pt x="128" y="594" on="0"/>
        <pt x="106" y="594" on="1"/>
        <pt x="72" y="592" on="1"/>
        <pt x="70" y="596" on="1"/>
        <pt x="77" y="640" on="1"/>
        <pt x="150" y="637" on="0"/>
        <pt x="188" y="637" on="1"/>
        <pt x="311" y="641" on="1"/>
      </contour>
      <contour>
        <pt x="429" y="466" on="1"/>
        <pt x="429" y="598" on="0"/>
        <pt x="246" y="598" on="1"/>
        <pt x="236" y="598" on="0"/>
        <pt x="229" y="589" on="0"/>
        <pt x="228" y="575" on="1"/>
        <pt x="219" y="422" on="0"/>
        <pt x="218" y="329" on="1"/>
        <pt x="321" y="319" on="1"/>
        <pt x="358" y="328" on="0"/>
        <pt x="392" y="363" on="1"/>
        <pt x="406" y="378" on="0"/>
        <pt x="429" y="433" on="0"/>
      </contour>
      <contour>
        <pt x="436" y="837" on="1"/>
        <pt x="450" y="815" on="1"/>
        <pt x="312" y="704" on="1"/>
        <pt x="298" y="704" on="1"/>
        <pt x="225" y="766" on="0"/>
        <pt x="160" y="815" on="1"/>
        <pt x="174" y="837" on="1"/>
        <pt x="183" y="838" on="1"/>
        <pt x="250" y="799" on="0"/>
        <pt x="305" y="773" on="1"/>
        <pt x="357" y="797" on="0"/>
        <pt x="427" y="838" on="1"/>
      </contour>
    </TTGlyph>
    <TTGlyph name="Rcommaaccent" xMin="57" yMin="-293" xMax="603" yMax="641">
      <contour>
        <pt x="404" y="641" on="0"/>
        <pt x="512" y="557" on="0"/>
        <pt x="512" y="490" on="1"/>
        <pt x="512" y="359" on="0"/>
        <pt x="365" y="292" on="1"/>
        <pt x="475" y="118" on="1"/>
        <pt x="504" y="70" on="0"/>
        <pt x="559" y="33" on="0"/>
        <pt x="599" y="33" on="1"/>
        <pt x="603" y="29" on="1"/>
        <pt x="597" y="-5" on="1"/>
        <pt x="512" y="-16" on="1"/>
        <pt x="487" y="-16" on="0"/>
        <pt x="430" y="35" on="0"/>
        <pt x="406" y="79" on="1"/>
        <pt x="299" y="273" on="1"/>
        <pt x="216" y="273" on="1"/>
        <pt x="213" y="124" on="1"/>
        <pt x="213" y="70" on="0"/>
        <pt x="237" y="42" on="0"/>
        <pt x="285" y="42" on="1"/>
        <pt x="287" y="38" on="1"/>
        <pt x="278" y="-4" on="1"/>
        <pt x="278" y="-3" on="0"/>
        <pt x="172" y="-1" on="1"/>
        <pt x="57" y="-4" on="1"/>
        <pt x="66" y="41" on="1"/>
        <pt x="113" y="46" on="0"/>
        <pt x="142" y="77" on="0"/>
        <pt x="142" y="120" on="1"/>
        <pt x="143" y="540" on="1"/>
        <pt x="143" y="572" on="0"/>
        <pt x="128" y="594" on="0"/>
        <pt x="106" y="594" on="1"/>
        <pt x="72" y="592" on="1"/>
        <pt x="70" y="596" on="1"/>
        <pt x="77" y="640" on="1"/>
        <pt x="150" y="637" on="0"/>
        <pt x="188" y="637" on="1"/>
        <pt x="311" y="641" on="1"/>
      </contour>
      <contour>
        <pt x="429" y="466" on="1"/>
        <pt x="429" y="598" on="0"/>
        <pt x="246" y="598" on="1"/>
        <pt x="236" y="598" on="0"/>
        <pt x="229" y="589" on="0"/>
        <pt x="228" y="575" on="1"/>
        <pt x="219" y="422" on="0"/>
        <pt x="218" y="329" on="1"/>
        <pt x="321" y="319" on="1"/>
        <pt x="358" y="328" on="0"/>
        <pt x="392" y="363" on="1"/>
        <pt x="406" y="378" on="0"/>
        <pt x="429" y="433" on="0"/>
      </contour>
      <contour>
        <pt x="267" y="-93" on="1"/>
        <pt x="301" y="-67" on="0"/>
        <pt x="348" y="-67" on="0"/>
        <pt x="379" y="-106" on="0"/>
        <pt x="379" y="-138" on="1"/>
        <pt x="379" y="-187" on="0"/>
        <pt x="303" y="-266" on="0"/>
        <pt x="251" y="-293" on="1"/>
        <pt x="233" y="-278" on="1"/>
        <pt x="233" y="-268" on="1"/>
        <pt x="264" y="-249" on="0"/>
        <pt x="305" y="-194" on="0"/>
        <pt x="305" y="-169" on="1"/>
        <pt x="305" y="-131" on="0"/>
        <pt x="265" y="-107" on="1"/>
      </contour>
    </TTGlyph>
    <TTGlyph name="S" xMin="57" yMin="-12" xMax="466" yMax="649">
      <contour>
        <pt x="219" y="-12" on="1"/>
        <pt x="177" y="-12" on="0"/>
        <pt x="99" y="5" on="0"/>
        <pt x="62" y="22" on="1"/>
        <pt x="57" y="32" on="1"/>
        <pt x="69" y="109" on="0"/>
        <pt x="69" y="206" on="1"/>
        <pt x="114" y="211" on="1"/>
        <pt x="114" y="103" on="0"/>
        <pt x="163" y="37" on="0"/>
        <pt x="307" y="37" on="0"/>
        <pt x="383" y="96" on="0"/>
        <pt x="383" y="147" on="1"/>
        <pt x="383" y="191" on="0"/>
        <pt x="338" y="225" on="1"/>
        <pt x="305" y="250" on="0"/>
        <pt x="239" y="284" on="0"/>
        <pt x="236" y="285" on="0"/>
        <pt x="233" y="287" on="0"/>
        <pt x="193" y="308" on="0"/>
        <pt x="148" y="335" on="0"/>
        <pt x="121" y="358" on="1"/>
        <pt x="68" y="402" on="0"/>
        <pt x="68" y="463" on="1"/>
        <pt x="68" y="542" on="0"/>
        <pt x="201" y="649" on="0"/>
        <pt x="298" y="649" on="1"/>
        <pt x="374" y="649" on="0"/>
        <pt x="451" y="624" on="1"/>
        <pt x="454" y="618" on="1"/>
        <pt x="438" y="541" on="0"/>
        <pt x="432" y="449" on="1"/>
        <pt x="393" y="445" on="1"/>
        <pt x="387" y="450" on="1"/>
        <pt x="390" y="471" on="0"/>
        <pt x="390" y="502" on="1"/>
        <pt x="390" y="555" on="0"/>
        <pt x="338" y="595" on="0"/>
        <pt x="216" y="595" on="0"/>
        <pt x="145" y="540" on="0"/>
        <pt x="145" y="459" on="0"/>
        <pt x="214" y="400" on="0"/>
        <pt x="380" y="314" on="0"/>
        <pt x="412" y="286" on="1"/>
        <pt x="466" y="240" on="0"/>
        <pt x="466" y="183" on="1"/>
        <pt x="466" y="97" on="0"/>
        <pt x="328" y="-12" on="0"/>
      </contour>
    </TTGlyph>
    <TTGlyph name="Sacute" xMin="57" yMin="-12" xMax="466" yMax="841">
      <contour>
        <pt x="219" y="-12" on="1"/>
        <pt x="177" y="-12" on="0"/>
        <pt x="99" y="5" on="0"/>
        <pt x="62" y="22" on="1"/>
        <pt x="57" y="32" on="1"/>
        <pt x="69" y="109" on="0"/>
        <pt x="69" y="206" on="1"/>
        <pt x="114" y="211" on="1"/>
        <pt x="114" y="103" on="0"/>
        <pt x="163" y="37" on="0"/>
        <pt x="307" y="37" on="0"/>
        <pt x="383" y="96" on="0"/>
        <pt x="383" y="147" on="1"/>
        <pt x="383" y="191" on="0"/>
        <pt x="338" y="225" on="1"/>
        <pt x="305" y="250" on="0"/>
        <pt x="239" y="284" on="0"/>
        <pt x="236" y="285" on="0"/>
        <pt x="233" y="287" on="0"/>
        <pt x="193" y="308" on="0"/>
        <pt x="148" y="335" on="0"/>
        <pt x="121" y="358" on="1"/>
        <pt x="68" y="402" on="0"/>
        <pt x="68" y="463" on="1"/>
        <pt x="68" y="542" on="0"/>
        <pt x="201" y="649" on="0"/>
        <pt x="298" y="649" on="1"/>
        <pt x="374" y="649" on="0"/>
        <pt x="451" y="624" on="1"/>
        <pt x="454" y="618" on="1"/>
        <pt x="438" y="541" on="0"/>
        <pt x="432" y="449" on="1"/>
        <pt x="393" y="445" on="1"/>
        <pt x="387" y="450" on="1"/>
        <pt x="390" y="471" on="0"/>
        <pt x="390" y="502" on="1"/>
        <pt x="390" y="555" on="0"/>
        <pt x="338" y="595" on="0"/>
        <pt x="216" y="595" on="0"/>
        <pt x="145" y="540" on="0"/>
        <pt x="145" y="459" on="0"/>
        <pt x="214" y="400" on="0"/>
        <pt x="380" y="314" on="0"/>
        <pt x="412" y="286" on="1"/>
        <pt x="466" y="240" on="0"/>
        <pt x="466" y="183" on="1"/>
        <pt x="466" y="97" on="0"/>
        <pt x="328" y="-12" on="0"/>
      </contour>
      <contour>
        <pt x="422" y="787" on="1"/>
        <pt x="418" y="777" on="1"/>
        <pt x="317" y="743" on="0"/>
        <pt x="212" y="703" on="1"/>
        <pt x="204" y="708" on="1"/>
        <pt x="198" y="732" on="1"/>
        <pt x="397" y="841" on="1"/>
        <pt x="406" y="835" on="1"/>
      </contour>
    </TTGlyph>
    <TTGlyph name="Scaron" xMin="57" yMin="-12" xMax="466" yMax="838">
      <contour>
        <pt x="219" y="-12" on="1"/>
        <pt x="177" y="-12" on="0"/>
        <pt x="99" y="5" on="0"/>
        <pt x="62" y="22" on="1"/>
        <pt x="57" y="32" on="1"/>
        <pt x="69" y="109" on="0"/>
        <pt x="69" y="206" on="1"/>
        <pt x="114" y="211" on="1"/>
        <pt x="114" y="103" on="0"/>
        <pt x="163" y="37" on="0"/>
        <pt x="307" y="37" on="0"/>
        <pt x="383" y="96" on="0"/>
        <pt x="383" y="147" on="1"/>
        <pt x="383" y="191" on="0"/>
        <pt x="338" y="225" on="1"/>
        <pt x="305" y="250" on="0"/>
        <pt x="239" y="284" on="0"/>
        <pt x="236" y="285" on="0"/>
        <pt x="233" y="287" on="0"/>
        <pt x="193" y="308" on="0"/>
        <pt x="148" y="335" on="0"/>
        <pt x="121" y="358" on="1"/>
        <pt x="68" y="402" on="0"/>
        <pt x="68" y="463" on="1"/>
        <pt x="68" y="542" on="0"/>
        <pt x="201" y="649" on="0"/>
        <pt x="298" y="649" on="1"/>
        <pt x="374" y="649" on="0"/>
        <pt x="451" y="624" on="1"/>
        <pt x="454" y="618" on="1"/>
        <pt x="438" y="541" on="0"/>
        <pt x="432" y="449" on="1"/>
        <pt x="393" y="445" on="1"/>
        <pt x="387" y="450" on="1"/>
        <pt x="390" y="471" on="0"/>
        <pt x="390" y="502" on="1"/>
        <pt x="390" y="555" on="0"/>
        <pt x="338" y="595" on="0"/>
        <pt x="216" y="595" on="0"/>
        <pt x="145" y="540" on="0"/>
        <pt x="145" y="459" on="0"/>
        <pt x="214" y="400" on="0"/>
        <pt x="380" y="314" on="0"/>
        <pt x="412" y="286" on="1"/>
        <pt x="466" y="240" on="0"/>
        <pt x="466" y="183" on="1"/>
        <pt x="466" y="97" on="0"/>
        <pt x="328" y="-12" on="0"/>
      </contour>
      <contour>
        <pt x="393" y="837" on="1"/>
        <pt x="407" y="815" on="1"/>
        <pt x="269" y="704" on="1"/>
        <pt x="255" y="704" on="1"/>
        <pt x="182" y="766" on="0"/>
        <pt x="117" y="815" on="1"/>
        <pt x="131" y="837" on="1"/>
        <pt x="140" y="838" on="1"/>
        <pt x="207" y="799" on="0"/>
        <pt x="262" y="773" on="1"/>
        <pt x="314" y="797" on="0"/>
        <pt x="384" y="838" on="1"/>
      </contour>
    </TTGlyph>
    <TTGlyph name="Scedilla" xMin="57" yMin="-233" xMax="466" yMax="649">
      <contour>
        <pt x="219" y="-12" on="1"/>
        <pt x="177" y="-12" on="0"/>
        <pt x="99" y="5" on="0"/>
        <pt x="62" y="22" on="1"/>
        <pt x="57" y="32" on="1"/>
        <pt x="69" y="109" on="0"/>
        <pt x="69" y="206" on="1"/>
        <pt x="114" y="211" on="1"/>
        <pt x="114" y="103" on="0"/>
        <pt x="163" y="37" on="0"/>
        <pt x="307" y="37" on="0"/>
        <pt x="383" y="96" on="0"/>
        <pt x="383" y="147" on="1"/>
        <pt x="383" y="191" on="0"/>
        <pt x="338" y="225" on="1"/>
        <pt x="305" y="250" on="0"/>
        <pt x="239" y="284" on="0"/>
        <pt x="236" y="285" on="0"/>
        <pt x="233" y="287" on="0"/>
        <pt x="193" y="308" on="0"/>
        <pt x="148" y="335" on="0"/>
        <pt x="121" y="358" on="1"/>
        <pt x="68" y="402" on="0"/>
        <pt x="68" y="463" on="1"/>
        <pt x="68" y="542" on="0"/>
        <pt x="201" y="649" on="0"/>
        <pt x="298" y="649" on="1"/>
        <pt x="374" y="649" on="0"/>
        <pt x="451" y="624" on="1"/>
        <pt x="454" y="618" on="1"/>
        <pt x="438" y="541" on="0"/>
        <pt x="432" y="449" on="1"/>
        <pt x="393" y="445" on="1"/>
        <pt x="387" y="450" on="1"/>
        <pt x="390" y="471" on="0"/>
        <pt x="390" y="502" on="1"/>
        <pt x="390" y="555" on="0"/>
        <pt x="338" y="595" on="0"/>
        <pt x="216" y="595" on="0"/>
        <pt x="145" y="540" on="0"/>
        <pt x="145" y="459" on="0"/>
        <pt x="214" y="400" on="0"/>
        <pt x="380" y="314" on="0"/>
        <pt x="412" y="286" on="1"/>
        <pt x="466" y="240" on="0"/>
        <pt x="466" y="183" on="1"/>
        <pt x="466" y="108" on="0"/>
        <pt x="358" y="4" on="0"/>
        <pt x="270" y="-8" on="1"/>
        <pt x="256" y="-50" on="1"/>
        <pt x="260" y="-53" on="0"/>
        <pt x="287" y="-71" on="0"/>
        <pt x="300" y="-80" on="0"/>
        <pt x="321" y="-98" on="0"/>
        <pt x="326" y="-105" on="1"/>
        <pt x="341" y="-123" on="0"/>
        <pt x="341" y="-139" on="1"/>
        <pt x="341" y="-177" on="0"/>
        <pt x="264" y="-233" on="0"/>
        <pt x="196" y="-233" on="0"/>
        <pt x="153" y="-213" on="0"/>
        <pt x="153" y="-181" on="0"/>
        <pt x="178" y="-141" on="1"/>
        <pt x="187" y="-141" on="1"/>
        <pt x="188" y="-168" on="0"/>
        <pt x="218" y="-198" on="0"/>
        <pt x="262" y="-198" on="0"/>
        <pt x="290" y="-177" on="0"/>
        <pt x="290" y="-160" on="1"/>
        <pt x="290" y="-134" on="0"/>
        <pt x="205" y="-85" on="1"/>
        <pt x="227" y="-12" on="1"/>
      </contour>
    </TTGlyph>
    <TTGlyph name="Scircumflex" xMin="57" yMin="-12" xMax="466" yMax="877">
      <contour>
        <pt x="162" y="702" on="1"/>
        <pt x="148" y="724" on="1"/>
        <pt x="197" y="775" on="0"/>
        <pt x="286" y="877" on="1"/>
        <pt x="300" y="877" on="1"/>
        <pt x="373" y="792" on="0"/>
        <pt x="438" y="724" on="1"/>
        <pt x="424" y="702" on="1"/>
        <pt x="415" y="701" on="1"/>
        <pt x="393" y="720" on="0"/>
        <pt x="293" y="798" on="1"/>
        <pt x="215" y="740" on="0"/>
        <pt x="171" y="701" on="1"/>
      </contour>
      <contour>
        <pt x="219" y="-12" on="1"/>
        <pt x="177" y="-12" on="0"/>
        <pt x="99" y="5" on="0"/>
        <pt x="62" y="22" on="1"/>
        <pt x="57" y="32" on="1"/>
        <pt x="69" y="109" on="0"/>
        <pt x="69" y="206" on="1"/>
        <pt x="114" y="211" on="1"/>
        <pt x="114" y="103" on="0"/>
        <pt x="163" y="37" on="0"/>
        <pt x="307" y="37" on="0"/>
        <pt x="383" y="96" on="0"/>
        <pt x="383" y="147" on="1"/>
        <pt x="383" y="191" on="0"/>
        <pt x="338" y="225" on="1"/>
        <pt x="305" y="250" on="0"/>
        <pt x="239" y="284" on="0"/>
        <pt x="236" y="285" on="0"/>
        <pt x="233" y="287" on="0"/>
        <pt x="193" y="308" on="0"/>
        <pt x="148" y="335" on="0"/>
        <pt x="121" y="358" on="1"/>
        <pt x="68" y="402" on="0"/>
        <pt x="68" y="463" on="1"/>
        <pt x="68" y="542" on="0"/>
        <pt x="201" y="649" on="0"/>
        <pt x="298" y="649" on="1"/>
        <pt x="374" y="649" on="0"/>
        <pt x="451" y="624" on="1"/>
        <pt x="454" y="618" on="1"/>
        <pt x="438" y="541" on="0"/>
        <pt x="432" y="449" on="1"/>
        <pt x="393" y="445" on="1"/>
        <pt x="387" y="450" on="1"/>
        <pt x="390" y="471" on="0"/>
        <pt x="390" y="502" on="1"/>
        <pt x="390" y="555" on="0"/>
        <pt x="338" y="595" on="0"/>
        <pt x="216" y="595" on="0"/>
        <pt x="145" y="540" on="0"/>
        <pt x="145" y="459" on="0"/>
        <pt x="214" y="400" on="0"/>
        <pt x="380" y="314" on="0"/>
        <pt x="412" y="286" on="1"/>
        <pt x="466" y="240" on="0"/>
        <pt x="466" y="183" on="1"/>
        <pt x="466" y="97" on="0"/>
        <pt x="328" y="-12" on="0"/>
      </contour>
    </TTGlyph>
    <TTGlyph name="Scommaaccent" xMin="57" yMin="-293" xMax="466" yMax="649">
      <contour>
        <pt x="219" y="-12" on="1"/>
        <pt x="177" y="-12" on="0"/>
        <pt x="99" y="5" on="0"/>
        <pt x="62" y="22" on="1"/>
        <pt x="57" y="32" on="1"/>
        <pt x="69" y="109" on="0"/>
        <pt x="69" y="206" on="1"/>
        <pt x="114" y="211" on="1"/>
        <pt x="114" y="103" on="0"/>
        <pt x="163" y="37" on="0"/>
        <pt x="307" y="37" on="0"/>
        <pt x="383" y="96" on="0"/>
        <pt x="383" y="147" on="1"/>
        <pt x="383" y="191" on="0"/>
        <pt x="338" y="225" on="1"/>
        <pt x="305" y="250" on="0"/>
        <pt x="239" y="284" on="0"/>
        <pt x="236" y="285" on="0"/>
        <pt x="233" y="287" on="0"/>
        <pt x="193" y="308" on="0"/>
        <pt x="148" y="335" on="0"/>
        <pt x="121" y="358" on="1"/>
        <pt x="68" y="402" on="0"/>
        <pt x="68" y="463" on="1"/>
        <pt x="68" y="542" on="0"/>
        <pt x="201" y="649" on="0"/>
        <pt x="298" y="649" on="1"/>
        <pt x="374" y="649" on="0"/>
        <pt x="451" y="624" on="1"/>
        <pt x="454" y="618" on="1"/>
        <pt x="438" y="541" on="0"/>
        <pt x="432" y="449" on="1"/>
        <pt x="393" y="445" on="1"/>
        <pt x="387" y="450" on="1"/>
        <pt x="390" y="471" on="0"/>
        <pt x="390" y="502" on="1"/>
        <pt x="390" y="555" on="0"/>
        <pt x="338" y="595" on="0"/>
        <pt x="216" y="595" on="0"/>
        <pt x="145" y="540" on="0"/>
        <pt x="145" y="459" on="0"/>
        <pt x="214" y="400" on="0"/>
        <pt x="380" y="314" on="0"/>
        <pt x="412" y="286" on="1"/>
        <pt x="466" y="240" on="0"/>
        <pt x="466" y="183" on="1"/>
        <pt x="466" y="97" on="0"/>
        <pt x="328" y="-12" on="0"/>
      </contour>
      <contour>
        <pt x="200" y="-93" on="1"/>
        <pt x="234" y="-67" on="0"/>
        <pt x="281" y="-67" on="0"/>
        <pt x="312" y="-106" on="0"/>
        <pt x="312" y="-138" on="1"/>
        <pt x="312" y="-187" on="0"/>
        <pt x="236" y="-266" on="0"/>
        <pt x="184" y="-293" on="1"/>
        <pt x="166" y="-278" on="1"/>
        <pt x="166" y="-268" on="1"/>
        <pt x="197" y="-249" on="0"/>
        <pt x="238" y="-194" on="0"/>
        <pt x="238" y="-169" on="1"/>
        <pt x="238" y="-131" on="0"/>
        <pt x="198" y="-107" on="1"/>
      </contour>
    </TTGlyph>
    <TTGlyph name="T" xMin="9" yMin="-4" xMax="535" yMax="649">
      <contour>
        <pt x="233" y="162" on="1"/>
        <pt x="233" y="598" on="1"/>
        <pt x="186" y="596" on="0"/>
        <pt x="145" y="594" on="0"/>
        <pt x="98" y="582" on="0"/>
        <pt x="85" y="572" on="0"/>
        <pt x="66" y="537" on="0"/>
        <pt x="61" y="507" on="0"/>
        <pt x="56" y="472" on="1"/>
        <pt x="9" y="468" on="1"/>
        <pt x="21" y="556" on="0"/>
        <pt x="24" y="641" on="1"/>
        <pt x="33" y="649" on="1"/>
        <pt x="116" y="638" on="1"/>
        <pt x="426" y="638" on="1"/>
        <pt x="511" y="649" on="1"/>
        <pt x="520" y="641" on="1"/>
        <pt x="522" y="576" on="0"/>
        <pt x="535" y="472" on="1"/>
        <pt x="488" y="468" on="1"/>
        <pt x="482" y="503" on="0"/>
        <pt x="476" y="535" on="0"/>
        <pt x="458" y="571" on="0"/>
        <pt x="444" y="581" on="0"/>
        <pt x="401" y="594" on="0"/>
        <pt x="361" y="596" on="0"/>
        <pt x="319" y="598" on="1"/>
        <pt x="303" y="438" on="0"/>
        <pt x="303" y="112" on="1"/>
        <pt x="303" y="75" on="0"/>
        <pt x="329" y="44" on="0"/>
        <pt x="360" y="44" on="1"/>
        <pt x="415" y="47" on="1"/>
        <pt x="418" y="43" on="1"/>
        <pt x="409" y="-3" on="1"/>
        <pt x="309" y="0" on="0"/>
        <pt x="262" y="0" on="1"/>
        <pt x="125" y="-4" on="1"/>
        <pt x="133" y="39" on="1"/>
        <pt x="203" y="45" on="0"/>
        <pt x="233" y="82" on="0"/>
      </contour>
    </TTGlyph>
    <TTGlyph name="Tbar" xMin="9" yMin="-4" xMax="535" yMax="649">
      <contour>
        <pt x="233" y="162" on="1"/>
        <pt x="233" y="299" on="1"/>
        <pt x="140" y="298" on="1"/>
        <pt x="131" y="307" on="1"/>
        <pt x="138" y="346" on="1"/>
        <pt x="186" y="345" on="0"/>
        <pt x="233" y="345" on="1"/>
        <pt x="233" y="598" on="1"/>
        <pt x="186" y="596" on="0"/>
        <pt x="145" y="594" on="0"/>
        <pt x="98" y="582" on="0"/>
        <pt x="85" y="572" on="0"/>
        <pt x="66" y="537" on="0"/>
        <pt x="61" y="507" on="0"/>
        <pt x="56" y="472" on="1"/>
        <pt x="9" y="468" on="1"/>
        <pt x="21" y="556" on="0"/>
        <pt x="24" y="641" on="1"/>
        <pt x="33" y="649" on="1"/>
        <pt x="116" y="638" on="1"/>
        <pt x="426" y="638" on="1"/>
        <pt x="511" y="649" on="1"/>
        <pt x="520" y="641" on="1"/>
        <pt x="522" y="576" on="0"/>
        <pt x="535" y="472" on="1"/>
        <pt x="488" y="468" on="1"/>
        <pt x="482" y="503" on="0"/>
        <pt x="476" y="535" on="0"/>
        <pt x="458" y="571" on="0"/>
        <pt x="444" y="581" on="0"/>
        <pt x="401" y="594" on="0"/>
        <pt x="361" y="596" on="0"/>
        <pt x="319" y="598" on="1"/>
        <pt x="311" y="525" on="0"/>
        <pt x="306" y="345" on="1"/>
        <pt x="383" y="350" on="1"/>
        <pt x="396" y="337" on="1"/>
        <pt x="392" y="300" on="1"/>
        <pt x="305" y="299" on="1"/>
        <pt x="303" y="169" on="0"/>
        <pt x="303" y="75" on="0"/>
        <pt x="329" y="44" on="0"/>
        <pt x="360" y="44" on="1"/>
        <pt x="415" y="47" on="1"/>
        <pt x="418" y="43" on="1"/>
        <pt x="409" y="-3" on="1"/>
        <pt x="309" y="0" on="0"/>
        <pt x="262" y="0" on="1"/>
        <pt x="125" y="-4" on="1"/>
        <pt x="133" y="39" on="1"/>
        <pt x="203" y="45" on="0"/>
        <pt x="233" y="82" on="0"/>
      </contour>
    </TTGlyph>
</ttFont>
